<svg width="608" height="111" viewBox="0 0 608 111" fill="none" xmlns="http://www.w3.org/2000/svg">
<path d="M9.86133 38V7.5H0.411328V0.749997H26.9113V7.5H17.6113V38H9.86133ZM30.1992 38V10.7H37.6992V38H30.1992ZM30.1992 8.25V0.749997H37.6992V8.25H30.1992ZM43.1875 38V10.7H50.1875V17.25L49.6875 16.3C50.2875 14 51.2708 12.45 52.6375 11.65C54.0375 10.8167 55.6875 10.4 57.5875 10.4H59.1875V16.9H56.8375C55.0042 16.9 53.5208 17.4667 52.3875 18.6C51.2542 19.7 50.6875 21.2667 50.6875 23.3V38H43.1875ZM75.6246 38.6C72.7246 38.6 70.2079 37.9667 68.0746 36.7C65.9413 35.4 64.2913 33.6667 63.1246 31.5C61.9579 29.3333 61.3746 26.9333 61.3746 24.3C61.3746 21.5667 61.9746 19.1333 63.1746 17C64.4079 14.8667 66.0579 13.1833 68.1246 11.95C70.1913 10.7167 72.5246 10.1 75.1246 10.1C77.2913 10.1 79.2079 10.45 80.8746 11.15C82.5413 11.8167 83.9413 12.7667 85.0746 14C86.2413 15.2333 87.1246 16.6667 87.7246 18.3C88.3246 19.9 88.6246 21.65 88.6246 23.55C88.6246 24.0833 88.5913 24.6167 88.5246 25.15C88.4913 25.65 88.4079 26.0833 88.2746 26.45H67.8246V20.95H84.0246L80.4746 23.55C80.8079 22.1167 80.7913 20.85 80.4246 19.75C80.0579 18.6167 79.4079 17.7333 78.4746 17.1C77.5746 16.4333 76.4579 16.1 75.1246 16.1C73.8246 16.1 72.7079 16.4167 71.7746 17.05C70.8413 17.6833 70.1413 18.6167 69.6746 19.85C69.2079 21.0833 69.0246 22.5833 69.1246 24.35C68.9913 25.8833 69.1746 27.2333 69.6746 28.4C70.1746 29.5667 70.9413 30.4833 71.9746 31.15C73.0079 31.7833 74.2579 32.1 75.7246 32.1C77.0579 32.1 78.1913 31.8333 79.1246 31.3C80.0913 30.7667 80.8413 30.0333 81.3746 29.1L87.3746 31.95C86.8413 33.2833 85.9913 34.45 84.8246 35.45C83.6913 36.45 82.3413 37.2333 80.7746 37.8C79.2079 38.3333 77.4913 38.6 75.6246 38.6ZM105.891 38.6C103.224 38.6 100.841 37.9667 98.741 36.7C96.641 35.4333 94.9743 33.7167 93.741 31.55C92.541 29.3833 91.941 26.9833 91.941 24.35C91.941 21.6833 92.5577 19.2833 93.791 17.15C95.0243 14.9833 96.691 13.2667 98.791 12C100.891 10.7333 103.241 10.1 105.841 10.1C107.841 10.1 109.608 10.4833 111.141 11.25C112.708 11.9833 113.941 13.0333 114.841 14.4L113.691 15.9V0.149999H121.191V38H114.191V33L114.891 34.55C113.958 35.8833 112.691 36.9 111.091 37.6C109.491 38.2667 107.758 38.6 105.891 38.6ZM106.791 31.85C108.158 31.85 109.358 31.5333 110.391 30.9C111.424 30.2667 112.224 29.3833 112.791 28.25C113.391 27.1167 113.691 25.8167 113.691 24.35C113.691 22.8833 113.391 21.5833 112.791 20.45C112.224 19.3167 111.424 18.4333 110.391 17.8C109.358 17.1667 108.158 16.85 106.791 16.85C105.424 16.85 104.191 17.1833 103.091 17.85C102.024 18.4833 101.191 19.3667 100.591 20.5C99.991 21.6 99.691 22.8833 99.691 24.35C99.691 25.8167 99.991 27.1167 100.591 28.25C101.191 29.3833 102.024 30.2667 103.091 30.9C104.191 31.5333 105.424 31.85 106.791 31.85ZM149.218 38.6C146.518 38.6 144.051 37.9833 141.818 36.75C139.618 35.5167 137.851 33.8333 136.518 31.7C135.218 29.5333 134.568 27.0833 134.568 24.35C134.568 21.5833 135.218 19.1333 136.518 17C137.851 14.8667 139.618 13.1833 141.818 11.95C144.051 10.7167 146.518 10.1 149.218 10.1C151.918 10.1 154.368 10.7167 156.568 11.95C158.768 13.1833 160.518 14.8667 161.818 17C163.151 19.1333 163.818 21.5833 163.818 24.35C163.818 27.0833 163.151 29.5333 161.818 31.7C160.518 33.8333 158.768 35.5167 156.568 36.75C154.368 37.9833 151.918 38.6 149.218 38.6ZM149.218 31.85C150.585 31.85 151.768 31.5333 152.768 30.9C153.801 30.2667 154.601 29.3833 155.168 28.25C155.768 27.1167 156.068 25.8167 156.068 24.35C156.068 22.8833 155.768 21.6 155.168 20.5C154.601 19.3667 153.801 18.4833 152.768 17.85C151.768 17.1833 150.585 16.85 149.218 16.85C147.851 16.85 146.651 17.1833 145.618 17.85C144.585 18.4833 143.768 19.3667 143.168 20.5C142.601 21.6 142.318 22.8833 142.318 24.35C142.318 25.8167 142.601 27.1167 143.168 28.25C143.768 29.3833 144.585 30.2667 145.618 30.9C146.651 31.5333 147.851 31.85 149.218 31.85ZM171.048 38V17.2H166.448V10.7H171.048V10.3C171.048 8.13333 171.465 6.3 172.298 4.8C173.165 3.3 174.398 2.15 175.998 1.35C177.598 0.549998 179.531 0.149999 181.798 0.149999C182.231 0.149999 182.698 0.183331 183.198 0.249997C183.698 0.283332 184.115 0.333332 184.448 0.399998V6.8C184.115 6.73333 183.815 6.7 183.548 6.7C183.315 6.66666 183.065 6.65 182.798 6.65C181.398 6.65 180.331 6.96666 179.598 7.6C178.898 8.2 178.548 9.1 178.548 10.3V10.7H184.398V17.2H178.548V38H171.048ZM60.0115 100.6C58.0449 100.6 56.3449 100.283 54.9115 99.65C53.4782 99.0167 52.3782 98.1167 51.6115 96.95C50.8449 95.75 50.4615 94.3333 50.4615 92.7C50.4615 91.1667 50.8115 89.8167 51.5115 88.65C52.2115 87.45 53.2782 86.45 54.7115 85.65C56.1782 84.85 57.9949 84.2833 60.1615 83.95L68.5115 82.6V88.1L61.5115 89.35C60.4449 89.55 59.6282 89.9 59.0615 90.4C58.4949 90.8667 58.2115 91.55 58.2115 92.45C58.2115 93.2833 58.5282 93.9333 59.1615 94.4C59.7949 94.8667 60.5782 95.1 61.5115 95.1C62.7449 95.1 63.8282 94.8333 64.7615 94.3C65.6949 93.7667 66.4115 93.05 66.9115 92.15C67.4449 91.2167 67.7115 90.2 67.7115 89.1V82C67.7115 80.9667 67.2949 80.1 66.4615 79.4C65.6615 78.7 64.5615 78.35 63.1615 78.35C61.8282 78.35 60.6449 78.7167 59.6115 79.45C58.6115 80.1833 57.8782 81.15 57.4115 82.35L51.4115 79.5C51.9449 77.9667 52.7949 76.65 53.9615 75.55C55.1282 74.45 56.5282 73.6 58.1615 73C59.7949 72.4 61.5782 72.1 63.5115 72.1C65.8115 72.1 67.8449 72.5167 69.6115 73.35C71.3782 74.1833 72.7449 75.35 73.7115 76.85C74.7115 78.3167 75.2115 80.0333 75.2115 82V100H68.2115V95.6L69.9115 95.3C69.1115 96.5 68.2282 97.5 67.2615 98.3C66.2949 99.0667 65.2115 99.6333 64.0115 100C62.8115 100.4 61.4782 100.6 60.0115 100.6ZM80.7119 100V72.7H87.7119V78.1L87.3119 76.9C87.9452 75.2667 88.9619 74.0667 90.3619 73.3C91.7952 72.5 93.4619 72.1 95.3619 72.1C97.4286 72.1 99.2286 72.5333 100.762 73.4C102.329 74.2667 103.545 75.4833 104.412 77.05C105.279 78.5833 105.712 80.3833 105.712 82.45V100H98.2119V84.05C98.2119 82.9833 97.9952 82.0667 97.5619 81.3C97.1619 80.5333 96.5786 79.9333 95.8119 79.5C95.0786 79.0667 94.2119 78.85 93.2119 78.85C92.2452 78.85 91.3786 79.0667 90.6119 79.5C89.8452 79.9333 89.2452 80.5333 88.8119 81.3C88.4119 82.0667 88.2119 82.9833 88.2119 84.05V100H80.7119ZM123.494 100.6C120.827 100.6 118.444 99.9667 116.344 98.7C114.244 97.4333 112.577 95.7167 111.344 93.55C110.144 91.3833 109.544 88.9833 109.544 86.35C109.544 83.6833 110.16 81.2833 111.394 79.15C112.627 76.9833 114.294 75.2667 116.394 74C118.494 72.7333 120.844 72.1 123.444 72.1C125.444 72.1 127.21 72.4833 128.744 73.25C130.31 73.9833 131.544 75.0333 132.444 76.4L131.294 77.9V62.15H138.794V100H131.794V95L132.494 96.55C131.56 97.8833 130.294 98.9 128.694 99.6C127.094 100.267 125.36 100.6 123.494 100.6ZM124.394 93.85C125.76 93.85 126.96 93.5333 127.994 92.9C129.027 92.2667 129.827 91.3833 130.394 90.25C130.994 89.1167 131.294 87.8167 131.294 86.35C131.294 84.8833 130.994 83.5833 130.394 82.45C129.827 81.3167 129.027 80.4333 127.994 79.8C126.96 79.1667 125.76 78.85 124.394 78.85C123.027 78.85 121.794 79.1833 120.694 79.85C119.627 80.4833 118.794 81.3667 118.194 82.5C117.594 83.6 117.294 84.8833 117.294 86.35C117.294 87.8167 117.594 89.1167 118.194 90.25C118.794 91.3833 119.627 92.2667 120.694 92.9C121.794 93.5333 123.027 93.85 124.394 93.85ZM153.271 100V62.15H160.771V100H153.271ZM179.809 100.6C177.109 100.6 174.642 99.9833 172.409 98.75C170.209 97.5167 168.442 95.8333 167.109 93.7C165.809 91.5333 165.159 89.0833 165.159 86.35C165.159 83.5833 165.809 81.1333 167.109 79C168.442 76.8667 170.209 75.1833 172.409 73.95C174.642 72.7167 177.109 72.1 179.809 72.1C182.509 72.1 184.959 72.7167 187.159 73.95C189.359 75.1833 191.109 76.8667 192.409 79C193.742 81.1333 194.409 83.5833 194.409 86.35C194.409 89.0833 193.742 91.5333 192.409 93.7C191.109 95.8333 189.359 97.5167 187.159 98.75C184.959 99.9833 182.509 100.6 179.809 100.6ZM179.809 93.85C181.175 93.85 182.359 93.5333 183.359 92.9C184.392 92.2667 185.192 91.3833 185.759 90.25C186.359 89.1167 186.659 87.8167 186.659 86.35C186.659 84.8833 186.359 83.6 185.759 82.5C185.192 81.3667 184.392 80.4833 183.359 79.85C182.359 79.1833 181.175 78.85 179.809 78.85C178.442 78.85 177.242 79.1833 176.209 79.85C175.175 80.4833 174.359 81.3667 173.759 82.5C173.192 83.6 172.909 84.8833 172.909 86.35C172.909 87.8167 173.192 89.1167 173.759 90.25C174.359 91.3833 175.175 92.2667 176.209 92.9C177.242 93.5333 178.442 93.85 179.809 93.85ZM209.527 100.6C206.527 100.6 203.91 99.9 201.677 98.5C199.477 97.0667 197.977 95.15 197.177 92.75L202.677 90.15C203.377 91.6167 204.327 92.7667 205.527 93.6C206.727 94.4333 208.06 94.85 209.527 94.85C210.594 94.85 211.41 94.6333 211.977 94.2C212.544 93.7667 212.827 93.1667 212.827 92.4C212.827 92 212.727 91.6667 212.527 91.4C212.327 91.1 212.027 90.8333 211.627 90.6C211.227 90.3667 210.727 90.1667 210.127 90L205.477 88.7C203.244 88.0667 201.527 87.05 200.327 85.65C199.127 84.2167 198.527 82.5333 198.527 80.6C198.527 78.9 198.96 77.4167 199.827 76.15C200.694 74.8833 201.91 73.9 203.477 73.2C205.044 72.4667 206.844 72.1 208.877 72.1C211.544 72.1 213.877 72.7333 215.877 74C217.91 75.2333 219.344 76.9833 220.177 79.25L214.627 81.85C214.227 80.7167 213.494 79.8167 212.427 79.15C211.394 78.45 210.21 78.1 208.877 78.1C207.91 78.1 207.144 78.3 206.577 78.7C206.044 79.1 205.777 79.65 205.777 80.35C205.777 80.7167 205.877 81.05 206.077 81.35C206.277 81.65 206.594 81.9167 207.027 82.15C207.494 82.3833 208.06 82.6 208.727 82.8L213.077 84.1C215.344 84.7667 217.077 85.7833 218.277 87.15C219.477 88.4833 220.077 90.1333 220.077 92.1C220.077 93.8 219.627 95.2833 218.727 96.55C217.86 97.8167 216.644 98.8167 215.077 99.55C213.51 100.25 211.66 100.6 209.527 100.6ZM224.56 100V72.7H232.06V100H224.56ZM224.56 70.25V62.75H232.06V70.25H224.56ZM237.548 100V72.7H244.548V78.1L244.148 76.9C244.781 75.2667 245.798 74.0667 247.198 73.3C248.631 72.5 250.298 72.1 252.198 72.1C254.265 72.1 256.065 72.5333 257.598 73.4C259.165 74.2667 260.381 75.4833 261.248 77.05C262.115 78.5833 262.548 80.3833 262.548 82.45V100H255.048V84.05C255.048 82.9833 254.831 82.0667 254.398 81.3C253.998 80.5333 253.415 79.9333 252.648 79.5C251.915 79.0667 251.048 78.85 250.048 78.85C249.081 78.85 248.215 79.0667 247.448 79.5C246.681 79.9333 246.081 80.5333 245.648 81.3C245.248 82.0667 245.048 82.9833 245.048 84.05V100H237.548ZM280.879 111C278.779 111 276.829 110.65 275.029 109.95C273.229 109.25 271.679 108.267 270.379 107C269.113 105.767 268.196 104.3 267.629 102.6L274.579 100.15C274.946 101.417 275.696 102.417 276.829 103.15C277.963 103.883 279.313 104.25 280.879 104.25C282.113 104.25 283.179 104.017 284.079 103.55C284.979 103.117 285.663 102.467 286.129 101.6C286.629 100.733 286.879 99.7167 286.879 98.55V92.3L288.329 94.1C287.396 95.6333 286.196 96.7833 284.729 97.55C283.263 98.2833 281.546 98.65 279.579 98.65C277.046 98.65 274.779 98.0833 272.779 96.95C270.779 95.7833 269.213 94.2 268.079 92.2C266.946 90.1667 266.379 87.8667 266.379 85.3C266.379 82.7333 266.946 80.4667 268.079 78.5C269.213 76.5 270.763 74.9333 272.729 73.8C274.696 72.6667 276.929 72.1 279.429 72.1C281.396 72.1 283.113 72.5 284.579 73.3C286.046 74.0667 287.296 75.25 288.329 76.85L287.379 78.65V72.7H294.379V98.55C294.379 100.95 293.796 103.083 292.629 104.95C291.463 106.85 289.863 108.333 287.829 109.4C285.829 110.467 283.513 111 280.879 111ZM280.629 91.85C281.896 91.85 282.996 91.5833 283.929 91.05C284.863 90.5167 285.579 89.7667 286.079 88.8C286.613 87.8333 286.879 86.7 286.879 85.4C286.879 84.1 286.613 82.9667 286.079 82C285.546 81 284.813 80.2333 283.879 79.7C282.946 79.1333 281.863 78.85 280.629 78.85C279.363 78.85 278.229 79.1333 277.229 79.7C276.263 80.2333 275.496 81 274.929 82C274.396 82.9667 274.129 84.1 274.129 85.4C274.129 86.6667 274.396 87.7833 274.929 88.75C275.496 89.7167 276.263 90.4833 277.229 91.05C278.229 91.5833 279.363 91.85 280.629 91.85ZM319.586 100.6C316.586 100.6 313.969 99.9 311.736 98.5C309.536 97.0667 308.036 95.15 307.236 92.75L312.736 90.15C313.436 91.6167 314.386 92.7667 315.586 93.6C316.786 94.4333 318.119 94.85 319.586 94.85C320.652 94.85 321.469 94.6333 322.036 94.2C322.602 93.7667 322.886 93.1667 322.886 92.4C322.886 92 322.786 91.6667 322.586 91.4C322.386 91.1 322.086 90.8333 321.686 90.6C321.286 90.3667 320.786 90.1667 320.186 90L315.536 88.7C313.302 88.0667 311.586 87.05 310.386 85.65C309.186 84.2167 308.586 82.5333 308.586 80.6C308.586 78.9 309.019 77.4167 309.886 76.15C310.752 74.8833 311.969 73.9 313.536 73.2C315.102 72.4667 316.902 72.1 318.936 72.1C321.602 72.1 323.936 72.7333 325.936 74C327.969 75.2333 329.402 76.9833 330.236 79.25L324.686 81.85C324.286 80.7167 323.552 79.8167 322.486 79.15C321.452 78.45 320.269 78.1 318.936 78.1C317.969 78.1 317.202 78.3 316.636 78.7C316.102 79.1 315.836 79.65 315.836 80.35C315.836 80.7167 315.936 81.05 316.136 81.35C316.336 81.65 316.652 81.9167 317.086 82.15C317.552 82.3833 318.119 82.6 318.786 82.8L323.136 84.1C325.402 84.7667 327.136 85.7833 328.336 87.15C329.536 88.4833 330.136 90.1333 330.136 92.1C330.136 93.8 329.686 95.2833 328.786 96.55C327.919 97.8167 326.702 98.8167 325.136 99.55C323.569 100.25 321.719 100.6 319.586 100.6ZM348.168 100.6C345.468 100.6 343.001 99.9833 340.768 98.75C338.568 97.5167 336.801 95.8333 335.468 93.7C334.168 91.5333 333.518 89.0833 333.518 86.35C333.518 83.5833 334.168 81.1333 335.468 79C336.801 76.8667 338.568 75.1833 340.768 73.95C343.001 72.7167 345.468 72.1 348.168 72.1C350.868 72.1 353.318 72.7167 355.518 73.95C357.718 75.1833 359.468 76.8667 360.768 79C362.101 81.1333 362.768 83.5833 362.768 86.35C362.768 89.0833 362.101 91.5333 360.768 93.7C359.468 95.8333 357.718 97.5167 355.518 98.75C353.318 99.9833 350.868 100.6 348.168 100.6ZM348.168 93.85C349.535 93.85 350.718 93.5333 351.718 92.9C352.751 92.2667 353.551 91.3833 354.118 90.25C354.718 89.1167 355.018 87.8167 355.018 86.35C355.018 84.8833 354.718 83.6 354.118 82.5C353.551 81.3667 352.751 80.4833 351.718 79.85C350.718 79.1833 349.535 78.85 348.168 78.85C346.801 78.85 345.601 79.1833 344.568 79.85C343.535 80.4833 342.718 81.3667 342.118 82.5C341.551 83.6 341.268 84.8833 341.268 86.35C341.268 87.8167 341.551 89.1167 342.118 90.25C342.718 91.3833 343.535 92.2667 344.568 92.9C345.601 93.5333 346.801 93.85 348.168 93.85ZM367.187 100V62.15H374.687V100H367.187ZM389.975 100.6C387.775 100.6 385.891 100.133 384.325 99.2C382.791 98.2333 381.625 96.9 380.825 95.2C380.025 93.5 379.625 91.5167 379.625 89.25V72.7H387.125V88.65C387.125 89.6833 387.325 90.6 387.725 91.4C388.158 92.1667 388.758 92.7667 389.525 93.2C390.291 93.6333 391.158 93.85 392.125 93.85C393.125 93.85 393.991 93.6333 394.725 93.2C395.491 92.7667 396.075 92.1667 396.475 91.4C396.908 90.6 397.125 89.6833 397.125 88.65V72.7H404.625V100H397.625V94.6L398.025 95.8C397.391 97.4333 396.358 98.65 394.925 99.45C393.525 100.217 391.875 100.6 389.975 100.6ZM423.256 100.3C419.956 100.3 417.39 99.4167 415.556 97.65C413.756 95.85 412.856 93.35 412.856 90.15V79.2H408.256V72.7H408.506C409.906 72.7 410.973 72.35 411.706 71.65C412.473 70.95 412.856 69.9 412.856 68.5V66.5H420.356V72.7H426.756V79.2H420.356V89.65C420.356 90.5833 420.523 91.3667 420.856 92C421.19 92.6 421.706 93.05 422.406 93.35C423.106 93.65 423.973 93.8 425.006 93.8C425.24 93.8 425.506 93.7833 425.806 93.75C426.106 93.7167 426.423 93.6833 426.756 93.65V100C426.256 100.067 425.69 100.133 425.056 100.2C424.423 100.267 423.823 100.3 423.256 100.3ZM431.151 100V72.7H438.651V100H431.151ZM431.151 70.25V62.75H438.651V70.25H431.151ZM457.69 100.6C454.99 100.6 452.523 99.9833 450.29 98.75C448.09 97.5167 446.323 95.8333 444.99 93.7C443.69 91.5333 443.04 89.0833 443.04 86.35C443.04 83.5833 443.69 81.1333 444.99 79C446.323 76.8667 448.09 75.1833 450.29 73.95C452.523 72.7167 454.99 72.1 457.69 72.1C460.39 72.1 462.84 72.7167 465.04 73.95C467.24 75.1833 468.99 76.8667 470.29 79C471.623 81.1333 472.29 83.5833 472.29 86.35C472.29 89.0833 471.623 91.5333 470.29 93.7C468.99 95.8333 467.24 97.5167 465.04 98.75C462.84 99.9833 460.39 100.6 457.69 100.6ZM457.69 93.85C459.056 93.85 460.24 93.5333 461.24 92.9C462.273 92.2667 463.073 91.3833 463.64 90.25C464.24 89.1167 464.54 87.8167 464.54 86.35C464.54 84.8833 464.24 83.6 463.64 82.5C463.073 81.3667 462.273 80.4833 461.24 79.85C460.24 79.1833 459.056 78.85 457.69 78.85C456.323 78.85 455.123 79.1833 454.09 79.85C453.056 80.4833 452.24 81.3667 451.64 82.5C451.073 83.6 450.79 84.8833 450.79 86.35C450.79 87.8167 451.073 89.1167 451.64 90.25C452.24 91.3833 453.056 92.2667 454.09 92.9C455.123 93.5333 456.323 93.85 457.69 93.85ZM476.708 100V72.7H483.708V78.1L483.308 76.9C483.941 75.2667 484.958 74.0667 486.358 73.3C487.791 72.5 489.458 72.1 491.358 72.1C493.425 72.1 495.225 72.5333 496.758 73.4C498.325 74.2667 499.541 75.4833 500.408 77.05C501.275 78.5833 501.708 80.3833 501.708 82.45V100H494.208V84.05C494.208 82.9833 493.991 82.0667 493.558 81.3C493.158 80.5333 492.575 79.9333 491.808 79.5C491.075 79.0667 490.208 78.85 489.208 78.85C488.241 78.85 487.375 79.0667 486.608 79.5C485.841 79.9333 485.241 80.5333 484.808 81.3C484.408 82.0667 484.208 82.9833 484.208 84.05V100H476.708ZM517.34 100.6C514.34 100.6 511.723 99.9 509.49 98.5C507.29 97.0667 505.79 95.15 504.99 92.75L510.49 90.15C511.19 91.6167 512.14 92.7667 513.34 93.6C514.54 94.4333 515.873 94.85 517.34 94.85C518.406 94.85 519.223 94.6333 519.79 94.2C520.356 93.7667 520.64 93.1667 520.64 92.4C520.64 92 520.54 91.6667 520.34 91.4C520.14 91.1 519.84 90.8333 519.44 90.6C519.04 90.3667 518.54 90.1667 517.94 90L513.29 88.7C511.056 88.0667 509.34 87.05 508.14 85.65C506.94 84.2167 506.34 82.5333 506.34 80.6C506.34 78.9 506.773 77.4167 507.64 76.15C508.506 74.8833 509.723 73.9 511.29 73.2C512.856 72.4667 514.656 72.1 516.69 72.1C519.356 72.1 521.69 72.7333 523.69 74C525.723 75.2333 527.156 76.9833 527.99 79.25L522.44 81.85C522.04 80.7167 521.306 79.8167 520.24 79.15C519.206 78.45 518.023 78.1 516.69 78.1C515.723 78.1 514.956 78.3 514.39 78.7C513.856 79.1 513.59 79.65 513.59 80.35C513.59 80.7167 513.69 81.05 513.89 81.35C514.09 81.65 514.406 81.9167 514.84 82.15C515.306 82.3833 515.873 82.6 516.54 82.8L520.89 84.1C523.156 84.7667 524.89 85.7833 526.09 87.15C527.29 88.4833 527.89 90.1333 527.89 92.1C527.89 93.8 527.44 95.2833 526.54 96.55C525.673 97.8167 524.456 98.8167 522.89 99.55C521.323 100.25 519.473 100.6 517.34 100.6ZM540.872 88.5V87.35C540.872 85.8833 541.072 84.6 541.472 83.5C541.905 82.3667 542.455 81.3667 543.122 80.5C543.789 79.6333 544.472 78.85 545.172 78.15C546.139 77.1833 547.005 76.3167 547.772 75.55C548.539 74.75 548.922 73.8333 548.922 72.8C548.922 72.1 548.755 71.4833 548.422 70.95C548.089 70.3833 547.589 69.95 546.922 69.65C546.289 69.3167 545.489 69.15 544.522 69.15C543.289 69.15 542.205 69.5333 541.272 70.3C540.372 71.0333 539.822 72.0333 539.622 73.3L532.672 71.55C532.972 69.6833 533.655 68.05 534.722 66.65C535.822 65.25 537.222 64.15 538.922 63.35C540.655 62.55 542.589 62.15 544.722 62.15C547.322 62.15 549.505 62.6667 551.272 63.7C553.072 64.7 554.422 66 555.322 67.6C556.222 69.1667 556.672 70.8333 556.672 72.6C556.672 73.8667 556.422 75 555.922 76C555.455 76.9667 554.855 77.8667 554.122 78.7C553.389 79.5 552.622 80.2833 551.822 81.05C550.789 82.0167 549.872 83.0333 549.072 84.1C548.272 85.1667 547.872 86.4167 547.872 87.85V88.5H540.872ZM540.672 100V92.5H548.172V100H540.672Z" fill="white"/>
<path d="M200.54 38V17.2H195.94V10.7H200.54V10.3C200.54 8.13333 200.957 6.3 201.79 4.8C202.657 3.3 203.89 2.15 205.49 1.35C207.09 0.549998 209.024 0.149999 211.29 0.149999C211.724 0.149999 212.19 0.183331 212.69 0.249997C213.19 0.283332 213.607 0.333332 213.94 0.399998V6.8C213.607 6.73333 213.307 6.7 213.04 6.7C212.807 6.66666 212.557 6.65 212.29 6.65C210.89 6.65 209.824 6.96666 209.09 7.6C208.39 8.2 208.04 9.1 208.04 10.3V10.7H218.89V17.2H208.04V38H200.54ZM216.69 38V10.7H224.19V38H216.69ZM229.125 38V10.7H236.125V16.1L235.725 14.9C236.358 13.2667 237.375 12.0667 238.775 11.3C240.208 10.5 241.875 10.1 243.775 10.1C245.842 10.1 247.642 10.5333 249.175 11.4C250.742 12.2667 251.958 13.4833 252.825 15.05C253.692 16.5833 254.125 18.3833 254.125 20.45V38H246.625V22.05C246.625 20.9833 246.408 20.0667 245.975 19.3C245.575 18.5333 244.992 17.9333 244.225 17.5C243.492 17.0667 242.625 16.85 241.625 16.85C240.658 16.85 239.792 17.0667 239.025 17.5C238.258 17.9333 237.658 18.5333 237.225 19.3C236.825 20.0667 236.625 20.9833 236.625 22.05V38H229.125ZM271.907 38.6C269.24 38.6 266.857 37.9667 264.757 36.7C262.657 35.4333 260.99 33.7167 259.757 31.55C258.557 29.3833 257.957 26.9833 257.957 24.35C257.957 21.6833 258.573 19.2833 259.807 17.15C261.04 14.9833 262.707 13.2667 264.807 12C266.907 10.7333 269.257 10.1 271.857 10.1C273.857 10.1 275.623 10.4833 277.157 11.25C278.723 11.9833 279.957 13.0333 280.857 14.4L279.707 15.9V0.149999H287.207V38H280.207V33L280.907 34.55C279.973 35.8833 278.707 36.9 277.107 37.6C275.507 38.2667 273.773 38.6 271.907 38.6ZM272.807 31.85C274.173 31.85 275.373 31.5333 276.407 30.9C277.44 30.2667 278.24 29.3833 278.807 28.25C279.407 27.1167 279.707 25.8167 279.707 24.35C279.707 22.8833 279.407 21.5833 278.807 20.45C278.24 19.3167 277.44 18.4333 276.407 17.8C275.373 17.1667 274.173 16.85 272.807 16.85C271.44 16.85 270.207 17.1833 269.107 17.85C268.04 18.4833 267.207 19.3667 266.607 20.5C266.007 21.6 265.707 22.8833 265.707 24.35C265.707 25.8167 266.007 27.1167 266.607 28.25C267.207 29.3833 268.04 30.2667 269.107 30.9C270.207 31.5333 271.44 31.85 272.807 31.85ZM292.699 38V10.7H300.199V38H292.699ZM292.699 8.25V0.749997H300.199V8.25H292.699ZM305.688 38V10.7H312.688V16.1L312.288 14.9C312.921 13.2667 313.938 12.0667 315.338 11.3C316.771 10.5 318.438 10.1 320.338 10.1C322.404 10.1 324.204 10.5333 325.738 11.4C327.304 12.2667 328.521 13.4833 329.388 15.05C330.254 16.5833 330.688 18.3833 330.688 20.45V38H323.188V22.05C323.188 20.9833 322.971 20.0667 322.538 19.3C322.138 18.5333 321.554 17.9333 320.788 17.5C320.054 17.0667 319.188 16.85 318.188 16.85C317.221 16.85 316.354 17.0667 315.588 17.5C314.821 17.9333 314.221 18.5333 313.788 19.3C313.388 20.0667 313.188 20.9833 313.188 22.05V38H305.688ZM349.019 49C346.919 49 344.969 48.65 343.169 47.95C341.369 47.25 339.819 46.2667 338.519 45C337.252 43.7667 336.336 42.3 335.769 40.6L342.719 38.15C343.086 39.4167 343.836 40.4167 344.969 41.15C346.102 41.8833 347.452 42.25 349.019 42.25C350.252 42.25 351.319 42.0167 352.219 41.55C353.119 41.1167 353.802 40.4667 354.269 39.6C354.769 38.7333 355.019 37.7167 355.019 36.55V30.3L356.469 32.1C355.536 33.6333 354.336 34.7833 352.869 35.55C351.402 36.2833 349.686 36.65 347.719 36.65C345.186 36.65 342.919 36.0833 340.919 34.95C338.919 33.7833 337.352 32.2 336.219 30.2C335.086 28.1667 334.519 25.8667 334.519 23.3C334.519 20.7333 335.086 18.4667 336.219 16.5C337.352 14.5 338.902 12.9333 340.869 11.8C342.836 10.6667 345.069 10.1 347.569 10.1C349.536 10.1 351.252 10.5 352.719 11.3C354.186 12.0667 355.436 13.25 356.469 14.85L355.519 16.65V10.7H362.519V36.55C362.519 38.95 361.936 41.0833 360.769 42.95C359.602 44.85 358.002 46.3333 355.969 47.4C353.969 48.4667 351.652 49 349.019 49ZM348.769 29.85C350.036 29.85 351.136 29.5833 352.069 29.05C353.002 28.5167 353.719 27.7667 354.219 26.8C354.752 25.8333 355.019 24.7 355.019 23.4C355.019 22.1 354.752 20.9667 354.219 20C353.686 19 352.952 18.2333 352.019 17.7C351.086 17.1333 350.002 16.85 348.769 16.85C347.502 16.85 346.369 17.1333 345.369 17.7C344.402 18.2333 343.636 19 343.069 20C342.536 20.9667 342.269 22.1 342.269 23.4C342.269 24.6667 342.536 25.7833 343.069 26.75C343.636 27.7167 344.402 28.4833 345.369 29.05C346.369 29.5833 347.502 29.85 348.769 29.85ZM377.025 48V10.7H384.025V15.9L383.375 14.4C384.275 13.0333 385.492 11.9833 387.025 11.25C388.592 10.4833 390.375 10.1 392.375 10.1C394.975 10.1 397.325 10.7333 399.425 12C401.525 13.2667 403.192 14.9833 404.425 17.15C405.659 19.2833 406.275 21.6833 406.275 24.35C406.275 26.9833 405.659 29.3833 404.425 31.55C403.225 33.7167 401.575 35.4333 399.475 36.7C397.375 37.9667 394.992 38.6 392.325 38.6C390.459 38.6 388.725 38.2667 387.125 37.6C385.559 36.9 384.292 35.8833 383.325 34.55L384.525 33V48H377.025ZM391.425 31.85C392.825 31.85 394.059 31.5333 395.125 30.9C396.192 30.2667 397.025 29.3833 397.625 28.25C398.225 27.1167 398.525 25.8167 398.525 24.35C398.525 22.8833 398.225 21.6 397.625 20.5C397.025 19.3667 396.192 18.4833 395.125 17.85C394.059 17.1833 392.825 16.85 391.425 16.85C390.092 16.85 388.892 17.1667 387.825 17.8C386.792 18.4333 385.975 19.3167 385.375 20.45C384.809 21.5833 384.525 22.8833 384.525 24.35C384.525 25.8167 384.809 27.1167 385.375 28.25C385.975 29.3833 386.792 30.2667 387.825 30.9C388.892 31.5333 390.092 31.85 391.425 31.85ZM410.668 38V10.7H417.668V17.25L417.168 16.3C417.768 14 418.751 12.45 420.118 11.65C421.518 10.8167 423.168 10.4 425.068 10.4H426.668V16.9H424.318C422.485 16.9 421.001 17.4667 419.868 18.6C418.735 19.7 418.168 21.2667 418.168 23.3V38H410.668ZM443.505 38.6C440.805 38.6 438.338 37.9833 436.105 36.75C433.905 35.5167 432.138 33.8333 430.805 31.7C429.505 29.5333 428.855 27.0833 428.855 24.35C428.855 21.5833 429.505 19.1333 430.805 17C432.138 14.8667 433.905 13.1833 436.105 11.95C438.338 10.7167 440.805 10.1 443.505 10.1C446.205 10.1 448.655 10.7167 450.855 11.95C453.055 13.1833 454.805 14.8667 456.105 17C457.438 19.1333 458.105 21.5833 458.105 24.35C458.105 27.0833 457.438 29.5333 456.105 31.7C454.805 33.8333 453.055 35.5167 450.855 36.75C448.655 37.9833 446.205 38.6 443.505 38.6ZM443.505 31.85C444.872 31.85 446.055 31.5333 447.055 30.9C448.088 30.2667 448.888 29.3833 449.455 28.25C450.055 27.1167 450.355 25.8167 450.355 24.35C450.355 22.8833 450.055 21.6 449.455 20.5C448.888 19.3667 448.088 18.4833 447.055 17.85C446.055 17.1833 444.872 16.85 443.505 16.85C442.138 16.85 440.938 17.1833 439.905 17.85C438.872 18.4833 438.055 19.3667 437.455 20.5C436.888 21.6 436.605 22.8833 436.605 24.35C436.605 25.8167 436.888 27.1167 437.455 28.25C438.055 29.3833 438.872 30.2667 439.905 30.9C440.938 31.5333 442.138 31.85 443.505 31.85ZM477.823 38.6C475.957 38.6 474.223 38.2667 472.623 37.6C471.057 36.9 469.79 35.8833 468.823 34.55L469.523 33V38H462.523V0.149999H470.023V15.9L468.873 14.4C469.773 13.0333 470.99 11.9833 472.523 11.25C474.09 10.4833 475.873 10.1 477.873 10.1C480.473 10.1 482.823 10.7333 484.923 12C487.023 13.2667 488.69 14.9833 489.923 17.15C491.157 19.2833 491.773 21.6833 491.773 24.35C491.773 26.9833 491.157 29.3833 489.923 31.55C488.723 33.7167 487.073 35.4333 484.973 36.7C482.873 37.9667 480.49 38.6 477.823 38.6ZM476.923 31.85C478.323 31.85 479.557 31.5333 480.623 30.9C481.69 30.2667 482.523 29.3833 483.123 28.25C483.723 27.1167 484.023 25.8167 484.023 24.35C484.023 22.8833 483.723 21.6 483.123 20.5C482.523 19.3667 481.69 18.4833 480.623 17.85C479.557 17.1833 478.323 16.85 476.923 16.85C475.59 16.85 474.39 17.1667 473.323 17.8C472.29 18.4333 471.473 19.3167 470.873 20.45C470.307 21.5833 470.023 22.8833 470.023 24.35C470.023 25.8167 470.307 27.1167 470.873 28.25C471.473 29.3833 472.29 30.2667 473.323 30.9C474.39 31.5333 475.59 31.85 476.923 31.85ZM496.166 38V0.149999H503.666V38H496.166ZM522.304 38.6C519.404 38.6 516.888 37.9667 514.754 36.7C512.621 35.4 510.971 33.6667 509.804 31.5C508.638 29.3333 508.054 26.9333 508.054 24.3C508.054 21.5667 508.654 19.1333 509.854 17C511.088 14.8667 512.738 13.1833 514.804 11.95C516.871 10.7167 519.204 10.1 521.804 10.1C523.971 10.1 525.888 10.45 527.554 11.15C529.221 11.8167 530.621 12.7667 531.754 14C532.921 15.2333 533.804 16.6667 534.404 18.3C535.004 19.9 535.304 21.65 535.304 23.55C535.304 24.0833 535.271 24.6167 535.204 25.15C535.171 25.65 535.088 26.0833 534.954 26.45H514.504V20.95H530.704L527.154 23.55C527.488 22.1167 527.471 20.85 527.104 19.75C526.738 18.6167 526.088 17.7333 525.154 17.1C524.254 16.4333 523.138 16.1 521.804 16.1C520.504 16.1 519.388 16.4167 518.454 17.05C517.521 17.6833 516.821 18.6167 516.354 19.85C515.888 21.0833 515.704 22.5833 515.804 24.35C515.671 25.8833 515.854 27.2333 516.354 28.4C516.854 29.5667 517.621 30.4833 518.654 31.15C519.688 31.7833 520.938 32.1 522.404 32.1C523.738 32.1 524.871 31.8333 525.804 31.3C526.771 30.7667 527.521 30.0333 528.054 29.1L534.054 31.95C533.521 33.2833 532.671 34.45 531.504 35.45C530.371 36.45 529.021 37.2333 527.454 37.8C525.888 38.3333 524.171 38.6 522.304 38.6ZM539.721 38V10.7H546.721V17.35L545.971 16.25C546.371 14.15 547.337 12.6 548.871 11.6C550.404 10.6 552.237 10.1 554.371 10.1C556.637 10.1 558.621 10.6833 560.321 11.85C562.054 12.9833 563.137 14.5167 563.571 16.45L561.421 16.65C562.321 14.4167 563.604 12.7667 565.271 11.7C566.937 10.6333 568.887 10.1 571.121 10.1C573.087 10.1 574.821 10.5333 576.321 11.4C577.854 12.2667 579.054 13.4833 579.921 15.05C580.787 16.5833 581.221 18.3833 581.221 20.45V38H573.721V22.05C573.721 20.9833 573.521 20.0667 573.121 19.3C572.754 18.5333 572.221 17.9333 571.521 17.5C570.821 17.0667 569.971 16.85 568.971 16.85C568.004 16.85 567.154 17.0667 566.421 17.5C565.721 17.9333 565.171 18.5333 564.771 19.3C564.404 20.0667 564.221 20.9833 564.221 22.05V38H556.721V22.05C556.721 20.9833 556.521 20.0667 556.121 19.3C555.754 18.5333 555.221 17.9333 554.521 17.5C553.821 17.0667 552.971 16.85 551.971 16.85C551.004 16.85 550.154 17.0667 549.421 17.5C548.721 17.9333 548.171 18.5333 547.771 19.3C547.404 20.0667 547.221 20.9833 547.221 22.05V38H539.721ZM596.856 38.6C593.856 38.6 591.24 37.9 589.006 36.5C586.806 35.0667 585.306 33.15 584.506 30.75L590.006 28.15C590.706 29.6167 591.656 30.7667 592.856 31.6C594.056 32.4333 595.39 32.85 596.856 32.85C597.923 32.85 598.74 32.6333 599.306 32.2C599.873 31.7667 600.156 31.1667 600.156 30.4C600.156 30 600.056 29.6667 599.856 29.4C599.656 29.1 599.356 28.8333 598.956 28.6C598.556 28.3667 598.056 28.1667 597.456 28L592.806 26.7C590.573 26.0667 588.856 25.05 587.656 23.65C586.456 22.2167 585.856 20.5333 585.856 18.6C585.856 16.9 586.29 15.4167 587.156 14.15C588.023 12.8833 589.24 11.9 590.806 11.2C592.373 10.4667 594.173 10.1 596.206 10.1C598.873 10.1 601.206 10.7333 603.206 12C605.24 13.2333 606.673 14.9833 607.506 17.25L601.956 19.85C601.556 18.7167 600.823 17.8167 599.756 17.15C598.723 16.45 597.54 16.1 596.206 16.1C595.24 16.1 594.473 16.3 593.906 16.7C593.373 17.1 593.106 17.65 593.106 18.35C593.106 18.7167 593.206 19.05 593.406 19.35C593.606 19.65 593.923 19.9167 594.356 20.15C594.823 20.3833 595.39 20.6 596.056 20.8L600.406 22.1C602.673 22.7667 604.406 23.7833 605.606 25.15C606.806 26.4833 607.406 28.1333 607.406 30.1C607.406 31.8 606.956 33.2833 606.056 34.55C605.19 35.8167 603.973 36.8167 602.406 37.55C600.84 38.25 598.99 38.6 596.856 38.6Z" fill="#82C4D9"/>
</svg>
