<svg width="895" height="193" viewBox="0 0 895 193" fill="none" xmlns="http://www.w3.org/2000/svg">
<g filter="url(#filter0_f_1244_205)">
<rect x="50.9958" y="50.0359" width="793.149" height="91.9798" rx="45.9899" fill="url(#paint0_linear_1244_205)"/>
</g>
<g filter="url(#filter1_di_1244_205)">
<rect x="51" y="50.0156" width="793" height="92" rx="46" fill="white"/>
</g>
<path d="M154.64 108.016V85.6656H157.04V95.7156H169.04V85.6656H171.44V108.016H169.04V97.9656H157.04V108.016H154.64ZM183.93 108.376C182.41 108.376 181.03 108.016 179.79 107.296C178.55 106.556 177.56 105.556 176.82 104.296C176.1 103.016 175.74 101.566 175.74 99.9456C175.74 98.3456 176.1 96.9156 176.82 95.6556C177.54 94.3956 178.51 93.4056 179.73 92.6856C180.97 91.9456 182.37 91.5756 183.93 91.5756C185.49 91.5756 186.88 91.9356 188.1 92.6556C189.34 93.3756 190.31 94.3656 191.01 95.6256C191.73 96.8856 192.09 98.3256 192.09 99.9456C192.09 101.586 191.72 103.046 190.98 104.326C190.24 105.586 189.25 106.576 188.01 107.296C186.79 108.016 185.43 108.376 183.93 108.376ZM183.93 106.126C185.01 106.126 185.98 105.856 186.84 105.316C187.72 104.776 188.41 104.036 188.91 103.096C189.43 102.156 189.69 101.106 189.69 99.9456C189.69 98.7856 189.43 97.7456 188.91 96.8256C188.41 95.9056 187.72 95.1756 186.84 94.6356C185.98 94.0956 185.01 93.8256 183.93 93.8256C182.85 93.8256 181.87 94.0956 180.99 94.6356C180.13 95.1756 179.44 95.9056 178.92 96.8256C178.4 97.7456 178.14 98.7856 178.14 99.9456C178.14 101.106 178.4 102.156 178.92 103.096C179.44 104.036 180.13 104.776 180.99 105.316C181.87 105.856 182.85 106.126 183.93 106.126ZM199.305 108.016L193.785 91.9356H196.335L200.895 106.006H199.995L204.285 91.9356H206.535L210.825 106.006H209.925L214.515 91.9356H217.035L211.515 108.016H209.265L205.095 94.2456H205.725L201.555 108.016H199.305ZM232.119 108.376C230.539 108.376 229.149 108.006 227.949 107.266C226.749 106.526 225.809 105.526 225.129 104.266C224.449 102.986 224.109 101.546 224.109 99.9456C224.109 98.3456 224.449 96.9156 225.129 95.6556C225.809 94.3956 226.749 93.4056 227.949 92.6856C229.149 91.9456 230.539 91.5756 232.119 91.5756C233.119 91.5756 234.059 91.7556 234.939 92.1156C235.819 92.4756 236.599 92.9656 237.279 93.5856C237.959 94.1856 238.469 94.8856 238.809 95.6856L236.769 96.7356C236.369 95.8756 235.759 95.1756 234.939 94.6356C234.119 94.0956 233.179 93.8256 232.119 93.8256C231.059 93.8256 230.099 94.0956 229.239 94.6356C228.399 95.1556 227.729 95.8856 227.229 96.8256C226.749 97.7456 226.509 98.7956 226.509 99.9756C226.509 101.136 226.749 102.186 227.229 103.126C227.729 104.046 228.399 104.776 229.239 105.316C230.099 105.856 231.059 106.126 232.119 106.126C233.179 106.126 234.109 105.856 234.909 105.316C235.729 104.776 236.349 104.056 236.769 103.156L238.809 104.266C238.469 105.046 237.959 105.746 237.279 106.366C236.599 106.986 235.819 107.476 234.939 107.836C234.059 108.196 233.119 108.376 232.119 108.376ZM247.114 108.376C246.094 108.376 245.184 108.186 244.384 107.806C243.584 107.406 242.954 106.866 242.494 106.186C242.034 105.506 241.804 104.726 241.804 103.846C241.804 103.006 241.984 102.246 242.344 101.566C242.704 100.866 243.264 100.276 244.024 99.7956C244.784 99.3156 245.754 98.9756 246.934 98.7756L253.234 97.7256V99.7656L247.474 100.726C246.314 100.926 245.474 101.296 244.954 101.836C244.454 102.376 244.204 103.016 244.204 103.756C244.204 104.476 244.484 105.086 245.044 105.586C245.624 106.086 246.364 106.336 247.264 106.336C248.364 106.336 249.324 106.106 250.144 105.646C250.964 105.166 251.604 104.526 252.064 103.726C252.524 102.926 252.754 102.036 252.754 101.056V96.9756C252.754 96.0156 252.404 95.2356 251.704 94.6356C251.004 94.0356 250.094 93.7356 248.974 93.7356C247.994 93.7356 247.134 93.9856 246.394 94.4856C245.654 94.9656 245.104 95.5956 244.744 96.3756L242.704 95.2656C243.004 94.5856 243.474 93.9656 244.114 93.4056C244.774 92.8456 245.524 92.4056 246.364 92.0856C247.204 91.7456 248.074 91.5756 248.974 91.5756C250.154 91.5756 251.194 91.8056 252.094 92.2656C253.014 92.7256 253.724 93.3656 254.224 94.1856C254.744 94.9856 255.004 95.9156 255.004 96.9756V108.016H252.754V104.806L253.084 105.136C252.804 105.736 252.364 106.286 251.764 106.786C251.184 107.266 250.494 107.656 249.694 107.956C248.914 108.236 248.054 108.376 247.114 108.376ZM259.632 108.016V91.9356H261.882V95.0556L261.372 94.9356C261.772 93.8956 262.422 93.0756 263.322 92.4756C264.242 91.8756 265.302 91.5756 266.502 91.5756C267.642 91.5756 268.662 91.8356 269.562 92.3556C270.482 92.8756 271.202 93.5956 271.722 94.5156C272.262 95.4156 272.532 96.4356 272.532 97.5756V108.016H270.282V98.4456C270.282 97.4656 270.102 96.6356 269.742 95.9556C269.402 95.2756 268.912 94.7556 268.272 94.3956C267.652 94.0156 266.932 93.8256 266.112 93.8256C265.292 93.8256 264.562 94.0156 263.922 94.3956C263.282 94.7556 262.782 95.2856 262.422 95.9856C262.062 96.6656 261.882 97.4856 261.882 98.4456V108.016H259.632ZM292.457 108.376C290.877 108.376 289.427 108.096 288.107 107.536C286.787 106.956 285.637 106.156 284.657 105.136C283.697 104.096 282.947 102.876 282.407 101.476C281.867 100.076 281.597 98.5356 281.597 96.8556C281.597 95.1756 281.867 93.6356 282.407 92.2356C282.947 90.8356 283.697 89.6156 284.657 88.5756C285.637 87.5356 286.787 86.7356 288.107 86.1756C289.427 85.5956 290.877 85.3056 292.457 85.3056C293.977 85.3056 295.337 85.5756 296.537 86.1156C297.757 86.6556 298.777 87.3556 299.597 88.2156C300.437 89.0556 301.037 89.9456 301.397 90.8856L299.147 91.8756C298.587 90.5756 297.727 89.5356 296.567 88.7556C295.427 87.9556 294.057 87.5556 292.457 87.5556C290.817 87.5556 289.357 87.9456 288.077 88.7256C286.797 89.5056 285.797 90.5956 285.077 91.9956C284.357 93.3756 283.997 94.9956 283.997 96.8556C283.997 98.6956 284.357 100.316 285.077 101.716C285.797 103.116 286.797 104.206 288.077 104.986C289.357 105.746 290.817 106.126 292.457 106.126C294.057 106.126 295.427 105.736 296.567 104.956C297.727 104.176 298.587 103.136 299.147 101.836L301.397 102.826C301.037 103.746 300.437 104.636 299.597 105.496C298.777 106.336 297.757 107.026 296.537 107.566C295.337 108.106 293.977 108.376 292.457 108.376ZM305.365 108.016V91.9356H307.615V94.5756L307.315 94.1856C307.695 93.4256 308.265 92.8256 309.025 92.3856C309.805 91.9456 310.745 91.7256 311.845 91.7256H312.865V93.9756H311.455C310.295 93.9756 309.365 94.3356 308.665 95.0556C307.965 95.7756 307.615 96.7956 307.615 98.1156V108.016H305.365ZM320.151 108.376C319.131 108.376 318.221 108.186 317.421 107.806C316.621 107.406 315.991 106.866 315.531 106.186C315.071 105.506 314.841 104.726 314.841 103.846C314.841 103.006 315.021 102.246 315.381 101.566C315.741 100.866 316.301 100.276 317.061 99.7956C317.821 99.3156 318.791 98.9756 319.971 98.7756L326.271 97.7256V99.7656L320.511 100.726C319.351 100.926 318.511 101.296 317.991 101.836C317.491 102.376 317.241 103.016 317.241 103.756C317.241 104.476 317.521 105.086 318.081 105.586C318.661 106.086 319.401 106.336 320.301 106.336C321.401 106.336 322.361 106.106 323.181 105.646C324.001 105.166 324.641 104.526 325.101 103.726C325.561 102.926 325.791 102.036 325.791 101.056V96.9756C325.791 96.0156 325.441 95.2356 324.741 94.6356C324.041 94.0356 323.131 93.7356 322.011 93.7356C321.031 93.7356 320.171 93.9856 319.431 94.4856C318.691 94.9656 318.141 95.5956 317.781 96.3756L315.741 95.2656C316.041 94.5856 316.511 93.9656 317.151 93.4056C317.811 92.8456 318.561 92.4056 319.401 92.0856C320.241 91.7456 321.111 91.5756 322.011 91.5756C323.191 91.5756 324.231 91.8056 325.131 92.2656C326.051 92.7256 326.761 93.3656 327.261 94.1856C327.781 94.9856 328.041 95.9156 328.041 96.9756V108.016H325.791V104.806L326.121 105.136C325.841 105.736 325.401 106.286 324.801 106.786C324.221 107.266 323.531 107.656 322.731 107.956C321.951 108.236 321.091 108.376 320.151 108.376ZM332.669 108.016V91.9356H334.919V108.016H332.669ZM332.669 88.9656V85.6656H334.919V88.9656H332.669ZM347.145 114.616C346.045 114.616 345.025 114.446 344.085 114.106C343.165 113.766 342.365 113.296 341.685 112.696C341.025 112.116 340.515 111.436 340.155 110.656L342.225 109.546C342.545 110.306 343.115 110.966 343.935 111.526C344.755 112.086 345.805 112.366 347.085 112.366C348.065 112.366 348.965 112.176 349.785 111.796C350.605 111.416 351.265 110.856 351.765 110.116C352.265 109.376 352.515 108.466 352.515 107.386V103.816L352.875 104.146C352.315 105.306 351.485 106.206 350.385 106.846C349.285 107.466 348.085 107.776 346.785 107.776C345.285 107.776 343.935 107.416 342.735 106.696C341.535 105.976 340.585 105.006 339.885 103.786C339.205 102.546 338.865 101.176 338.865 99.6756C338.865 98.1556 339.205 96.7856 339.885 95.5656C340.585 94.3456 341.525 93.3756 342.705 92.6556C343.905 91.9356 345.265 91.5756 346.785 91.5756C348.085 91.5756 349.265 91.8756 350.325 92.4756C351.405 93.0756 352.255 93.8856 352.875 94.9056L352.515 95.5356V91.9356H354.765V107.386C354.765 108.766 354.435 109.996 353.775 111.076C353.135 112.176 352.235 113.036 351.075 113.656C349.935 114.296 348.625 114.616 347.145 114.616ZM346.905 105.526C347.945 105.526 348.885 105.266 349.725 104.746C350.565 104.206 351.235 103.496 351.735 102.616C352.255 101.716 352.515 100.736 352.515 99.6756C352.515 98.6156 352.255 97.6456 351.735 96.7656C351.235 95.8656 350.565 95.1556 349.725 94.6356C348.885 94.0956 347.945 93.8256 346.905 93.8256C345.845 93.8256 344.885 94.0956 344.025 94.6356C343.165 95.1556 342.485 95.8556 341.985 96.7356C341.505 97.6156 341.265 98.5956 341.265 99.6756C341.265 100.736 341.505 101.716 341.985 102.616C342.485 103.496 343.155 104.206 343.995 104.746C344.855 105.266 345.825 105.526 346.905 105.526ZM364.486 108.016V85.3056H366.736V95.0556L366.226 94.9356C366.626 93.8956 367.276 93.0756 368.176 92.4756C369.096 91.8756 370.156 91.5756 371.356 91.5756C372.496 91.5756 373.516 91.8356 374.416 92.3556C375.336 92.8756 376.056 93.5956 376.576 94.5156C377.116 95.4156 377.386 96.4356 377.386 97.5756V108.016H375.136V98.4456C375.136 97.4656 374.956 96.6356 374.596 95.9556C374.236 95.2756 373.736 94.7556 373.096 94.3956C372.476 94.0156 371.766 93.8256 370.966 93.8256C370.166 93.8256 369.446 94.0156 368.806 94.3956C368.166 94.7556 367.656 95.2856 367.276 95.9856C366.916 96.6656 366.736 97.4856 366.736 98.4456V108.016H364.486ZM389.003 108.376C387.503 108.376 386.143 108.016 384.923 107.296C383.723 106.556 382.773 105.546 382.073 104.266C381.373 102.986 381.023 101.536 381.023 99.9156C381.023 98.2956 381.363 96.8656 382.043 95.6256C382.723 94.3656 383.643 93.3756 384.803 92.6556C385.983 91.9356 387.303 91.5756 388.763 91.5756C389.923 91.5756 390.953 91.7956 391.853 92.2356C392.773 92.6556 393.553 93.2356 394.193 93.9756C394.833 94.6956 395.323 95.5156 395.663 96.4356C396.003 97.3356 396.173 98.2656 396.173 99.2256C396.173 99.4256 396.163 99.6556 396.143 99.9156C396.123 100.156 396.093 100.406 396.053 100.666H382.463V98.5656H394.763L393.683 99.4656C393.863 98.3656 393.733 97.3856 393.293 96.5256C392.873 95.6456 392.263 94.9556 391.463 94.4556C390.663 93.9356 389.763 93.6756 388.763 93.6756C387.763 93.6756 386.833 93.9356 385.973 94.4556C385.133 94.9756 384.473 95.7056 383.993 96.6456C383.513 97.5656 383.323 98.6656 383.423 99.9456C383.323 101.226 383.523 102.346 384.023 103.306C384.543 104.246 385.243 104.976 386.123 105.496C387.023 106.016 387.983 106.276 389.003 106.276C390.183 106.276 391.173 105.996 391.973 105.436C392.773 104.876 393.423 104.176 393.923 103.336L395.843 104.356C395.523 105.076 395.033 105.746 394.373 106.366C393.713 106.966 392.923 107.456 392.003 107.836C391.103 108.196 390.103 108.376 389.003 108.376ZM400.14 108.016V85.3056H402.39V108.016H400.14ZM406.996 114.016V91.9356H409.246V95.5356L408.886 94.9056C409.526 93.8856 410.376 93.0756 411.436 92.4756C412.516 91.8756 413.746 91.5756 415.126 91.5756C416.646 91.5756 417.996 91.9456 419.176 92.6856C420.376 93.4056 421.316 94.3956 421.996 95.6556C422.696 96.9156 423.046 98.3556 423.046 99.9756C423.046 101.576 422.696 103.016 421.996 104.296C421.316 105.556 420.376 106.556 419.176 107.296C417.996 108.016 416.646 108.376 415.126 108.376C413.746 108.376 412.496 108.066 411.376 107.446C410.276 106.806 409.446 105.906 408.886 104.746L409.246 104.416V114.016H406.996ZM415.006 106.126C416.086 106.126 417.046 105.856 417.886 105.316C418.746 104.776 419.416 104.046 419.896 103.126C420.396 102.186 420.646 101.136 420.646 99.9756C420.646 98.7956 420.396 97.7456 419.896 96.8256C419.416 95.9056 418.746 95.1756 417.886 94.6356C417.046 94.0956 416.086 93.8256 415.006 93.8256C413.926 93.8256 412.946 94.0956 412.066 94.6356C411.206 95.1756 410.516 95.9156 409.996 96.8556C409.496 97.7756 409.246 98.8156 409.246 99.9756C409.246 101.136 409.496 102.186 409.996 103.126C410.516 104.046 411.206 104.776 412.066 105.316C412.946 105.856 413.926 106.126 415.006 106.126ZM429.705 101.596V101.296C429.705 100.396 429.865 99.6056 430.185 98.9256C430.525 98.2256 430.945 97.5956 431.445 97.0356C431.945 96.4556 432.465 95.9156 433.005 95.4156C433.765 94.6956 434.445 93.9756 435.045 93.2556C435.645 92.5156 435.945 91.6556 435.945 90.6756C435.945 90.1156 435.805 89.5856 435.525 89.0856C435.245 88.5856 434.825 88.1856 434.265 87.8856C433.725 87.5656 433.065 87.4056 432.285 87.4056C431.165 87.4056 430.205 87.7556 429.405 88.4556C428.605 89.1556 428.095 90.0856 427.875 91.2456L425.745 90.7956C425.925 89.6956 426.315 88.7356 426.915 87.9156C427.515 87.0956 428.275 86.4556 429.195 85.9956C430.115 85.5356 431.145 85.3056 432.285 85.3056C433.485 85.3056 434.535 85.5556 435.435 86.0556C436.355 86.5556 437.065 87.2156 437.565 88.0356C438.085 88.8356 438.345 89.7156 438.345 90.6756C438.345 91.5756 438.155 92.3756 437.775 93.0756C437.395 93.7756 436.915 94.4256 436.335 95.0256C435.755 95.6056 435.175 96.1856 434.595 96.7656C433.935 97.4256 433.355 98.1156 432.855 98.8356C432.355 99.5356 432.105 100.356 432.105 101.296V101.596H429.705ZM429.795 108.016V104.716H432.195V108.016H429.795Z" fill="#1F2A40"/>
<path d="M123.47 109.734L115.875 102.14C115.532 101.797 115.067 101.607 114.58 101.607H113.338C115.441 98.9183 116.69 95.5366 116.69 91.8578C116.69 83.1065 109.598 76.0156 100.845 76.0156C92.0921 76.0156 85 83.1065 85 91.8578C85 100.609 92.0921 107.7 100.845 107.7C104.524 107.7 107.907 106.451 110.596 104.349V105.59C110.596 106.078 110.786 106.542 111.129 106.885L118.724 114.479C119.44 115.195 120.598 115.195 121.306 114.479L123.462 112.323C124.178 111.607 124.178 110.45 123.47 109.734ZM100.845 101.607C95.4592 101.607 91.0942 97.2503 91.0942 91.8578C91.0942 86.473 95.4515 82.1088 100.845 82.1088C106.231 82.1088 110.596 86.4654 110.596 91.8578C110.596 97.2427 106.238 101.607 100.845 101.607Z" fill="#82C4D9"/>
<path d="M776.5 102.828C780.567 102.828 783.864 99.5543 783.864 95.5156V83.3281C783.864 79.2895 780.567 76.0156 776.5 76.0156C772.433 76.0156 769.136 79.2895 769.136 83.3281V95.5156C769.136 99.5543 772.433 102.828 776.5 102.828ZM788.773 90.6406H787.545C786.867 90.6406 786.318 91.186 786.318 91.8594V95.5156C786.318 101.213 781.372 105.785 775.519 105.218C770.418 104.724 766.682 100.17 766.682 95.0814V91.8594C766.682 91.186 766.133 90.6406 765.455 90.6406H764.227C763.549 90.6406 763 91.186 763 91.8594V94.9184C763 101.746 767.907 107.833 774.659 108.758V111.359H770.364C769.686 111.359 769.136 111.905 769.136 112.578V113.797C769.136 114.47 769.686 115.016 770.364 115.016H782.636C783.314 115.016 783.864 114.47 783.864 113.797V112.578C783.864 111.905 783.314 111.359 782.636 111.359H778.341V108.787C784.915 107.891 790 102.287 790 95.5156V91.8594C790 91.186 789.451 90.6406 788.773 90.6406Z" fill="#FF675E"/>
<defs>
<filter id="filter0_f_1244_205" x="0.997925" y="0.00219727" width="893.149" height="192.011" filterUnits="userSpaceOnUse" color-interpolation-filters="sRGB">
<feFlood flood-opacity="0" result="BackgroundImageFix"/>
<feBlend mode="normal" in="SourceGraphic" in2="BackgroundImageFix" result="shape"/>
<feGaussianBlur stdDeviation="25" result="effect1_foregroundBlur_1244_205"/>
</filter>
<filter id="filter1_di_1244_205" x="21" y="30.0156" width="853" height="152" filterUnits="userSpaceOnUse" color-interpolation-filters="sRGB">
<feFlood flood-opacity="0" result="BackgroundImageFix"/>
<feColorMatrix in="SourceAlpha" type="matrix" values="0 0 0 0 0 0 0 0 0 0 0 0 0 0 0 0 0 0 127 0" result="hardAlpha"/>
<feOffset dy="10"/>
<feGaussianBlur stdDeviation="15"/>
<feComposite in2="hardAlpha" operator="out"/>
<feColorMatrix type="matrix" values="0 0 0 0 0 0 0 0 0 0 0 0 0 0 0 0 0 0 0.1 0"/>
<feBlend mode="normal" in2="BackgroundImageFix" result="effect1_dropShadow_1244_205"/>
<feBlend mode="normal" in="SourceGraphic" in2="effect1_dropShadow_1244_205" result="shape"/>
<feColorMatrix in="SourceAlpha" type="matrix" values="0 0 0 0 0 0 0 0 0 0 0 0 0 0 0 0 0 0 127 0" result="hardAlpha"/>
<feOffset dy="4"/>
<feGaussianBlur stdDeviation="2"/>
<feComposite in2="hardAlpha" operator="arithmetic" k2="-1" k3="1"/>
<feColorMatrix type="matrix" values="0 0 0 0 0 0 0 0 0 0 0 0 0 0 0 0 0 0 0.25 0"/>
<feBlend mode="normal" in2="shape" result="effect2_innerShadow_1244_205"/>
</filter>
<linearGradient id="paint0_linear_1244_205" x1="46.6522" y1="96.0258" x2="838.932" y2="96.0258" gradientUnits="userSpaceOnUse">
<stop stop-color="#00ABB2"/>
<stop offset="0.234375" stop-color="#00ABB2"/>
<stop offset="0.739583" stop-color="#A154A1"/>
<stop offset="1" stop-color="#A154A1"/>
</linearGradient>
</defs>
</svg>
