<svg width="740" height="68" viewBox="0 0 740 68" fill="none" xmlns="http://www.w3.org/2000/svg">
<path d="M5.37633 23V0.649998H7.77633V10.7H19.7763V0.649998H22.1763V23H19.7763V12.95H7.77633V23H5.37633ZM34.4562 23.36C32.9562 23.36 31.5962 23 30.3762 22.28C29.1762 21.54 28.2262 20.53 27.5262 19.25C26.8262 17.97 26.4762 16.52 26.4762 14.9C26.4762 13.28 26.8162 11.85 27.4962 10.61C28.1762 9.35 29.0962 8.36 30.2562 7.64C31.4362 6.92 32.7562 6.56 34.2162 6.56C35.3762 6.56 36.4062 6.78 37.3062 7.22C38.2262 7.64 39.0062 8.22 39.6462 8.96C40.2862 9.68 40.7762 10.5 41.1162 11.42C41.4562 12.32 41.6262 13.25 41.6262 14.21C41.6262 14.41 41.6162 14.64 41.5962 14.9C41.5762 15.14 41.5462 15.39 41.5062 15.65H27.9162V13.55H40.2162L39.1362 14.45C39.3162 13.35 39.1862 12.37 38.7462 11.51C38.3262 10.63 37.7162 9.94 36.9162 9.44C36.1162 8.92 35.2162 8.66 34.2162 8.66C33.2162 8.66 32.2862 8.92 31.4262 9.44C30.5862 9.96 29.9262 10.69 29.4462 11.63C28.9662 12.55 28.7762 13.65 28.8762 14.93C28.7762 16.21 28.9762 17.33 29.4762 18.29C29.9962 19.23 30.6962 19.96 31.5762 20.48C32.4762 21 33.4362 21.26 34.4562 21.26C35.6362 21.26 36.6262 20.98 37.4262 20.42C38.2262 19.86 38.8762 19.16 39.3762 18.32L41.2962 19.34C40.9762 20.06 40.4862 20.73 39.8262 21.35C39.1662 21.95 38.3762 22.44 37.4562 22.82C36.5562 23.18 35.5562 23.36 34.4562 23.36ZM45.5932 23V6.92H47.8432V9.56L47.5432 9.17C47.9232 8.41 48.4932 7.81 49.2532 7.37C50.0332 6.93 50.9732 6.71 52.0732 6.71H53.0932V8.96H51.6832C50.5232 8.96 49.5932 9.32 48.8932 10.04C48.1932 10.76 47.8432 11.78 47.8432 13.1V23H45.5932ZM63.0499 23.36C61.5499 23.36 60.1899 23 58.9699 22.28C57.7699 21.54 56.8199 20.53 56.1199 19.25C55.4199 17.97 55.0699 16.52 55.0699 14.9C55.0699 13.28 55.4099 11.85 56.0899 10.61C56.7699 9.35 57.6899 8.36 58.8499 7.64C60.0299 6.92 61.3499 6.56 62.8099 6.56C63.9699 6.56 64.9999 6.78 65.8999 7.22C66.8199 7.64 67.5999 8.22 68.2399 8.96C68.8799 9.68 69.3699 10.5 69.7099 11.42C70.0499 12.32 70.2199 13.25 70.2199 14.21C70.2199 14.41 70.2099 14.64 70.1899 14.9C70.1699 15.14 70.1399 15.39 70.0999 15.65H56.5099V13.55H68.8099L67.7299 14.45C67.9099 13.35 67.7799 12.37 67.3399 11.51C66.9199 10.63 66.3099 9.94 65.5099 9.44C64.7099 8.92 63.8099 8.66 62.8099 8.66C61.8099 8.66 60.8799 8.92 60.0199 9.44C59.1799 9.96 58.5199 10.69 58.0399 11.63C57.5599 12.55 57.3699 13.65 57.4699 14.93C57.3699 16.21 57.5699 17.33 58.0699 18.29C58.5899 19.23 59.2899 19.96 60.1699 20.48C61.0699 21 62.0299 21.26 63.0499 21.26C64.2299 21.26 65.2199 20.98 66.0199 20.42C66.8199 19.86 67.4699 19.16 67.9699 18.32L69.8899 19.34C69.5699 20.06 69.0799 20.73 68.4199 21.35C67.7599 21.95 66.9699 22.44 66.0499 22.82C65.1499 23.18 64.1499 23.36 63.0499 23.36ZM74.277 7.55V6.5C74.877 6.34 75.307 6.05 75.567 5.63C75.847 5.19 75.997 4.63 76.017 3.95H74.877V0.649998H77.277V3.17C77.277 4.33 77.027 5.29 76.527 6.05C76.027 6.81 75.277 7.31 74.277 7.55ZM87.8529 23.36C86.3129 23.36 84.9629 22.97 83.8029 22.19C82.6429 21.41 81.8029 20.35 81.2829 19.01L83.1729 18.11C83.6329 19.09 84.2729 19.87 85.0929 20.45C85.9329 21.03 86.8529 21.32 87.8529 21.32C88.8129 21.32 89.6229 21.09 90.2829 20.63C90.9429 20.15 91.2729 19.53 91.2729 18.77C91.2729 18.21 91.1129 17.77 90.7929 17.45C90.4729 17.11 90.1029 16.85 89.6829 16.67C89.2629 16.49 88.8929 16.36 88.5729 16.28L86.2629 15.62C84.7829 15.2 83.7129 14.61 83.0529 13.85C82.3929 13.09 82.0629 12.21 82.0629 11.21C82.0629 10.27 82.3029 9.45 82.7829 8.75C83.2629 8.05 83.9129 7.51 84.7329 7.13C85.5529 6.75 86.4629 6.56 87.4629 6.56C88.8229 6.56 90.0529 6.92 91.1529 7.64C92.2729 8.34 93.0629 9.32 93.5229 10.58L91.6029 11.48C91.2029 10.58 90.6229 9.88 89.8629 9.38C89.1229 8.86 88.2929 8.6 87.3729 8.6C86.4729 8.6 85.7529 8.83 85.2129 9.29C84.6729 9.75 84.4029 10.33 84.4029 11.03C84.4029 11.57 84.5429 12 84.8229 12.32C85.1029 12.64 85.4229 12.88 85.7829 13.04C86.1629 13.2 86.4929 13.32 86.7729 13.4L89.4429 14.18C90.7429 14.56 91.7529 15.15 92.4729 15.95C93.2129 16.75 93.5829 17.69 93.5829 18.77C93.5829 19.65 93.3329 20.44 92.8329 21.14C92.3529 21.84 91.6829 22.39 90.8229 22.79C89.9629 23.17 88.9729 23.36 87.8529 23.36ZM102.634 23V0.289999H104.884V10.04L104.374 9.92C104.774 8.88 105.424 8.06 106.324 7.46C107.244 6.86 108.304 6.56 109.504 6.56C110.644 6.56 111.664 6.82 112.564 7.34C113.484 7.86 114.204 8.58 114.724 9.5C115.264 10.4 115.534 11.42 115.534 12.56V23H113.284V13.43C113.284 12.45 113.104 11.62 112.744 10.94C112.384 10.26 111.884 9.74 111.244 9.38C110.624 9 109.914 8.81 109.114 8.81C108.314 8.81 107.594 9 106.954 9.38C106.314 9.74 105.804 10.27 105.424 10.97C105.064 11.65 104.884 12.47 104.884 13.43V23H102.634ZM127.361 23.36C125.841 23.36 124.461 23 123.221 22.28C121.981 21.54 120.991 20.54 120.251 19.28C119.531 18 119.171 16.55 119.171 14.93C119.171 13.33 119.531 11.9 120.251 10.64C120.971 9.38 121.941 8.39 123.161 7.67C124.401 6.93 125.801 6.56 127.361 6.56C128.921 6.56 130.311 6.92 131.531 7.64C132.771 8.36 133.741 9.35 134.441 10.61C135.161 11.87 135.521 13.31 135.521 14.93C135.521 16.57 135.151 18.03 134.411 19.31C133.671 20.57 132.681 21.56 131.441 22.28C130.221 23 128.861 23.36 127.361 23.36ZM127.361 21.11C128.441 21.11 129.411 20.84 130.271 20.3C131.151 19.76 131.841 19.02 132.341 18.08C132.861 17.14 133.121 16.09 133.121 14.93C133.121 13.77 132.861 12.73 132.341 11.81C131.841 10.89 131.151 10.16 130.271 9.62C129.411 9.08 128.441 8.81 127.361 8.81C126.281 8.81 125.301 9.08 124.421 9.62C123.561 10.16 122.871 10.89 122.351 11.81C121.831 12.73 121.571 13.77 121.571 14.93C121.571 16.09 121.831 17.14 122.351 18.08C122.871 19.02 123.561 19.76 124.421 20.3C125.301 20.84 126.281 21.11 127.361 21.11ZM142.737 23L137.217 6.92H139.767L144.327 20.99H143.427L147.717 6.92H149.967L154.257 20.99H153.357L157.947 6.92H160.467L154.947 23H152.697L148.527 9.23H149.157L144.987 23H142.737ZM174.351 23.18C172.911 23.18 171.801 22.76 171.021 21.92C170.241 21.08 169.851 19.88 169.851 18.32V9.17H166.881V6.92H167.631C168.311 6.92 168.851 6.7 169.251 6.26C169.651 5.8 169.851 5.23 169.851 4.55V3.2H172.101V6.92H175.641V9.17H172.101V18.32C172.101 18.86 172.181 19.34 172.341 19.76C172.501 20.16 172.771 20.48 173.151 20.72C173.551 20.96 174.081 21.08 174.741 21.08C174.901 21.08 175.091 21.07 175.311 21.05C175.531 21.03 175.721 21.01 175.881 20.99V23C175.641 23.06 175.371 23.1 175.071 23.12C174.771 23.16 174.531 23.18 174.351 23.18ZM186.776 23.36C185.256 23.36 183.876 23 182.636 22.28C181.396 21.54 180.406 20.54 179.666 19.28C178.946 18 178.586 16.55 178.586 14.93C178.586 13.33 178.946 11.9 179.666 10.64C180.386 9.38 181.356 8.39 182.576 7.67C183.816 6.93 185.216 6.56 186.776 6.56C188.336 6.56 189.726 6.92 190.946 7.64C192.186 8.36 193.156 9.35 193.856 10.61C194.576 11.87 194.936 13.31 194.936 14.93C194.936 16.57 194.566 18.03 193.826 19.31C193.086 20.57 192.096 21.56 190.856 22.28C189.636 23 188.276 23.36 186.776 23.36ZM186.776 21.11C187.856 21.11 188.826 20.84 189.686 20.3C190.566 19.76 191.256 19.02 191.756 18.08C192.276 17.14 192.536 16.09 192.536 14.93C192.536 13.77 192.276 12.73 191.756 11.81C191.256 10.89 190.566 10.16 189.686 9.62C188.826 9.08 187.856 8.81 186.776 8.81C185.696 8.81 184.716 9.08 183.836 9.62C182.976 10.16 182.286 10.89 181.766 11.81C181.246 12.73 180.986 13.77 180.986 14.93C180.986 16.09 181.246 17.14 181.766 18.08C182.286 19.02 182.976 19.76 183.836 20.3C184.716 20.84 185.696 21.11 186.776 21.11ZM466.677 23V6.92H468.927V23H466.677ZM466.677 3.95V0.649998H468.927V3.95H466.677ZM473.533 23V6.92H475.783V10.04L475.273 9.92C475.673 8.88 476.323 8.06 477.223 7.46C478.143 6.86 479.203 6.56 480.403 6.56C481.543 6.56 482.563 6.82 483.463 7.34C484.383 7.86 485.103 8.58 485.623 9.5C486.163 10.4 486.433 11.42 486.433 12.56V23H484.183V13.43C484.183 12.45 484.003 11.62 483.643 10.94C483.303 10.26 482.813 9.74 482.173 9.38C481.553 9 480.833 8.81 480.013 8.81C479.193 8.81 478.463 9 477.823 9.38C477.183 9.74 476.683 10.27 476.323 10.97C475.963 11.65 475.783 12.47 475.783 13.43V23H473.533ZM502.338 23.36C501.178 23.36 500.108 23.16 499.128 22.76C498.148 22.36 497.288 21.79 496.548 21.05C495.828 20.31 495.278 19.43 494.898 18.41L496.818 17.51C497.278 18.67 497.998 19.59 498.978 20.27C499.958 20.93 501.078 21.26 502.338 21.26C503.338 21.26 504.228 21.07 505.008 20.69C505.788 20.29 506.398 19.72 506.838 18.98C507.278 18.24 507.498 17.34 507.498 16.28C507.498 15.22 507.268 14.32 506.808 13.58C506.368 12.84 505.758 12.28 504.978 11.9C504.198 11.52 503.308 11.33 502.308 11.33C502.048 11.33 501.758 11.34 501.438 11.36C501.138 11.38 500.888 11.41 500.688 11.45L500.208 10.4L506.238 2.75H495.948V0.649998H508.938V2.75L503.298 9.86L502.998 9.47C504.338 9.51 505.528 9.83 506.568 10.43C507.608 11.01 508.418 11.8 508.998 12.8C509.598 13.8 509.898 14.96 509.898 16.28C509.898 17.6 509.578 18.8 508.938 19.88C508.298 20.94 507.408 21.79 506.268 22.43C505.128 23.05 503.818 23.36 502.338 23.36ZM519.206 23V6.92H521.456V9.98L521.096 9.53C521.536 8.59 522.186 7.86 523.046 7.34C523.926 6.82 524.886 6.56 525.926 6.56C527.166 6.56 528.286 6.91 529.286 7.61C530.286 8.31 530.996 9.22 531.416 10.34L530.786 10.37C531.186 9.13 531.876 8.19 532.856 7.55C533.856 6.89 534.956 6.56 536.156 6.56C537.236 6.56 538.226 6.82 539.126 7.34C540.046 7.86 540.776 8.58 541.316 9.5C541.876 10.4 542.156 11.42 542.156 12.56V23H539.906V13.43C539.906 12.45 539.726 11.62 539.366 10.94C539.026 10.26 538.556 9.74 537.956 9.38C537.356 9 536.666 8.81 535.886 8.81C535.126 8.81 534.436 9 533.816 9.38C533.196 9.74 532.706 10.27 532.346 10.97C531.986 11.65 531.806 12.47 531.806 13.43V23H529.556V13.43C529.556 12.45 529.376 11.62 529.016 10.94C528.676 10.26 528.206 9.74 527.606 9.38C527.006 9 526.316 8.81 525.536 8.81C524.756 8.81 524.056 9 523.436 9.38C522.836 9.74 522.356 10.27 521.996 10.97C521.636 11.65 521.456 12.47 521.456 13.43V23H519.206ZM553.983 23.36C552.463 23.36 551.083 23 549.843 22.28C548.603 21.54 547.613 20.54 546.873 19.28C546.153 18 545.793 16.55 545.793 14.93C545.793 13.33 546.153 11.9 546.873 10.64C547.593 9.38 548.563 8.39 549.783 7.67C551.023 6.93 552.423 6.56 553.983 6.56C555.543 6.56 556.933 6.92 558.153 7.64C559.393 8.36 560.363 9.35 561.063 10.61C561.783 11.87 562.143 13.31 562.143 14.93C562.143 16.57 561.773 18.03 561.033 19.31C560.293 20.57 559.303 21.56 558.063 22.28C556.843 23 555.483 23.36 553.983 23.36ZM553.983 21.11C555.063 21.11 556.033 20.84 556.893 20.3C557.773 19.76 558.463 19.02 558.963 18.08C559.483 17.14 559.743 16.09 559.743 14.93C559.743 13.77 559.483 12.73 558.963 11.81C558.463 10.89 557.773 10.16 556.893 9.62C556.033 9.08 555.063 8.81 553.983 8.81C552.903 8.81 551.923 9.08 551.043 9.62C550.183 10.16 549.493 10.89 548.973 11.81C548.453 12.73 548.193 13.77 548.193 14.93C548.193 16.09 548.453 17.14 548.973 18.08C549.493 19.02 550.183 19.76 551.043 20.3C551.923 20.84 552.903 21.11 553.983 21.11ZM566.111 23V6.92H568.361V10.04L567.851 9.92C568.251 8.88 568.901 8.06 569.801 7.46C570.721 6.86 571.781 6.56 572.981 6.56C574.121 6.56 575.141 6.82 576.041 7.34C576.961 7.86 577.681 8.58 578.201 9.5C578.741 10.4 579.011 11.42 579.011 12.56V23H576.761V13.43C576.761 12.45 576.581 11.62 576.221 10.94C575.881 10.26 575.391 9.74 574.751 9.38C574.131 9 573.411 8.81 572.591 8.81C571.771 8.81 571.041 9 570.401 9.38C569.761 9.74 569.261 10.27 568.901 10.97C568.541 11.65 568.361 12.47 568.361 13.43V23H566.111ZM589.458 23.18C588.018 23.18 586.908 22.76 586.128 21.92C585.348 21.08 584.958 19.88 584.958 18.32V9.17H581.988V6.92H582.738C583.418 6.92 583.958 6.7 584.358 6.26C584.758 5.8 584.958 5.23 584.958 4.55V3.2H587.208V6.92H590.748V9.17H587.208V18.32C587.208 18.86 587.288 19.34 587.448 19.76C587.608 20.16 587.878 20.48 588.258 20.72C588.658 20.96 589.188 21.08 589.848 21.08C590.008 21.08 590.198 21.07 590.418 21.05C590.638 21.03 590.828 21.01 590.988 20.99V23C590.748 23.06 590.478 23.1 590.178 23.12C589.878 23.16 589.638 23.18 589.458 23.18ZM594.939 23V0.289999H597.189V10.04L596.679 9.92C597.079 8.88 597.729 8.06 598.629 7.46C599.549 6.86 600.609 6.56 601.809 6.56C602.949 6.56 603.969 6.82 604.869 7.34C605.789 7.86 606.509 8.58 607.029 9.5C607.569 10.4 607.839 11.42 607.839 12.56V23H605.589V13.43C605.589 12.45 605.409 11.62 605.049 10.94C604.689 10.26 604.189 9.74 603.549 9.38C602.929 9 602.219 8.81 601.419 8.81C600.619 8.81 599.899 9 599.259 9.38C598.619 9.74 598.109 10.27 597.729 10.97C597.369 11.65 597.189 12.47 597.189 13.43V23H594.939ZM617.716 23.36C616.176 23.36 614.826 22.97 613.666 22.19C612.506 21.41 611.666 20.35 611.146 19.01L613.036 18.11C613.496 19.09 614.136 19.87 614.956 20.45C615.796 21.03 616.716 21.32 617.716 21.32C618.676 21.32 619.486 21.09 620.146 20.63C620.806 20.15 621.136 19.53 621.136 18.77C621.136 18.21 620.976 17.77 620.656 17.45C620.336 17.11 619.966 16.85 619.546 16.67C619.126 16.49 618.756 16.36 618.436 16.28L616.126 15.62C614.646 15.2 613.576 14.61 612.916 13.85C612.256 13.09 611.926 12.21 611.926 11.21C611.926 10.27 612.166 9.45 612.646 8.75C613.126 8.05 613.776 7.51 614.596 7.13C615.416 6.75 616.326 6.56 617.326 6.56C618.686 6.56 619.916 6.92 621.016 7.64C622.136 8.34 622.926 9.32 623.386 10.58L621.466 11.48C621.066 10.58 620.486 9.88 619.726 9.38C618.986 8.86 618.156 8.6 617.236 8.6C616.336 8.6 615.616 8.83 615.076 9.29C614.536 9.75 614.266 10.33 614.266 11.03C614.266 11.57 614.406 12 614.686 12.32C614.966 12.64 615.286 12.88 615.646 13.04C616.026 13.2 616.356 13.32 616.636 13.4L619.306 14.18C620.606 14.56 621.616 15.15 622.336 15.95C623.076 16.75 623.446 17.69 623.446 18.77C623.446 19.65 623.196 20.44 622.696 21.14C622.216 21.84 621.546 22.39 620.686 22.79C619.826 23.17 618.836 23.36 617.716 23.36ZM636.038 23L630.518 6.92H633.068L637.628 20.99H636.728L641.018 6.92H643.268L647.558 20.99H646.658L651.248 6.92H653.768L648.248 23H645.998L641.828 9.23H642.458L638.288 23H636.038ZM656.404 23V6.92H658.654V23H656.404ZM656.404 3.95V0.649998H658.654V3.95H656.404ZM669.409 23.18C667.969 23.18 666.859 22.76 666.079 21.92C665.299 21.08 664.909 19.88 664.909 18.32V9.17H661.939V6.92H662.689C663.369 6.92 663.909 6.7 664.309 6.26C664.709 5.8 664.909 5.23 664.909 4.55V3.2H667.159V6.92H670.699V9.17H667.159V18.32C667.159 18.86 667.239 19.34 667.399 19.76C667.559 20.16 667.829 20.48 668.209 20.72C668.609 20.96 669.139 21.08 669.799 21.08C669.959 21.08 670.149 21.07 670.369 21.05C670.589 21.03 670.779 21.01 670.939 20.99V23C670.699 23.06 670.429 23.1 670.129 23.12C669.829 23.16 669.589 23.18 669.409 23.18ZM674.89 23V0.289999H677.14V10.04L676.63 9.92C677.03 8.88 677.68 8.06 678.58 7.46C679.5 6.86 680.56 6.56 681.76 6.56C682.9 6.56 683.92 6.82 684.82 7.34C685.74 7.86 686.46 8.58 686.98 9.5C687.52 10.4 687.79 11.42 687.79 12.56V23H685.54V13.43C685.54 12.45 685.36 11.62 685 10.94C684.64 10.26 684.14 9.74 683.5 9.38C682.88 9 682.17 8.81 681.37 8.81C680.57 8.81 679.85 9 679.21 9.38C678.57 9.74 678.06 10.27 677.68 10.97C677.32 11.65 677.14 12.47 677.14 13.43V23H674.89ZM699.617 23.36C698.097 23.36 696.717 23 695.477 22.28C694.237 21.54 693.247 20.54 692.507 19.28C691.787 18 691.427 16.55 691.427 14.93C691.427 13.33 691.787 11.9 692.507 10.64C693.227 9.38 694.197 8.39 695.417 7.67C696.657 6.93 698.057 6.56 699.617 6.56C701.177 6.56 702.567 6.92 703.787 7.64C705.027 8.36 705.997 9.35 706.697 10.61C707.417 11.87 707.777 13.31 707.777 14.93C707.777 16.57 707.407 18.03 706.667 19.31C705.927 20.57 704.937 21.56 703.697 22.28C702.477 23 701.117 23.36 699.617 23.36ZM699.617 21.11C700.697 21.11 701.667 20.84 702.527 20.3C703.407 19.76 704.097 19.02 704.597 18.08C705.117 17.14 705.377 16.09 705.377 14.93C705.377 13.77 705.117 12.73 704.597 11.81C704.097 10.89 703.407 10.16 702.527 9.62C701.667 9.08 700.697 8.81 699.617 8.81C698.537 8.81 697.557 9.08 696.677 9.62C695.817 10.16 695.127 10.89 694.607 11.81C694.087 12.73 693.827 13.77 693.827 14.93C693.827 16.09 694.087 17.14 694.607 18.08C695.127 19.02 695.817 19.76 696.677 20.3C697.557 20.84 698.537 21.11 699.617 21.11ZM717.446 23.36C716.326 23.36 715.306 23.1 714.386 22.58C713.466 22.04 712.736 21.3 712.196 20.36C711.676 19.4 711.416 18.3 711.416 17.06V6.92H713.666V16.79C713.666 17.65 713.836 18.41 714.176 19.07C714.536 19.71 715.026 20.21 715.646 20.57C716.286 20.93 717.016 21.11 717.836 21.11C718.656 21.11 719.386 20.93 720.026 20.57C720.666 20.19 721.166 19.66 721.526 18.98C721.886 18.28 722.066 17.45 722.066 16.49V6.92H724.316V23H722.066V19.88L722.576 20C722.196 21.04 721.546 21.86 720.626 22.46C719.706 23.06 718.646 23.36 717.446 23.36ZM735.093 23.18C733.653 23.18 732.543 22.76 731.763 21.92C730.983 21.08 730.593 19.88 730.593 18.32V9.17H727.623V6.92H728.373C729.053 6.92 729.593 6.7 729.993 6.26C730.393 5.8 730.593 5.23 730.593 4.55V3.2H732.843V6.92H736.383V9.17H732.843V18.32C732.843 18.86 732.923 19.34 733.083 19.76C733.243 20.16 733.513 20.48 733.893 20.72C734.293 20.96 734.823 21.08 735.483 21.08C735.643 21.08 735.833 21.07 736.053 21.05C736.273 21.03 736.463 21.01 736.623 20.99V23C736.383 23.06 736.113 23.1 735.813 23.12C735.513 23.16 735.273 23.18 735.093 23.18ZM8.45953 61.36C7.07953 61.36 5.82953 61.05 4.70953 60.43C3.60953 59.79 2.77953 58.89 2.21953 57.73L2.57953 57.4V61H0.329531V38.29H2.57953V48.52L2.21953 47.89C2.85953 46.87 3.70953 46.06 4.76953 45.46C5.84953 44.86 7.07953 44.56 8.45953 44.56C9.97953 44.56 11.3295 44.93 12.5095 45.67C13.7095 46.39 14.6495 47.38 15.3295 48.64C16.0295 49.9 16.3795 51.34 16.3795 52.96C16.3795 54.56 16.0295 56 15.3295 57.28C14.6495 58.54 13.7095 59.54 12.5095 60.28C11.3295 61 9.97953 61.36 8.45953 61.36ZM8.33953 59.11C9.41953 59.11 10.3795 58.84 11.2195 58.3C12.0795 57.76 12.7495 57.03 13.2295 56.11C13.7295 55.17 13.9795 54.12 13.9795 52.96C13.9795 51.78 13.7295 50.73 13.2295 49.81C12.7495 48.89 12.0795 48.16 11.2195 47.62C10.3795 47.08 9.41953 46.81 8.33953 46.81C7.25953 46.81 6.27953 47.08 5.39953 47.62C4.53953 48.16 3.84953 48.9 3.32953 49.84C2.82953 50.76 2.57953 51.8 2.57953 52.96C2.57953 54.12 2.82953 55.17 3.32953 56.11C3.84953 57.03 4.53953 57.76 5.39953 58.3C6.27953 58.84 7.25953 59.11 8.33953 59.11ZM20.3393 61V38.29H22.5893V61H20.3393ZM34.7248 61.36C33.2048 61.36 31.8248 61 30.5848 60.28C29.3448 59.54 28.3548 58.54 27.6148 57.28C26.8948 56 26.5348 54.55 26.5348 52.93C26.5348 51.33 26.8948 49.9 27.6148 48.64C28.3348 47.38 29.3048 46.39 30.5248 45.67C31.7648 44.93 33.1648 44.56 34.7248 44.56C36.2848 44.56 37.6748 44.92 38.8948 45.64C40.1348 46.36 41.1048 47.35 41.8048 48.61C42.5248 49.87 42.8848 51.31 42.8848 52.93C42.8848 54.57 42.5148 56.03 41.7748 57.31C41.0348 58.57 40.0448 59.56 38.8048 60.28C37.5848 61 36.2248 61.36 34.7248 61.36ZM34.7248 59.11C35.8048 59.11 36.7748 58.84 37.6348 58.3C38.5148 57.76 39.2048 57.02 39.7048 56.08C40.2248 55.14 40.4848 54.09 40.4848 52.93C40.4848 51.77 40.2248 50.73 39.7048 49.81C39.2048 48.89 38.5148 48.16 37.6348 47.62C36.7748 47.08 35.8048 46.81 34.7248 46.81C33.6448 46.81 32.6648 47.08 31.7848 47.62C30.9248 48.16 30.2348 48.89 29.7148 49.81C29.1948 50.73 28.9348 51.77 28.9348 52.93C28.9348 54.09 29.1948 55.14 29.7148 56.08C30.2348 57.02 30.9248 57.76 31.7848 58.3C32.6648 58.84 33.6448 59.11 34.7248 59.11ZM50.1 61L44.58 44.92H47.13L51.69 58.99H50.79L55.08 44.92H57.33L61.62 58.99H60.72L65.31 44.92H67.83L62.31 61H60.06L55.89 47.23H56.52L52.35 61H50.1ZM70.4663 61V44.92H72.7163V61H70.4663ZM70.4663 41.95V38.65H72.7163V41.95H70.4663ZM77.3217 61V44.92H79.5717V48.04L79.0617 47.92C79.4617 46.88 80.1117 46.06 81.0117 45.46C81.9317 44.86 82.9917 44.56 84.1917 44.56C85.3317 44.56 86.3517 44.82 87.2517 45.34C88.1717 45.86 88.8917 46.58 89.4117 47.5C89.9517 48.4 90.2217 49.42 90.2217 50.56V61H87.9717V51.43C87.9717 50.45 87.7917 49.62 87.4317 48.94C87.0917 48.26 86.6017 47.74 85.9617 47.38C85.3417 47 84.6217 46.81 83.8017 46.81C82.9817 46.81 82.2517 47 81.6117 47.38C80.9717 47.74 80.4717 48.27 80.1117 48.97C79.7517 49.65 79.5717 50.47 79.5717 51.43V61H77.3217ZM102.139 67.6C101.039 67.6 100.019 67.43 99.079 67.09C98.159 66.75 97.359 66.28 96.679 65.68C96.019 65.1 95.509 64.42 95.149 63.64L97.219 62.53C97.539 63.29 98.109 63.95 98.929 64.51C99.749 65.07 100.799 65.35 102.079 65.35C103.059 65.35 103.959 65.16 104.779 64.78C105.599 64.4 106.259 63.84 106.759 63.1C107.259 62.36 107.509 61.45 107.509 60.37V56.8L107.869 57.13C107.309 58.29 106.479 59.19 105.379 59.83C104.279 60.45 103.079 60.76 101.779 60.76C100.279 60.76 98.929 60.4 97.729 59.68C96.529 58.96 95.579 57.99 94.879 56.77C94.199 55.53 93.859 54.16 93.859 52.66C93.859 51.14 94.199 49.77 94.879 48.55C95.579 47.33 96.519 46.36 97.699 45.64C98.899 44.92 100.259 44.56 101.779 44.56C103.079 44.56 104.259 44.86 105.319 45.46C106.399 46.06 107.249 46.87 107.869 47.89L107.509 48.52V44.92H109.759V60.37C109.759 61.75 109.429 62.98 108.769 64.06C108.129 65.16 107.229 66.02 106.069 66.64C104.929 67.28 103.619 67.6 102.139 67.6ZM101.899 58.51C102.939 58.51 103.879 58.25 104.719 57.73C105.559 57.19 106.229 56.48 106.729 55.6C107.249 54.7 107.509 53.72 107.509 52.66C107.509 51.6 107.249 50.63 106.729 49.75C106.229 48.85 105.559 48.14 104.719 47.62C103.879 47.08 102.939 46.81 101.899 46.81C100.839 46.81 99.879 47.08 99.019 47.62C98.159 48.14 97.479 48.84 96.979 49.72C96.499 50.6 96.259 51.58 96.259 52.66C96.259 53.72 96.499 54.7 96.979 55.6C97.479 56.48 98.149 57.19 98.989 57.73C99.849 58.25 100.819 58.51 101.899 58.51ZM119.81 67.6C119.49 67.6 119.16 67.57 118.82 67.51C118.5 67.47 118.18 67.39 117.86 67.27V65.17C118.06 65.19 118.31 65.22 118.61 65.26C118.93 65.32 119.25 65.35 119.57 65.35C120.55 65.35 121.3 65.14 121.82 64.72C122.34 64.32 122.85 63.54 123.35 62.38L124.37 59.98L124.31 61.96L117.5 44.92H119.93L125.51 58.99H124.88L130.43 44.92H132.92L125.57 63.04C125.25 63.82 124.84 64.56 124.34 65.26C123.86 65.96 123.25 66.52 122.51 66.94C121.77 67.38 120.87 67.6 119.81 67.6ZM142.801 61.36C141.281 61.36 139.901 61 138.661 60.28C137.421 59.54 136.431 58.54 135.691 57.28C134.971 56 134.611 54.55 134.611 52.93C134.611 51.33 134.971 49.9 135.691 48.64C136.411 47.38 137.381 46.39 138.601 45.67C139.841 44.93 141.241 44.56 142.801 44.56C144.361 44.56 145.751 44.92 146.971 45.64C148.211 46.36 149.181 47.35 149.881 48.61C150.601 49.87 150.961 51.31 150.961 52.93C150.961 54.57 150.591 56.03 149.851 57.31C149.111 58.57 148.121 59.56 146.881 60.28C145.661 61 144.301 61.36 142.801 61.36ZM142.801 59.11C143.881 59.11 144.851 58.84 145.711 58.3C146.591 57.76 147.281 57.02 147.781 56.08C148.301 55.14 148.561 54.09 148.561 52.93C148.561 51.77 148.301 50.73 147.781 49.81C147.281 48.89 146.591 48.16 145.711 47.62C144.851 47.08 143.881 46.81 142.801 46.81C141.721 46.81 140.741 47.08 139.861 47.62C139.001 48.16 138.311 48.89 137.791 49.81C137.271 50.73 137.011 51.77 137.011 52.93C137.011 54.09 137.271 55.14 137.791 56.08C138.311 57.02 139.001 57.76 139.861 58.3C140.741 58.84 141.721 59.11 142.801 59.11ZM160.629 61.36C159.509 61.36 158.489 61.1 157.569 60.58C156.649 60.04 155.919 59.3 155.379 58.36C154.859 57.4 154.599 56.3 154.599 55.06V44.92H156.849V54.79C156.849 55.65 157.019 56.41 157.359 57.07C157.719 57.71 158.209 58.21 158.829 58.57C159.469 58.93 160.199 59.11 161.019 59.11C161.839 59.11 162.569 58.93 163.209 58.57C163.849 58.19 164.349 57.66 164.709 56.98C165.069 56.28 165.249 55.45 165.249 54.49V44.92H167.499V61H165.249V57.88L165.759 58C165.379 59.04 164.729 59.86 163.809 60.46C162.889 61.06 161.829 61.36 160.629 61.36ZM172.126 61V44.92H174.376V47.56L174.076 47.17C174.456 46.41 175.026 45.81 175.786 45.37C176.566 44.93 177.506 44.71 178.606 44.71H179.626V46.96H178.216C177.056 46.96 176.126 47.32 175.426 48.04C174.726 48.76 174.376 49.78 174.376 51.1V61H172.126ZM195.491 61.36C194.111 61.36 192.861 61.05 191.741 60.43C190.641 59.79 189.811 58.89 189.251 57.73L189.611 57.4V61H187.361V38.29H189.611V48.52L189.251 47.89C189.891 46.87 190.741 46.06 191.801 45.46C192.881 44.86 194.111 44.56 195.491 44.56C197.011 44.56 198.361 44.93 199.541 45.67C200.741 46.39 201.681 47.38 202.361 48.64C203.061 49.9 203.411 51.34 203.411 52.96C203.411 54.56 203.061 56 202.361 57.28C201.681 58.54 200.741 59.54 199.541 60.28C198.361 61 197.011 61.36 195.491 61.36ZM195.371 59.11C196.451 59.11 197.411 58.84 198.251 58.3C199.111 57.76 199.781 57.03 200.261 56.11C200.761 55.17 201.011 54.12 201.011 52.96C201.011 51.78 200.761 50.73 200.261 49.81C199.781 48.89 199.111 48.16 198.251 47.62C197.411 47.08 196.451 46.81 195.371 46.81C194.291 46.81 193.311 47.08 192.431 47.62C191.571 48.16 190.881 48.9 190.361 49.84C189.861 50.76 189.611 51.8 189.611 52.96C189.611 54.12 189.861 55.17 190.361 56.11C190.881 57.03 191.571 57.76 192.431 58.3C193.311 58.84 194.291 59.11 195.371 59.11ZM213.071 61.36C211.951 61.36 210.931 61.1 210.011 60.58C209.091 60.04 208.361 59.3 207.821 58.36C207.301 57.4 207.041 56.3 207.041 55.06V44.92H209.291V54.79C209.291 55.65 209.461 56.41 209.801 57.07C210.161 57.71 210.651 58.21 211.271 58.57C211.911 58.93 212.641 59.11 213.461 59.11C214.281 59.11 215.011 58.93 215.651 58.57C216.291 58.19 216.791 57.66 217.151 56.98C217.511 56.28 217.691 55.45 217.691 54.49V44.92H219.941V61H217.691V57.88L218.201 58C217.821 59.04 217.171 59.86 216.251 60.46C215.331 61.06 214.271 61.36 213.071 61.36ZM231.828 61.36C230.328 61.36 228.978 61 227.778 60.28C226.578 59.54 225.628 58.54 224.928 57.28C224.248 56 223.908 54.56 223.908 52.96C223.908 51.34 224.248 49.9 224.928 48.64C225.628 47.38 226.568 46.39 227.748 45.67C228.948 44.93 230.308 44.56 231.828 44.56C233.208 44.56 234.438 44.86 235.518 45.46C236.598 46.06 237.448 46.87 238.068 47.89L237.708 48.52V38.29H239.958V61H237.708V57.4L238.068 57.73C237.508 58.89 236.668 59.79 235.548 60.43C234.448 61.05 233.208 61.36 231.828 61.36ZM231.948 59.11C233.028 59.11 233.998 58.84 234.858 58.3C235.738 57.76 236.428 57.03 236.928 56.11C237.448 55.17 237.708 54.12 237.708 52.96C237.708 51.8 237.448 50.76 236.928 49.84C236.428 48.9 235.738 48.16 234.858 47.62C233.998 47.08 233.028 46.81 231.948 46.81C230.888 46.81 229.928 47.08 229.068 47.62C228.208 48.16 227.528 48.89 227.028 49.81C226.548 50.73 226.308 51.78 226.308 52.96C226.308 54.12 226.548 55.17 227.028 56.11C227.528 57.03 228.198 57.76 229.038 58.3C229.898 58.84 230.868 59.11 231.948 59.11ZM252.198 67.6C251.098 67.6 250.078 67.43 249.138 67.09C248.218 66.75 247.418 66.28 246.738 65.68C246.078 65.1 245.568 64.42 245.208 63.64L247.278 62.53C247.598 63.29 248.168 63.95 248.988 64.51C249.808 65.07 250.858 65.35 252.138 65.35C253.118 65.35 254.018 65.16 254.838 64.78C255.658 64.4 256.318 63.84 256.818 63.1C257.318 62.36 257.568 61.45 257.568 60.37V56.8L257.928 57.13C257.368 58.29 256.538 59.19 255.438 59.83C254.338 60.45 253.138 60.76 251.838 60.76C250.338 60.76 248.988 60.4 247.788 59.68C246.588 58.96 245.638 57.99 244.938 56.77C244.258 55.53 243.918 54.16 243.918 52.66C243.918 51.14 244.258 49.77 244.938 48.55C245.638 47.33 246.578 46.36 247.758 45.64C248.958 44.92 250.318 44.56 251.838 44.56C253.138 44.56 254.318 44.86 255.378 45.46C256.458 46.06 257.308 46.87 257.928 47.89L257.568 48.52V44.92H259.818V60.37C259.818 61.75 259.488 62.98 258.828 64.06C258.188 65.16 257.288 66.02 256.128 66.64C254.988 67.28 253.678 67.6 252.198 67.6ZM251.958 58.51C252.998 58.51 253.938 58.25 254.778 57.73C255.618 57.19 256.288 56.48 256.788 55.6C257.308 54.7 257.568 53.72 257.568 52.66C257.568 51.6 257.308 50.63 256.788 49.75C256.288 48.85 255.618 48.14 254.778 47.62C253.938 47.08 252.998 46.81 251.958 46.81C250.898 46.81 249.938 47.08 249.078 47.62C248.218 48.14 247.538 48.84 247.038 49.72C246.558 50.6 246.318 51.58 246.318 52.66C246.318 53.72 246.558 54.7 247.038 55.6C247.538 56.48 248.208 57.19 249.048 57.73C249.908 58.25 250.878 58.51 251.958 58.51ZM271.761 61.36C270.261 61.36 268.901 61 267.681 60.28C266.481 59.54 265.531 58.53 264.831 57.25C264.131 55.97 263.781 54.52 263.781 52.9C263.781 51.28 264.121 49.85 264.801 48.61C265.481 47.35 266.401 46.36 267.561 45.64C268.741 44.92 270.061 44.56 271.521 44.56C272.681 44.56 273.711 44.78 274.611 45.22C275.531 45.64 276.311 46.22 276.951 46.96C277.591 47.68 278.081 48.5 278.421 49.42C278.761 50.32 278.931 51.25 278.931 52.21C278.931 52.41 278.921 52.64 278.901 52.9C278.881 53.14 278.851 53.39 278.811 53.65H265.221V51.55H277.521L276.441 52.45C276.621 51.35 276.491 50.37 276.051 49.51C275.631 48.63 275.021 47.94 274.221 47.44C273.421 46.92 272.521 46.66 271.521 46.66C270.521 46.66 269.591 46.92 268.731 47.44C267.891 47.96 267.231 48.69 266.751 49.63C266.271 50.55 266.081 51.65 266.181 52.93C266.081 54.21 266.281 55.33 266.781 56.29C267.301 57.23 268.001 57.96 268.881 58.48C269.781 59 270.741 59.26 271.761 59.26C272.941 59.26 273.931 58.98 274.731 58.42C275.531 57.86 276.181 57.16 276.681 56.32L278.601 57.34C278.281 58.06 277.791 58.73 277.131 59.35C276.471 59.95 275.681 60.44 274.761 60.82C273.861 61.18 272.861 61.36 271.761 61.36ZM289.048 61.18C287.608 61.18 286.498 60.76 285.718 59.92C284.938 59.08 284.548 57.88 284.548 56.32V47.17H281.578V44.92H282.328C283.008 44.92 283.548 44.7 283.948 44.26C284.348 43.8 284.548 43.23 284.548 42.55V41.2H286.798V44.92H290.338V47.17H286.798V56.32C286.798 56.86 286.878 57.34 287.038 57.76C287.198 58.16 287.468 58.48 287.848 58.72C288.248 58.96 288.778 59.08 289.438 59.08C289.598 59.08 289.788 59.07 290.008 59.05C290.228 59.03 290.418 59.01 290.578 58.99V61C290.338 61.06 290.068 61.1 289.768 61.12C289.468 61.16 289.228 61.18 289.048 61.18ZM294.619 64.9V63.85C295.219 63.69 295.659 63.38 295.939 62.92C296.219 62.46 296.359 61.82 296.359 61H295.219V57.7H297.619V60.22C297.619 61.52 297.369 62.56 296.869 63.34C296.369 64.14 295.619 64.66 294.619 64.9ZM315.032 61.36C313.532 61.36 312.172 61 310.952 60.28C309.752 59.54 308.802 58.53 308.102 57.25C307.402 55.97 307.052 54.52 307.052 52.9C307.052 51.28 307.392 49.85 308.072 48.61C308.752 47.35 309.672 46.36 310.832 45.64C312.012 44.92 313.332 44.56 314.792 44.56C315.952 44.56 316.982 44.78 317.882 45.22C318.802 45.64 319.582 46.22 320.222 46.96C320.862 47.68 321.352 48.5 321.692 49.42C322.032 50.32 322.202 51.25 322.202 52.21C322.202 52.41 322.192 52.64 322.172 52.9C322.152 53.14 322.122 53.39 322.082 53.65H308.492V51.55H320.792L319.712 52.45C319.892 51.35 319.762 50.37 319.322 49.51C318.902 48.63 318.292 47.94 317.492 47.44C316.692 46.92 315.792 46.66 314.792 46.66C313.792 46.66 312.862 46.92 312.002 47.44C311.162 47.96 310.502 48.69 310.022 49.63C309.542 50.55 309.352 51.65 309.452 52.93C309.352 54.21 309.552 55.33 310.052 56.29C310.572 57.23 311.272 57.96 312.152 58.48C313.052 59 314.012 59.26 315.032 59.26C316.212 59.26 317.202 58.98 318.002 58.42C318.802 57.86 319.452 57.16 319.952 56.32L321.872 57.34C321.552 58.06 321.062 58.73 320.402 59.35C319.742 59.95 318.952 60.44 318.032 60.82C317.132 61.18 316.132 61.36 315.032 61.36ZM330.166 61L323.896 44.92H326.416L331.696 59.02H330.886L336.196 44.92H338.746L332.416 61H330.166ZM348.401 61.36C346.901 61.36 345.541 61 344.321 60.28C343.121 59.54 342.171 58.53 341.471 57.25C340.771 55.97 340.421 54.52 340.421 52.9C340.421 51.28 340.761 49.85 341.441 48.61C342.121 47.35 343.041 46.36 344.201 45.64C345.381 44.92 346.701 44.56 348.161 44.56C349.321 44.56 350.351 44.78 351.251 45.22C352.171 45.64 352.951 46.22 353.591 46.96C354.231 47.68 354.721 48.5 355.061 49.42C355.401 50.32 355.571 51.25 355.571 52.21C355.571 52.41 355.561 52.64 355.541 52.9C355.521 53.14 355.491 53.39 355.451 53.65H341.861V51.55H354.161L353.081 52.45C353.261 51.35 353.131 50.37 352.691 49.51C352.271 48.63 351.661 47.94 350.861 47.44C350.061 46.92 349.161 46.66 348.161 46.66C347.161 46.66 346.231 46.92 345.371 47.44C344.531 47.96 343.871 48.69 343.391 49.63C342.911 50.55 342.721 51.65 342.821 52.93C342.721 54.21 342.921 55.33 343.421 56.29C343.941 57.23 344.641 57.96 345.521 58.48C346.421 59 347.381 59.26 348.401 59.26C349.581 59.26 350.571 58.98 351.371 58.42C352.171 57.86 352.821 57.16 353.321 56.32L355.241 57.34C354.921 58.06 354.431 58.73 353.771 59.35C353.111 59.95 352.321 60.44 351.401 60.82C350.501 61.18 349.501 61.36 348.401 61.36ZM359.539 61V44.92H361.789V48.04L361.279 47.92C361.679 46.88 362.329 46.06 363.229 45.46C364.149 44.86 365.209 44.56 366.409 44.56C367.549 44.56 368.569 44.82 369.469 45.34C370.389 45.86 371.109 46.58 371.629 47.5C372.169 48.4 372.439 49.42 372.439 50.56V61H370.189V51.43C370.189 50.45 370.009 49.62 369.649 48.94C369.309 48.26 368.819 47.74 368.179 47.38C367.559 47 366.839 46.81 366.019 46.81C365.199 46.81 364.469 47 363.829 47.38C363.189 47.74 362.689 48.27 362.329 48.97C361.969 49.65 361.789 50.47 361.789 51.43V61H359.539ZM381.833 61V44.92H384.083V61H381.833ZM381.833 41.95V38.65H384.083V41.95H381.833ZM390.339 61V47.17H387.129V44.92H390.339V43.48C390.339 42.36 390.589 41.42 391.089 40.66C391.589 39.88 392.249 39.29 393.069 38.89C393.889 38.49 394.769 38.29 395.709 38.29C395.909 38.29 396.139 38.31 396.399 38.35C396.659 38.37 396.869 38.4 397.029 38.44V40.48C396.889 40.44 396.699 40.42 396.459 40.42C396.219 40.4 396.049 40.39 395.949 40.39C394.989 40.39 394.189 40.62 393.549 41.08C392.909 41.54 392.589 42.34 392.589 43.48V44.92H396.519V47.17H392.589V61H390.339ZM405.894 67.6C405.574 67.6 405.244 67.57 404.904 67.51C404.584 67.47 404.264 67.39 403.944 67.27V65.17C404.144 65.19 404.394 65.22 404.694 65.26C405.014 65.32 405.334 65.35 405.654 65.35C406.634 65.35 407.384 65.14 407.904 64.72C408.424 64.32 408.934 63.54 409.434 62.38L410.454 59.98L410.394 61.96L403.584 44.92H406.014L411.594 58.99H410.964L416.514 44.92H419.004L411.654 63.04C411.334 63.82 410.924 64.56 410.424 65.26C409.944 65.96 409.334 66.52 408.594 66.94C407.854 67.38 406.954 67.6 405.894 67.6ZM428.885 61.36C427.365 61.36 425.985 61 424.745 60.28C423.505 59.54 422.515 58.54 421.775 57.28C421.055 56 420.695 54.55 420.695 52.93C420.695 51.33 421.055 49.9 421.775 48.64C422.495 47.38 423.465 46.39 424.685 45.67C425.925 44.93 427.325 44.56 428.885 44.56C430.445 44.56 431.835 44.92 433.055 45.64C434.295 46.36 435.265 47.35 435.965 48.61C436.685 49.87 437.045 51.31 437.045 52.93C437.045 54.57 436.675 56.03 435.935 57.31C435.195 58.57 434.205 59.56 432.965 60.28C431.745 61 430.385 61.36 428.885 61.36ZM428.885 59.11C429.965 59.11 430.935 58.84 431.795 58.3C432.675 57.76 433.365 57.02 433.865 56.08C434.385 55.14 434.645 54.09 434.645 52.93C434.645 51.77 434.385 50.73 433.865 49.81C433.365 48.89 432.675 48.16 431.795 47.62C430.935 47.08 429.965 46.81 428.885 46.81C427.805 46.81 426.825 47.08 425.945 47.62C425.085 48.16 424.395 48.89 423.875 49.81C423.355 50.73 423.095 51.77 423.095 52.93C423.095 54.09 423.355 55.14 423.875 56.08C424.395 57.02 425.085 57.76 425.945 58.3C426.825 58.84 427.805 59.11 428.885 59.11ZM446.713 61.36C445.593 61.36 444.573 61.1 443.653 60.58C442.733 60.04 442.003 59.3 441.463 58.36C440.943 57.4 440.683 56.3 440.683 55.06V44.92H442.933V54.79C442.933 55.65 443.103 56.41 443.443 57.07C443.803 57.71 444.293 58.21 444.913 58.57C445.553 58.93 446.283 59.11 447.103 59.11C447.923 59.11 448.653 58.93 449.293 58.57C449.933 58.19 450.433 57.66 450.793 56.98C451.153 56.28 451.333 55.45 451.333 54.49V44.92H453.583V61H451.333V57.88L451.843 58C451.463 59.04 450.813 59.86 449.893 60.46C448.973 61.06 447.913 61.36 446.713 61.36ZM458.21 61V44.92H460.46V47.56L460.16 47.17C460.54 46.41 461.11 45.81 461.87 45.37C462.65 44.93 463.59 44.71 464.69 44.71H465.71V46.96H464.3C463.14 46.96 462.21 47.32 461.51 48.04C460.81 48.76 460.46 49.78 460.46 51.1V61H458.21ZM480.975 61.36C479.455 61.36 478.075 61 476.835 60.28C475.595 59.54 474.605 58.54 473.865 57.28C473.145 56 472.785 54.55 472.785 52.93C472.785 51.33 473.145 49.9 473.865 48.64C474.585 47.38 475.555 46.39 476.775 45.67C478.015 44.93 479.415 44.56 480.975 44.56C482.535 44.56 483.925 44.92 485.145 45.64C486.385 46.36 487.355 47.35 488.055 48.61C488.775 49.87 489.135 51.31 489.135 52.93C489.135 54.57 488.765 56.03 488.025 57.31C487.285 58.57 486.295 59.56 485.055 60.28C483.835 61 482.475 61.36 480.975 61.36ZM480.975 59.11C482.055 59.11 483.025 58.84 483.885 58.3C484.765 57.76 485.455 57.02 485.955 56.08C486.475 55.14 486.735 54.09 486.735 52.93C486.735 51.77 486.475 50.73 485.955 49.81C485.455 48.89 484.765 48.16 483.885 47.62C483.025 47.08 482.055 46.81 480.975 46.81C479.895 46.81 478.915 47.08 478.035 47.62C477.175 48.16 476.485 48.89 475.965 49.81C475.445 50.73 475.185 51.77 475.185 52.93C475.185 54.09 475.445 55.14 475.965 56.08C476.485 57.02 477.175 57.76 478.035 58.3C478.915 58.84 479.895 59.11 480.975 59.11ZM493.103 67V44.92H495.353V48.52L494.993 47.89C495.633 46.87 496.483 46.06 497.543 45.46C498.623 44.86 499.853 44.56 501.233 44.56C502.753 44.56 504.103 44.93 505.283 45.67C506.483 46.39 507.423 47.38 508.103 48.64C508.803 49.9 509.153 51.34 509.153 52.96C509.153 54.56 508.803 56 508.103 57.28C507.423 58.54 506.483 59.54 505.283 60.28C504.103 61 502.753 61.36 501.233 61.36C499.853 61.36 498.603 61.05 497.483 60.43C496.383 59.79 495.553 58.89 494.993 57.73L495.353 57.4V67H493.103ZM501.113 59.11C502.193 59.11 503.153 58.84 503.993 58.3C504.853 57.76 505.523 57.03 506.003 56.11C506.503 55.17 506.753 54.12 506.753 52.96C506.753 51.78 506.503 50.73 506.003 49.81C505.523 48.89 504.853 48.16 503.993 47.62C503.153 47.08 502.193 46.81 501.113 46.81C500.033 46.81 499.053 47.08 498.173 47.62C497.313 48.16 496.623 48.9 496.103 49.84C495.603 50.76 495.353 51.8 495.353 52.96C495.353 54.12 495.603 55.17 496.103 56.11C496.623 57.03 497.313 57.76 498.173 58.3C499.053 58.84 500.033 59.11 501.113 59.11ZM518.97 61.18C517.53 61.18 516.42 60.76 515.64 59.92C514.86 59.08 514.47 57.88 514.47 56.32V47.17H511.5V44.92H512.25C512.93 44.92 513.47 44.7 513.87 44.26C514.27 43.8 514.47 43.23 514.47 42.55V41.2H516.72V44.92H520.26V47.17H516.72V56.32C516.72 56.86 516.8 57.34 516.96 57.76C517.12 58.16 517.39 58.48 517.77 58.72C518.17 58.96 518.7 59.08 519.36 59.08C519.52 59.08 519.71 59.07 519.93 59.05C520.15 59.03 520.34 59.01 520.5 58.99V61C520.26 61.06 519.99 61.1 519.69 61.12C519.39 61.16 519.15 61.18 518.97 61.18ZM524.451 61V44.92H526.701V61H524.451ZM524.451 41.95V38.65H526.701V41.95H524.451ZM538.836 61.36C537.316 61.36 535.936 61 534.696 60.28C533.456 59.54 532.466 58.54 531.726 57.28C531.006 56 530.646 54.55 530.646 52.93C530.646 51.33 531.006 49.9 531.726 48.64C532.446 47.38 533.416 46.39 534.636 45.67C535.876 44.93 537.276 44.56 538.836 44.56C540.396 44.56 541.786 44.92 543.006 45.64C544.246 46.36 545.216 47.35 545.916 48.61C546.636 49.87 546.996 51.31 546.996 52.93C546.996 54.57 546.626 56.03 545.886 57.31C545.146 58.57 544.156 59.56 542.916 60.28C541.696 61 540.336 61.36 538.836 61.36ZM538.836 59.11C539.916 59.11 540.886 58.84 541.746 58.3C542.626 57.76 543.316 57.02 543.816 56.08C544.336 55.14 544.596 54.09 544.596 52.93C544.596 51.77 544.336 50.73 543.816 49.81C543.316 48.89 542.626 48.16 541.746 47.62C540.886 47.08 539.916 46.81 538.836 46.81C537.756 46.81 536.776 47.08 535.896 47.62C535.036 48.16 534.346 48.89 533.826 49.81C533.306 50.73 533.046 51.77 533.046 52.93C533.046 54.09 533.306 55.14 533.826 56.08C534.346 57.02 535.036 57.76 535.896 58.3C536.776 58.84 537.756 59.11 538.836 59.11ZM550.964 61V44.92H553.214V48.04L552.704 47.92C553.104 46.88 553.754 46.06 554.654 45.46C555.574 44.86 556.634 44.56 557.834 44.56C558.974 44.56 559.994 44.82 560.894 45.34C561.814 45.86 562.534 46.58 563.054 47.5C563.594 48.4 563.864 49.42 563.864 50.56V61H561.614V51.43C561.614 50.45 561.434 49.62 561.074 48.94C560.734 48.26 560.244 47.74 559.604 47.38C558.984 47 558.264 46.81 557.444 46.81C556.624 46.81 555.894 47 555.254 47.38C554.614 47.74 554.114 48.27 553.754 48.97C553.394 49.65 553.214 50.47 553.214 51.43V61H550.964ZM573.742 61.36C572.202 61.36 570.852 60.97 569.692 60.19C568.532 59.41 567.692 58.35 567.172 57.01L569.062 56.11C569.522 57.09 570.162 57.87 570.982 58.45C571.822 59.03 572.742 59.32 573.742 59.32C574.702 59.32 575.512 59.09 576.172 58.63C576.832 58.15 577.162 57.53 577.162 56.77C577.162 56.21 577.002 55.77 576.682 55.45C576.362 55.11 575.992 54.85 575.572 54.67C575.152 54.49 574.782 54.36 574.462 54.28L572.152 53.62C570.672 53.2 569.602 52.61 568.942 51.85C568.282 51.09 567.952 50.21 567.952 49.21C567.952 48.27 568.192 47.45 568.672 46.75C569.152 46.05 569.802 45.51 570.622 45.13C571.442 44.75 572.352 44.56 573.352 44.56C574.712 44.56 575.942 44.92 577.042 45.64C578.162 46.34 578.952 47.32 579.412 48.58L577.492 49.48C577.092 48.58 576.512 47.88 575.752 47.38C575.012 46.86 574.182 46.6 573.262 46.6C572.362 46.6 571.642 46.83 571.102 47.29C570.562 47.75 570.292 48.33 570.292 49.03C570.292 49.57 570.432 50 570.712 50.32C570.992 50.64 571.312 50.88 571.672 51.04C572.052 51.2 572.382 51.32 572.662 51.4L575.332 52.18C576.632 52.56 577.642 53.15 578.362 53.95C579.102 54.75 579.472 55.69 579.472 56.77C579.472 57.65 579.222 58.44 578.722 59.14C578.242 59.84 577.572 60.39 576.712 60.79C575.852 61.17 574.862 61.36 573.742 61.36ZM593.173 61.36C592.153 61.36 591.243 61.17 590.443 60.79C589.643 60.39 589.013 59.85 588.553 59.17C588.093 58.49 587.863 57.71 587.863 56.83C587.863 55.99 588.043 55.23 588.403 54.55C588.763 53.85 589.323 53.26 590.083 52.78C590.843 52.3 591.813 51.96 592.993 51.76L599.293 50.71V52.75L593.533 53.71C592.373 53.91 591.533 54.28 591.013 54.82C590.513 55.36 590.263 56 590.263 56.74C590.263 57.46 590.543 58.07 591.103 58.57C591.683 59.07 592.423 59.32 593.323 59.32C594.423 59.32 595.383 59.09 596.203 58.63C597.023 58.15 597.663 57.51 598.123 56.71C598.583 55.91 598.813 55.02 598.813 54.04V49.96C598.813 49 598.463 48.22 597.763 47.62C597.063 47.02 596.153 46.72 595.033 46.72C594.053 46.72 593.193 46.97 592.453 47.47C591.713 47.95 591.163 48.58 590.803 49.36L588.763 48.25C589.063 47.57 589.533 46.95 590.173 46.39C590.833 45.83 591.583 45.39 592.423 45.07C593.263 44.73 594.133 44.56 595.033 44.56C596.213 44.56 597.253 44.79 598.153 45.25C599.073 45.71 599.783 46.35 600.283 47.17C600.803 47.97 601.063 48.9 601.063 49.96V61H598.813V57.79L599.143 58.12C598.863 58.72 598.423 59.27 597.823 59.77C597.243 60.25 596.553 60.64 595.753 60.94C594.973 61.22 594.113 61.36 593.173 61.36ZM605.691 61V44.92H607.941V47.56L607.641 47.17C608.021 46.41 608.591 45.81 609.351 45.37C610.131 44.93 611.071 44.71 612.171 44.71H613.191V46.96H611.781C610.621 46.96 609.691 47.32 608.991 48.04C608.291 48.76 607.941 49.78 607.941 51.1V61H605.691ZM623.148 61.36C621.648 61.36 620.288 61 619.068 60.28C617.868 59.54 616.918 58.53 616.218 57.25C615.518 55.97 615.168 54.52 615.168 52.9C615.168 51.28 615.508 49.85 616.188 48.61C616.868 47.35 617.788 46.36 618.948 45.64C620.128 44.92 621.448 44.56 622.908 44.56C624.068 44.56 625.098 44.78 625.998 45.22C626.918 45.64 627.698 46.22 628.338 46.96C628.978 47.68 629.468 48.5 629.808 49.42C630.148 50.32 630.318 51.25 630.318 52.21C630.318 52.41 630.308 52.64 630.288 52.9C630.268 53.14 630.238 53.39 630.198 53.65H616.608V51.55H628.908L627.828 52.45C628.008 51.35 627.878 50.37 627.438 49.51C627.018 48.63 626.408 47.94 625.608 47.44C624.808 46.92 623.908 46.66 622.908 46.66C621.908 46.66 620.978 46.92 620.118 47.44C619.278 47.96 618.618 48.69 618.138 49.63C617.658 50.55 617.468 51.65 617.568 52.93C617.468 54.21 617.668 55.33 618.168 56.29C618.688 57.23 619.388 57.96 620.268 58.48C621.168 59 622.128 59.26 623.148 59.26C624.328 59.26 625.318 58.98 626.118 58.42C626.918 57.86 627.568 57.16 628.068 56.32L629.988 57.34C629.668 58.06 629.178 58.73 628.518 59.35C627.858 59.95 627.068 60.44 626.148 60.82C625.248 61.18 624.248 61.36 623.148 61.36ZM639.382 61V38.29H641.632V61H639.382ZM646.238 61V44.92H648.488V61H646.238ZM646.238 41.95V38.65H648.488V41.95H646.238ZM653.093 61V44.92H655.343V47.98L654.983 47.53C655.423 46.59 656.073 45.86 656.933 45.34C657.813 44.82 658.773 44.56 659.813 44.56C661.053 44.56 662.173 44.91 663.173 45.61C664.173 46.31 664.883 47.22 665.303 48.34L664.673 48.37C665.073 47.13 665.763 46.19 666.743 45.55C667.743 44.89 668.843 44.56 670.043 44.56C671.123 44.56 672.113 44.82 673.013 45.34C673.933 45.86 674.663 46.58 675.203 47.5C675.763 48.4 676.043 49.42 676.043 50.56V61H673.793V51.43C673.793 50.45 673.613 49.62 673.253 48.94C672.913 48.26 672.443 47.74 671.843 47.38C671.243 47 670.553 46.81 669.773 46.81C669.013 46.81 668.323 47 667.703 47.38C667.083 47.74 666.593 48.27 666.233 48.97C665.873 49.65 665.693 50.47 665.693 51.43V61H663.443V51.43C663.443 50.45 663.263 49.62 662.903 48.94C662.563 48.26 662.093 47.74 661.493 47.38C660.893 47 660.203 46.81 659.423 46.81C658.643 46.81 657.943 47 657.323 47.38C656.723 47.74 656.243 48.27 655.883 48.97C655.523 49.65 655.343 50.47 655.343 51.43V61H653.093ZM680.339 61V44.92H682.589V61H680.339ZM680.339 41.95V38.65H682.589V41.95H680.339ZM693.345 61.18C691.905 61.18 690.795 60.76 690.015 59.92C689.235 59.08 688.845 57.88 688.845 56.32V47.17H685.875V44.92H686.625C687.305 44.92 687.845 44.7 688.245 44.26C688.645 43.8 688.845 43.23 688.845 42.55V41.2H691.095V44.92H694.635V47.17H691.095V56.32C691.095 56.86 691.175 57.34 691.335 57.76C691.495 58.16 691.765 58.48 692.145 58.72C692.545 58.96 693.075 59.08 693.735 59.08C693.895 59.08 694.085 59.07 694.305 59.05C694.525 59.03 694.715 59.01 694.875 58.99V61C694.635 61.06 694.365 61.1 694.065 61.12C693.765 61.16 693.525 61.18 693.345 61.18ZM705.56 61.36C704.06 61.36 702.7 61 701.48 60.28C700.28 59.54 699.33 58.53 698.63 57.25C697.93 55.97 697.58 54.52 697.58 52.9C697.58 51.28 697.92 49.85 698.6 48.61C699.28 47.35 700.2 46.36 701.36 45.64C702.54 44.92 703.86 44.56 705.32 44.56C706.48 44.56 707.51 44.78 708.41 45.22C709.33 45.64 710.11 46.22 710.75 46.96C711.39 47.68 711.88 48.5 712.22 49.42C712.56 50.32 712.73 51.25 712.73 52.21C712.73 52.41 712.72 52.64 712.7 52.9C712.68 53.14 712.65 53.39 712.61 53.65H699.02V51.55H711.32L710.24 52.45C710.42 51.35 710.29 50.37 709.85 49.51C709.43 48.63 708.82 47.94 708.02 47.44C707.22 46.92 706.32 46.66 705.32 46.66C704.32 46.66 703.39 46.92 702.53 47.44C701.69 47.96 701.03 48.69 700.55 49.63C700.07 50.55 699.88 51.65 699.98 52.93C699.88 54.21 700.08 55.33 700.58 56.29C701.1 57.23 701.8 57.96 702.68 58.48C703.58 59 704.54 59.26 705.56 59.26C706.74 59.26 707.73 58.98 708.53 58.42C709.33 57.86 709.98 57.16 710.48 56.32L712.4 57.34C712.08 58.06 711.59 58.73 710.93 59.35C710.27 59.95 709.48 60.44 708.56 60.82C707.66 61.18 706.66 61.36 705.56 61.36ZM723.957 61.36C722.457 61.36 721.107 61 719.907 60.28C718.707 59.54 717.757 58.54 717.057 57.28C716.377 56 716.037 54.56 716.037 52.96C716.037 51.34 716.377 49.9 717.057 48.64C717.757 47.38 718.697 46.39 719.877 45.67C721.077 44.93 722.437 44.56 723.957 44.56C725.337 44.56 726.567 44.86 727.647 45.46C728.727 46.06 729.577 46.87 730.197 47.89L729.837 48.52V38.29H732.087V61H729.837V57.4L730.197 57.73C729.637 58.89 728.797 59.79 727.677 60.43C726.577 61.05 725.337 61.36 723.957 61.36ZM724.077 59.11C725.157 59.11 726.127 58.84 726.987 58.3C727.867 57.76 728.557 57.03 729.057 56.11C729.577 55.17 729.837 54.12 729.837 52.96C729.837 51.8 729.577 50.76 729.057 49.84C728.557 48.9 727.867 48.16 726.987 47.62C726.127 47.08 725.157 46.81 724.077 46.81C723.017 46.81 722.057 47.08 721.197 47.62C720.337 48.16 719.657 48.89 719.157 49.81C718.677 50.73 718.437 51.78 718.437 52.96C718.437 54.12 718.677 55.17 719.157 56.11C719.657 57.03 720.327 57.76 721.167 58.3C722.027 58.84 722.997 59.11 724.077 59.11ZM737.486 61V57.7H739.886V61H737.486Z" fill="white"/>
<path d="M206.881 23V4.13H202.561V0.649998H210.961V23H206.881ZM224.411 23.36C222.631 23.36 221.071 22.88 219.731 21.92C218.391 20.96 217.341 19.61 216.581 17.87C215.841 16.13 215.471 14.11 215.471 11.81C215.471 9.49 215.841 7.47 216.581 5.75C217.321 4.03 218.361 2.69 219.701 1.73C221.041 0.769999 222.601 0.289999 224.381 0.289999C226.201 0.289999 227.771 0.769999 229.091 1.73C230.431 2.69 231.481 4.04 232.241 5.78C233.001 7.5 233.381 9.51 233.381 11.81C233.381 14.11 233.001 16.13 232.241 17.87C231.501 19.59 230.461 20.94 229.121 21.92C227.781 22.88 226.211 23.36 224.411 23.36ZM224.441 19.64C225.461 19.64 226.331 19.33 227.051 18.71C227.771 18.07 228.321 17.17 228.701 16.01C229.101 14.83 229.301 13.43 229.301 11.81C229.301 10.19 229.101 8.8 228.701 7.64C228.321 6.46 227.761 5.56 227.021 4.94C226.301 4.32 225.421 4.01 224.381 4.01C223.381 4.01 222.521 4.32 221.801 4.94C221.081 5.56 220.521 6.46 220.121 7.64C219.741 8.8 219.551 10.19 219.551 11.81C219.551 13.41 219.741 14.8 220.121 15.98C220.521 17.14 221.081 18.04 221.801 18.68C222.541 19.32 223.421 19.64 224.441 19.64ZM235.361 23L242.681 11.75L235.421 0.649998H240.101L246.041 9.74H243.881L249.791 0.649998H254.471L247.241 11.75L254.531 23H249.851L243.881 13.79H246.041L240.041 23H235.361ZM264.007 29.63C263.567 29.63 263.137 29.59 262.717 29.51C262.297 29.45 261.917 29.34 261.577 29.18V25.88C261.837 25.94 262.147 26 262.507 26.06C262.887 26.12 263.237 26.15 263.557 26.15C264.457 26.15 265.107 25.94 265.507 25.52C265.927 25.1 266.297 24.55 266.617 23.87L267.697 21.35L267.637 24.65L260.527 6.68H264.757L269.737 19.94H268.237L273.187 6.68H277.447L270.337 24.65C269.917 25.71 269.407 26.61 268.807 27.35C268.207 28.09 267.507 28.65 266.707 29.03C265.927 29.43 265.027 29.63 264.007 29.63ZM287.292 23.36C285.692 23.36 284.232 22.99 282.912 22.25C281.612 21.51 280.572 20.5 279.792 19.22C279.032 17.94 278.652 16.48 278.652 14.84C278.652 13.2 279.032 11.74 279.792 10.46C280.572 9.18 281.612 8.17 282.912 7.43C284.212 6.69 285.672 6.32 287.292 6.32C288.892 6.32 290.342 6.69 291.642 7.43C292.942 8.17 293.972 9.18 294.732 10.46C295.512 11.72 295.902 13.18 295.902 14.84C295.902 16.48 295.512 17.94 294.732 19.22C293.952 20.5 292.912 21.51 291.612 22.25C290.312 22.99 288.872 23.36 287.292 23.36ZM287.292 19.76C288.172 19.76 288.942 19.55 289.602 19.13C290.282 18.71 290.812 18.13 291.192 17.39C291.592 16.63 291.792 15.78 291.792 14.84C291.792 13.88 291.592 13.04 291.192 12.32C290.812 11.58 290.282 11 289.602 10.58C288.942 10.14 288.172 9.92 287.292 9.92C286.392 9.92 285.602 10.14 284.922 10.58C284.242 11 283.702 11.58 283.302 12.32C282.922 13.04 282.732 13.88 282.732 14.84C282.732 15.78 282.922 16.63 283.302 17.39C283.702 18.13 284.242 18.71 284.922 19.13C285.602 19.55 286.392 19.76 287.292 19.76ZM304.703 23.36C303.443 23.36 302.343 23.08 301.403 22.52C300.483 21.96 299.773 21.18 299.273 20.18C298.793 19.18 298.553 18.01 298.553 16.67V6.68H302.483V16.34C302.483 17.02 302.613 17.62 302.873 18.14C303.153 18.64 303.543 19.04 304.043 19.34C304.563 19.62 305.143 19.76 305.783 19.76C306.423 19.76 306.993 19.62 307.493 19.34C307.993 19.04 308.383 18.63 308.663 18.11C308.943 17.59 309.083 16.97 309.083 16.25V6.68H313.013V23H309.293V19.79L309.623 20.36C309.243 21.36 308.613 22.11 307.733 22.61C306.873 23.11 305.863 23.36 304.703 23.36ZM316.666 23V6.68H320.356V10.31L320.056 9.77C320.436 8.55 321.026 7.7 321.826 7.22C322.646 6.74 323.626 6.5 324.766 6.5H325.726V9.98H324.316C323.196 9.98 322.296 10.33 321.616 11.03C320.936 11.71 320.596 12.67 320.596 13.91V23H316.666ZM342.129 23.36C340.949 23.36 339.859 23.13 338.859 22.67C337.879 22.19 337.099 21.51 336.519 20.63L336.909 19.85V23H333.219V0.289999H337.149V9.92L336.549 9.11C337.109 8.23 337.869 7.55 338.829 7.07C339.789 6.57 340.899 6.32 342.159 6.32C343.699 6.32 345.089 6.7 346.329 7.46C347.569 8.22 348.549 9.24 349.269 10.52C350.009 11.8 350.379 13.24 350.379 14.84C350.379 16.42 350.019 17.86 349.299 19.16C348.579 20.46 347.599 21.49 346.359 22.25C345.119 22.99 343.709 23.36 342.129 23.36ZM341.679 19.76C342.579 19.76 343.379 19.55 344.079 19.13C344.779 18.71 345.319 18.13 345.699 17.39C346.099 16.65 346.299 15.8 346.299 14.84C346.299 13.88 346.099 13.04 345.699 12.32C345.319 11.58 344.779 11 344.079 10.58C343.379 10.14 342.579 9.92 341.679 9.92C340.819 9.92 340.039 10.13 339.339 10.55C338.659 10.97 338.119 11.56 337.719 12.32C337.339 13.06 337.149 13.9 337.149 14.84C337.149 15.8 337.339 16.65 337.719 17.39C338.119 18.13 338.659 18.71 339.339 19.13C340.039 19.55 340.819 19.76 341.679 19.76ZM359.195 23.36C357.935 23.36 356.835 23.08 355.895 22.52C354.975 21.96 354.265 21.18 353.765 20.18C353.285 19.18 353.045 18.01 353.045 16.67V6.68H356.975V16.34C356.975 17.02 357.105 17.62 357.365 18.14C357.645 18.64 358.035 19.04 358.535 19.34C359.055 19.62 359.635 19.76 360.275 19.76C360.915 19.76 361.485 19.62 361.985 19.34C362.485 19.04 362.875 18.63 363.155 18.11C363.435 17.59 363.575 16.97 363.575 16.25V6.68H367.505V23H363.785V19.79L364.115 20.36C363.735 21.36 363.105 22.11 362.225 22.61C361.365 23.11 360.355 23.36 359.195 23.36ZM377.368 23.36C375.628 23.36 374.108 22.95 372.808 22.13C371.528 21.29 370.648 20.16 370.168 18.74L373.108 17.33C373.528 18.25 374.108 18.97 374.848 19.49C375.608 20.01 376.448 20.27 377.368 20.27C378.088 20.27 378.658 20.11 379.078 19.79C379.498 19.47 379.708 19.05 379.708 18.53C379.708 18.21 379.618 17.95 379.438 17.75C379.278 17.53 379.048 17.35 378.748 17.21C378.468 17.05 378.158 16.92 377.818 16.82L375.148 16.07C373.768 15.67 372.718 15.06 371.998 14.24C371.298 13.42 370.948 12.45 370.948 11.33C370.948 10.33 371.198 9.46 371.698 8.72C372.218 7.96 372.928 7.37 373.828 6.95C374.748 6.53 375.798 6.32 376.978 6.32C378.518 6.32 379.878 6.69 381.058 7.43C382.238 8.17 383.078 9.21 383.578 10.55L380.578 11.96C380.298 11.22 379.828 10.63 379.168 10.19C378.508 9.75 377.768 9.53 376.948 9.53C376.288 9.53 375.768 9.68 375.388 9.98C375.008 10.28 374.818 10.67 374.818 11.15C374.818 11.45 374.898 11.71 375.058 11.93C375.218 12.15 375.438 12.33 375.718 12.47C376.018 12.61 376.358 12.74 376.738 12.86L379.348 13.64C380.688 14.04 381.718 14.64 382.438 15.44C383.178 16.24 383.548 17.22 383.548 18.38C383.548 19.36 383.288 20.23 382.768 20.99C382.248 21.73 381.528 22.31 380.608 22.73C379.688 23.15 378.608 23.36 377.368 23.36ZM386.568 23V6.68H390.498V23H386.568ZM386.568 4.85V0.649998H390.498V4.85H386.568ZM394.127 23V6.68H397.817V9.89L397.517 9.32C397.897 8.34 398.517 7.6 399.377 7.1C400.257 6.58 401.277 6.32 402.437 6.32C403.637 6.32 404.697 6.58 405.617 7.1C406.557 7.62 407.287 8.35 407.807 9.29C408.327 10.21 408.587 11.28 408.587 12.5V23H404.657V13.43C404.657 12.71 404.517 12.09 404.237 11.57C403.957 11.05 403.567 10.65 403.067 10.37C402.587 10.07 402.017 9.92 401.357 9.92C400.717 9.92 400.147 10.07 399.647 10.37C399.147 10.65 398.757 11.05 398.477 11.57C398.197 12.09 398.057 12.71 398.057 13.43V23H394.127ZM419.65 23.36C417.97 23.36 416.5 22.98 415.24 22.22C413.98 21.46 413 20.43 412.3 19.13C411.6 17.83 411.25 16.39 411.25 14.81C411.25 13.17 411.6 11.72 412.3 10.46C413.02 9.18 413.99 8.17 415.21 7.43C416.45 6.69 417.83 6.32 419.35 6.32C420.63 6.32 421.75 6.53 422.71 6.95C423.69 7.37 424.52 7.95 425.2 8.69C425.88 9.43 426.4 10.28 426.76 11.24C427.12 12.18 427.3 13.2 427.3 14.3C427.3 14.58 427.28 14.87 427.24 15.17C427.22 15.47 427.17 15.73 427.09 15.95H414.49V12.95H424.87L423.01 14.36C423.19 13.44 423.14 12.62 422.86 11.9C422.6 11.18 422.16 10.61 421.54 10.19C420.94 9.77 420.21 9.56 419.35 9.56C418.53 9.56 417.8 9.77 417.16 10.19C416.52 10.59 416.03 11.19 415.69 11.99C415.37 12.77 415.25 13.72 415.33 14.84C415.25 15.84 415.38 16.73 415.72 17.51C416.08 18.27 416.6 18.86 417.28 19.28C417.98 19.7 418.78 19.91 419.68 19.91C420.58 19.91 421.34 19.72 421.96 19.34C422.6 18.96 423.1 18.45 423.46 17.81L426.64 19.37C426.32 20.15 425.82 20.84 425.14 21.44C424.46 22.04 423.65 22.51 422.71 22.85C421.79 23.19 420.77 23.36 419.65 23.36ZM436.489 23.36C434.749 23.36 433.229 22.95 431.929 22.13C430.649 21.29 429.769 20.16 429.289 18.74L432.229 17.33C432.649 18.25 433.229 18.97 433.969 19.49C434.729 20.01 435.569 20.27 436.489 20.27C437.209 20.27 437.779 20.11 438.199 19.79C438.619 19.47 438.829 19.05 438.829 18.53C438.829 18.21 438.739 17.95 438.559 17.75C438.399 17.53 438.169 17.35 437.869 17.21C437.589 17.05 437.279 16.92 436.939 16.82L434.269 16.07C432.889 15.67 431.839 15.06 431.119 14.24C430.419 13.42 430.069 12.45 430.069 11.33C430.069 10.33 430.319 9.46 430.819 8.72C431.339 7.96 432.049 7.37 432.949 6.95C433.869 6.53 434.919 6.32 436.099 6.32C437.639 6.32 438.999 6.69 440.179 7.43C441.359 8.17 442.199 9.21 442.699 10.55L439.699 11.96C439.419 11.22 438.949 10.63 438.289 10.19C437.629 9.75 436.889 9.53 436.069 9.53C435.409 9.53 434.889 9.68 434.509 9.98C434.129 10.28 433.939 10.67 433.939 11.15C433.939 11.45 434.019 11.71 434.179 11.93C434.339 12.15 434.559 12.33 434.839 12.47C435.139 12.61 435.479 12.74 435.859 12.86L438.469 13.64C439.809 14.04 440.839 14.64 441.559 15.44C442.299 16.24 442.669 17.22 442.669 18.38C442.669 19.36 442.409 20.23 441.889 20.99C441.369 21.73 440.649 22.31 439.729 22.73C438.809 23.15 437.729 23.36 436.489 23.36ZM451.899 23.36C450.159 23.36 448.639 22.95 447.339 22.13C446.059 21.29 445.179 20.16 444.699 18.74L447.639 17.33C448.059 18.25 448.639 18.97 449.379 19.49C450.139 20.01 450.979 20.27 451.899 20.27C452.619 20.27 453.189 20.11 453.609 19.79C454.029 19.47 454.239 19.05 454.239 18.53C454.239 18.21 454.149 17.95 453.969 17.75C453.809 17.53 453.579 17.35 453.279 17.21C452.999 17.05 452.689 16.92 452.349 16.82L449.679 16.07C448.299 15.67 447.249 15.06 446.529 14.24C445.829 13.42 445.479 12.45 445.479 11.33C445.479 10.33 445.729 9.46 446.229 8.72C446.749 7.96 447.459 7.37 448.359 6.95C449.279 6.53 450.329 6.32 451.509 6.32C453.049 6.32 454.409 6.69 455.589 7.43C456.769 8.17 457.609 9.21 458.109 10.55L455.109 11.96C454.829 11.22 454.359 10.63 453.699 10.19C453.039 9.75 452.299 9.53 451.479 9.53C450.819 9.53 450.299 9.68 449.919 9.98C449.539 10.28 449.349 10.67 449.349 11.15C449.349 11.45 449.429 11.71 449.589 11.93C449.749 12.15 449.969 12.33 450.249 12.47C450.549 12.61 450.889 12.74 451.269 12.86L453.879 13.64C455.219 14.04 456.249 14.64 456.969 15.44C457.709 16.24 458.079 17.22 458.079 18.38C458.079 19.36 457.819 20.23 457.299 20.99C456.779 21.73 456.059 22.31 455.139 22.73C454.219 23.15 453.139 23.36 451.899 23.36Z" fill="#82C4D9"/>
</svg>
