<svg width="578" height="68" viewBox="0 0 578 68" fill="none" xmlns="http://www.w3.org/2000/svg">
<path d="M12.765 23V0.649998H15.165V10.7H27.165V0.649998H29.565V23H27.165V12.95H15.165V23H12.765ZM41.8448 23.36C40.3448 23.36 38.9848 23 37.7648 22.28C36.5648 21.54 35.6148 20.53 34.9148 19.25C34.2148 17.97 33.8648 16.52 33.8648 14.9C33.8648 13.28 34.2048 11.85 34.8848 10.61C35.5648 9.35 36.4848 8.36 37.6448 7.64C38.8248 6.92 40.1448 6.56 41.6048 6.56C42.7648 6.56 43.7948 6.78 44.6948 7.22C45.6148 7.64 46.3948 8.22 47.0348 8.96C47.6748 9.68 48.1648 10.5 48.5048 11.42C48.8448 12.32 49.0148 13.25 49.0148 14.21C49.0148 14.41 49.0048 14.64 48.9848 14.9C48.9648 15.14 48.9348 15.39 48.8948 15.65H35.3048V13.55H47.6048L46.5248 14.45C46.7048 13.35 46.5748 12.37 46.1348 11.51C45.7148 10.63 45.1048 9.94 44.3048 9.44C43.5048 8.92 42.6048 8.66 41.6048 8.66C40.6048 8.66 39.6748 8.92 38.8148 9.44C37.9748 9.96 37.3148 10.69 36.8348 11.63C36.3548 12.55 36.1648 13.65 36.2648 14.93C36.1648 16.21 36.3648 17.33 36.8648 18.29C37.3848 19.23 38.0848 19.96 38.9648 20.48C39.8648 21 40.8248 21.26 41.8448 21.26C43.0248 21.26 44.0148 20.98 44.8148 20.42C45.6148 19.86 46.2648 19.16 46.7648 18.32L48.6848 19.34C48.3648 20.06 47.8748 20.73 47.2148 21.35C46.5548 21.95 45.7648 22.44 44.8448 22.82C43.9448 23.18 42.9448 23.36 41.8448 23.36ZM52.9819 23V6.92H55.2319V9.56L54.9319 9.17C55.3119 8.41 55.8819 7.81 56.6419 7.37C57.4219 6.93 58.3619 6.71 59.4619 6.71H60.4819V8.96H59.0719C57.9119 8.96 56.9819 9.32 56.2819 10.04C55.5819 10.76 55.2319 11.78 55.2319 13.1V23H52.9819ZM70.4386 23.36C68.9386 23.36 67.5786 23 66.3586 22.28C65.1586 21.54 64.2086 20.53 63.5086 19.25C62.8086 17.97 62.4586 16.52 62.4586 14.9C62.4586 13.28 62.7986 11.85 63.4786 10.61C64.1586 9.35 65.0786 8.36 66.2386 7.64C67.4186 6.92 68.7386 6.56 70.1986 6.56C71.3586 6.56 72.3886 6.78 73.2886 7.22C74.2086 7.64 74.9886 8.22 75.6286 8.96C76.2686 9.68 76.7586 10.5 77.0986 11.42C77.4386 12.32 77.6086 13.25 77.6086 14.21C77.6086 14.41 77.5986 14.64 77.5786 14.9C77.5586 15.14 77.5286 15.39 77.4886 15.65H63.8986V13.55H76.1986L75.1186 14.45C75.2986 13.35 75.1686 12.37 74.7286 11.51C74.3086 10.63 73.6986 9.94 72.8986 9.44C72.0986 8.92 71.1986 8.66 70.1986 8.66C69.1986 8.66 68.2686 8.92 67.4086 9.44C66.5686 9.96 65.9086 10.69 65.4286 11.63C64.9486 12.55 64.7586 13.65 64.8586 14.93C64.7586 16.21 64.9586 17.33 65.4586 18.29C65.9786 19.23 66.6786 19.96 67.5586 20.48C68.4586 21 69.4186 21.26 70.4386 21.26C71.6186 21.26 72.6086 20.98 73.4086 20.42C74.2086 19.86 74.8586 19.16 75.3586 18.32L77.2786 19.34C76.9586 20.06 76.4686 20.73 75.8086 21.35C75.1486 21.95 74.3586 22.44 73.4386 22.82C72.5386 23.18 71.5386 23.36 70.4386 23.36ZM81.6656 7.55V6.5C82.2656 6.34 82.6956 6.05 82.9556 5.63C83.2356 5.19 83.3856 4.63 83.4056 3.95H82.2656V0.649998H84.6656V3.17C84.6656 4.33 84.4156 5.29 83.9156 6.05C83.4156 6.81 82.6656 7.31 81.6656 7.55ZM95.2416 23.36C93.7016 23.36 92.3516 22.97 91.1916 22.19C90.0316 21.41 89.1916 20.35 88.6716 19.01L90.5616 18.11C91.0216 19.09 91.6616 19.87 92.4816 20.45C93.3216 21.03 94.2416 21.32 95.2416 21.32C96.2016 21.32 97.0116 21.09 97.6716 20.63C98.3316 20.15 98.6616 19.53 98.6616 18.77C98.6616 18.21 98.5016 17.77 98.1816 17.45C97.8616 17.11 97.4916 16.85 97.0716 16.67C96.6516 16.49 96.2816 16.36 95.9616 16.28L93.6516 15.62C92.1716 15.2 91.1016 14.61 90.4416 13.85C89.7816 13.09 89.4516 12.21 89.4516 11.21C89.4516 10.27 89.6916 9.45 90.1716 8.75C90.6516 8.05 91.3016 7.51 92.1216 7.13C92.9416 6.75 93.8516 6.56 94.8516 6.56C96.2116 6.56 97.4416 6.92 98.5416 7.64C99.6616 8.34 100.452 9.32 100.912 10.58L98.9916 11.48C98.5916 10.58 98.0116 9.88 97.2516 9.38C96.5116 8.86 95.6816 8.6 94.7616 8.6C93.8616 8.6 93.1416 8.83 92.6016 9.29C92.0616 9.75 91.7916 10.33 91.7916 11.03C91.7916 11.57 91.9316 12 92.2116 12.32C92.4916 12.64 92.8116 12.88 93.1716 13.04C93.5516 13.2 93.8816 13.32 94.1616 13.4L96.8316 14.18C98.1316 14.56 99.1416 15.15 99.8616 15.95C100.602 16.75 100.972 17.69 100.972 18.77C100.972 19.65 100.722 20.44 100.222 21.14C99.7416 21.84 99.0716 22.39 98.2116 22.79C97.3516 23.17 96.3616 23.36 95.2416 23.36ZM110.023 23V0.289999H112.273V10.04L111.763 9.92C112.163 8.88 112.813 8.06 113.713 7.46C114.633 6.86 115.693 6.56 116.893 6.56C118.033 6.56 119.053 6.82 119.953 7.34C120.873 7.86 121.593 8.58 122.113 9.5C122.653 10.4 122.923 11.42 122.923 12.56V23H120.673V13.43C120.673 12.45 120.493 11.62 120.133 10.94C119.773 10.26 119.273 9.74 118.633 9.38C118.013 9 117.303 8.81 116.503 8.81C115.703 8.81 114.983 9 114.343 9.38C113.703 9.74 113.193 10.27 112.813 10.97C112.453 11.65 112.273 12.47 112.273 13.43V23H110.023ZM134.75 23.36C133.23 23.36 131.85 23 130.61 22.28C129.37 21.54 128.38 20.54 127.64 19.28C126.92 18 126.56 16.55 126.56 14.93C126.56 13.33 126.92 11.9 127.64 10.64C128.36 9.38 129.33 8.39 130.55 7.67C131.79 6.93 133.19 6.56 134.75 6.56C136.31 6.56 137.7 6.92 138.92 7.64C140.16 8.36 141.13 9.35 141.83 10.61C142.55 11.87 142.91 13.31 142.91 14.93C142.91 16.57 142.54 18.03 141.8 19.31C141.06 20.57 140.07 21.56 138.83 22.28C137.61 23 136.25 23.36 134.75 23.36ZM134.75 21.11C135.83 21.11 136.8 20.84 137.66 20.3C138.54 19.76 139.23 19.02 139.73 18.08C140.25 17.14 140.51 16.09 140.51 14.93C140.51 13.77 140.25 12.73 139.73 11.81C139.23 10.89 138.54 10.16 137.66 9.62C136.8 9.08 135.83 8.81 134.75 8.81C133.67 8.81 132.69 9.08 131.81 9.62C130.95 10.16 130.26 10.89 129.74 11.81C129.22 12.73 128.96 13.77 128.96 14.93C128.96 16.09 129.22 17.14 129.74 18.08C130.26 19.02 130.95 19.76 131.81 20.3C132.69 20.84 133.67 21.11 134.75 21.11ZM150.125 23L144.605 6.92H147.155L151.715 20.99H150.815L155.105 6.92H157.355L161.645 20.99H160.745L165.335 6.92H167.855L162.335 23H160.085L155.915 9.23H156.545L152.375 23H150.125ZM181.739 23.18C180.299 23.18 179.189 22.76 178.409 21.92C177.629 21.08 177.239 19.88 177.239 18.32V9.17H174.269V6.92H175.019C175.699 6.92 176.239 6.7 176.639 6.26C177.039 5.8 177.239 5.23 177.239 4.55V3.2H179.489V6.92H183.029V9.17H179.489V18.32C179.489 18.86 179.569 19.34 179.729 19.76C179.889 20.16 180.159 20.48 180.539 20.72C180.939 20.96 181.469 21.08 182.129 21.08C182.289 21.08 182.479 21.07 182.699 21.05C182.919 21.03 183.109 21.01 183.269 20.99V23C183.029 23.06 182.759 23.1 182.459 23.12C182.159 23.16 181.919 23.18 181.739 23.18ZM194.164 23.36C192.644 23.36 191.264 23 190.024 22.28C188.784 21.54 187.794 20.54 187.054 19.28C186.334 18 185.974 16.55 185.974 14.93C185.974 13.33 186.334 11.9 187.054 10.64C187.774 9.38 188.744 8.39 189.964 7.67C191.204 6.93 192.604 6.56 194.164 6.56C195.724 6.56 197.114 6.92 198.334 7.64C199.574 8.36 200.544 9.35 201.244 10.61C201.964 11.87 202.324 13.31 202.324 14.93C202.324 16.57 201.954 18.03 201.214 19.31C200.474 20.57 199.484 21.56 198.244 22.28C197.024 23 195.664 23.36 194.164 23.36ZM194.164 21.11C195.244 21.11 196.214 20.84 197.074 20.3C197.954 19.76 198.644 19.02 199.144 18.08C199.664 17.14 199.924 16.09 199.924 14.93C199.924 13.77 199.664 12.73 199.144 11.81C198.644 10.89 197.954 10.16 197.074 9.62C196.214 9.08 195.244 8.81 194.164 8.81C193.084 8.81 192.104 9.08 191.224 9.62C190.364 10.16 189.674 10.89 189.154 11.81C188.634 12.73 188.374 13.77 188.374 14.93C188.374 16.09 188.634 17.14 189.154 18.08C189.674 19.02 190.364 19.76 191.224 20.3C192.104 20.84 193.084 21.11 194.164 21.11ZM0.921328 61V44.92H3.17133V61H0.921328ZM0.921328 41.95V38.65H3.17133V41.95H0.921328ZM7.7768 61V44.92H10.0268V48.04L9.5168 47.92C9.9168 46.88 10.5668 46.06 11.4668 45.46C12.3868 44.86 13.4468 44.56 14.6468 44.56C15.7868 44.56 16.8068 44.82 17.7068 45.34C18.6268 45.86 19.3468 46.58 19.8668 47.5C20.4068 48.4 20.6768 49.42 20.6768 50.56V61H18.4268V51.43C18.4268 50.45 18.2468 49.62 17.8868 48.94C17.5468 48.26 17.0568 47.74 16.4168 47.38C15.7968 47 15.0768 46.81 14.2568 46.81C13.4368 46.81 12.7068 47 12.0668 47.38C11.4268 47.74 10.9268 48.27 10.5668 48.97C10.2068 49.65 10.0268 50.47 10.0268 51.43V61H7.7768ZM36.5817 61.36C35.4217 61.36 34.3517 61.16 33.3717 60.76C32.3917 60.36 31.5317 59.79 30.7917 59.05C30.0717 58.31 29.5217 57.43 29.1417 56.41L31.0617 55.51C31.5217 56.67 32.2417 57.59 33.2217 58.27C34.2017 58.93 35.3217 59.26 36.5817 59.26C37.5817 59.26 38.4717 59.07 39.2517 58.69C40.0317 58.29 40.6417 57.72 41.0817 56.98C41.5217 56.24 41.7417 55.34 41.7417 54.28C41.7417 53.22 41.5117 52.32 41.0517 51.58C40.6117 50.84 40.0017 50.28 39.2217 49.9C38.4417 49.52 37.5517 49.33 36.5517 49.33C36.2917 49.33 36.0017 49.34 35.6817 49.36C35.3817 49.38 35.1317 49.41 34.9317 49.45L34.4517 48.4L40.4817 40.75H30.1917V38.65H43.1817V40.75L37.5417 47.86L37.2417 47.47C38.5817 47.51 39.7717 47.83 40.8117 48.43C41.8517 49.01 42.6617 49.8 43.2417 50.8C43.8417 51.8 44.1417 52.96 44.1417 54.28C44.1417 55.6 43.8217 56.8 43.1817 57.88C42.5417 58.94 41.6517 59.79 40.5117 60.43C39.3717 61.05 38.0617 61.36 36.5817 61.36ZM53.4506 61V44.92H55.7006V47.98L55.3406 47.53C55.7806 46.59 56.4306 45.86 57.2906 45.34C58.1706 44.82 59.1306 44.56 60.1706 44.56C61.4106 44.56 62.5306 44.91 63.5306 45.61C64.5306 46.31 65.2406 47.22 65.6606 48.34L65.0306 48.37C65.4306 47.13 66.1206 46.19 67.1006 45.55C68.1006 44.89 69.2006 44.56 70.4006 44.56C71.4806 44.56 72.4706 44.82 73.3706 45.34C74.2906 45.86 75.0206 46.58 75.5606 47.5C76.1206 48.4 76.4006 49.42 76.4006 50.56V61H74.1506V51.43C74.1506 50.45 73.9706 49.62 73.6106 48.94C73.2706 48.26 72.8006 47.74 72.2006 47.38C71.6006 47 70.9106 46.81 70.1306 46.81C69.3706 46.81 68.6806 47 68.0606 47.38C67.4406 47.74 66.9506 48.27 66.5906 48.97C66.2306 49.65 66.0506 50.47 66.0506 51.43V61H63.8006V51.43C63.8006 50.45 63.6206 49.62 63.2606 48.94C62.9206 48.26 62.4506 47.74 61.8506 47.38C61.2506 47 60.5606 46.81 59.7806 46.81C59.0006 46.81 58.3006 47 57.6806 47.38C57.0806 47.74 56.6006 48.27 56.2406 48.97C55.8806 49.65 55.7006 50.47 55.7006 51.43V61H53.4506ZM88.2267 61.36C86.7067 61.36 85.3267 61 84.0867 60.28C82.8467 59.54 81.8567 58.54 81.1167 57.28C80.3967 56 80.0367 54.55 80.0367 52.93C80.0367 51.33 80.3967 49.9 81.1167 48.64C81.8367 47.38 82.8067 46.39 84.0267 45.67C85.2667 44.93 86.6667 44.56 88.2267 44.56C89.7867 44.56 91.1767 44.92 92.3967 45.64C93.6367 46.36 94.6067 47.35 95.3067 48.61C96.0267 49.87 96.3867 51.31 96.3867 52.93C96.3867 54.57 96.0167 56.03 95.2767 57.31C94.5367 58.57 93.5467 59.56 92.3067 60.28C91.0867 61 89.7267 61.36 88.2267 61.36ZM88.2267 59.11C89.3067 59.11 90.2767 58.84 91.1367 58.3C92.0167 57.76 92.7067 57.02 93.2067 56.08C93.7267 55.14 93.9867 54.09 93.9867 52.93C93.9867 51.77 93.7267 50.73 93.2067 49.81C92.7067 48.89 92.0167 48.16 91.1367 47.62C90.2767 47.08 89.3067 46.81 88.2267 46.81C87.1467 46.81 86.1667 47.08 85.2867 47.62C84.4267 48.16 83.7367 48.89 83.2167 49.81C82.6967 50.73 82.4367 51.77 82.4367 52.93C82.4367 54.09 82.6967 55.14 83.2167 56.08C83.7367 57.02 84.4267 57.76 85.2867 58.3C86.1667 58.84 87.1467 59.11 88.2267 59.11ZM100.355 61V44.92H102.605V48.04L102.095 47.92C102.495 46.88 103.145 46.06 104.045 45.46C104.965 44.86 106.025 44.56 107.225 44.56C108.365 44.56 109.385 44.82 110.285 45.34C111.205 45.86 111.925 46.58 112.445 47.5C112.985 48.4 113.255 49.42 113.255 50.56V61H111.005V51.43C111.005 50.45 110.825 49.62 110.465 48.94C110.125 48.26 109.635 47.74 108.995 47.38C108.375 47 107.655 46.81 106.835 46.81C106.015 46.81 105.285 47 104.645 47.38C104.005 47.74 103.505 48.27 103.145 48.97C102.785 49.65 102.605 50.47 102.605 51.43V61H100.355ZM123.702 61.18C122.262 61.18 121.152 60.76 120.372 59.92C119.592 59.08 119.202 57.88 119.202 56.32V47.17H116.232V44.92H116.982C117.662 44.92 118.202 44.7 118.602 44.26C119.002 43.8 119.202 43.23 119.202 42.55V41.2H121.452V44.92H124.992V47.17H121.452V56.32C121.452 56.86 121.532 57.34 121.692 57.76C121.852 58.16 122.122 58.48 122.502 58.72C122.902 58.96 123.432 59.08 124.092 59.08C124.252 59.08 124.442 59.07 124.662 59.05C124.882 59.03 125.072 59.01 125.232 58.99V61C124.992 61.06 124.722 61.1 124.422 61.12C124.122 61.16 123.882 61.18 123.702 61.18ZM129.183 61V38.29H131.433V48.04L130.923 47.92C131.323 46.88 131.973 46.06 132.873 45.46C133.793 44.86 134.853 44.56 136.053 44.56C137.193 44.56 138.213 44.82 139.113 45.34C140.033 45.86 140.753 46.58 141.273 47.5C141.813 48.4 142.083 49.42 142.083 50.56V61H139.833V51.43C139.833 50.45 139.653 49.62 139.293 48.94C138.933 48.26 138.433 47.74 137.793 47.38C137.173 47 136.463 46.81 135.663 46.81C134.863 46.81 134.143 47 133.503 47.38C132.863 47.74 132.353 48.27 131.973 48.97C131.613 49.65 131.433 50.47 131.433 51.43V61H129.183ZM151.96 61.36C150.42 61.36 149.07 60.97 147.91 60.19C146.75 59.41 145.91 58.35 145.39 57.01L147.28 56.11C147.74 57.09 148.38 57.87 149.2 58.45C150.04 59.03 150.96 59.32 151.96 59.32C152.92 59.32 153.73 59.09 154.39 58.63C155.05 58.15 155.38 57.53 155.38 56.77C155.38 56.21 155.22 55.77 154.9 55.45C154.58 55.11 154.21 54.85 153.79 54.67C153.37 54.49 153 54.36 152.68 54.28L150.37 53.62C148.89 53.2 147.82 52.61 147.16 51.85C146.5 51.09 146.17 50.21 146.17 49.21C146.17 48.27 146.41 47.45 146.89 46.75C147.37 46.05 148.02 45.51 148.84 45.13C149.66 44.75 150.57 44.56 151.57 44.56C152.93 44.56 154.16 44.92 155.26 45.64C156.38 46.34 157.17 47.32 157.63 48.58L155.71 49.48C155.31 48.58 154.73 47.88 153.97 47.38C153.23 46.86 152.4 46.6 151.48 46.6C150.58 46.6 149.86 46.83 149.32 47.29C148.78 47.75 148.51 48.33 148.51 49.03C148.51 49.57 148.65 50 148.93 50.32C149.21 50.64 149.53 50.88 149.89 51.04C150.27 51.2 150.6 51.32 150.88 51.4L153.55 52.18C154.85 52.56 155.86 53.15 156.58 53.95C157.32 54.75 157.69 55.69 157.69 56.77C157.69 57.65 157.44 58.44 156.94 59.14C156.46 59.84 155.79 60.39 154.93 60.79C154.07 61.17 153.08 61.36 151.96 61.36ZM170.282 61L164.762 44.92H167.312L171.872 58.99H170.972L175.262 44.92H177.512L181.802 58.99H180.902L185.492 44.92H188.012L182.492 61H180.242L176.072 47.23H176.702L172.532 61H170.282ZM190.648 61V44.92H192.898V61H190.648ZM190.648 41.95V38.65H192.898V41.95H190.648ZM203.653 61.18C202.213 61.18 201.103 60.76 200.323 59.92C199.543 59.08 199.153 57.88 199.153 56.32V47.17H196.183V44.92H196.933C197.613 44.92 198.153 44.7 198.553 44.26C198.953 43.8 199.153 43.23 199.153 42.55V41.2H201.403V44.92H204.943V47.17H201.403V56.32C201.403 56.86 201.483 57.34 201.643 57.76C201.803 58.16 202.073 58.48 202.453 58.72C202.853 58.96 203.383 59.08 204.043 59.08C204.203 59.08 204.393 59.07 204.613 59.05C204.833 59.03 205.023 59.01 205.183 58.99V61C204.943 61.06 204.673 61.1 204.373 61.12C204.073 61.16 203.833 61.18 203.653 61.18ZM209.134 61V38.29H211.384V48.04L210.874 47.92C211.274 46.88 211.924 46.06 212.824 45.46C213.744 44.86 214.804 44.56 216.004 44.56C217.144 44.56 218.164 44.82 219.064 45.34C219.984 45.86 220.704 46.58 221.224 47.5C221.764 48.4 222.034 49.42 222.034 50.56V61H219.784V51.43C219.784 50.45 219.604 49.62 219.244 48.94C218.884 48.26 218.384 47.74 217.744 47.38C217.124 47 216.414 46.81 215.614 46.81C214.814 46.81 214.094 47 213.454 47.38C212.814 47.74 212.304 48.27 211.924 48.97C211.564 49.65 211.384 50.47 211.384 51.43V61H209.134ZM233.861 61.36C232.341 61.36 230.961 61 229.721 60.28C228.481 59.54 227.491 58.54 226.751 57.28C226.031 56 225.671 54.55 225.671 52.93C225.671 51.33 226.031 49.9 226.751 48.64C227.471 47.38 228.441 46.39 229.661 45.67C230.901 44.93 232.301 44.56 233.861 44.56C235.421 44.56 236.811 44.92 238.031 45.64C239.271 46.36 240.241 47.35 240.941 48.61C241.661 49.87 242.021 51.31 242.021 52.93C242.021 54.57 241.651 56.03 240.911 57.31C240.171 58.57 239.181 59.56 237.941 60.28C236.721 61 235.361 61.36 233.861 61.36ZM233.861 59.11C234.941 59.11 235.911 58.84 236.771 58.3C237.651 57.76 238.341 57.02 238.841 56.08C239.361 55.14 239.621 54.09 239.621 52.93C239.621 51.77 239.361 50.73 238.841 49.81C238.341 48.89 237.651 48.16 236.771 47.62C235.911 47.08 234.941 46.81 233.861 46.81C232.781 46.81 231.801 47.08 230.921 47.62C230.061 48.16 229.371 48.89 228.851 49.81C228.331 50.73 228.071 51.77 228.071 52.93C228.071 54.09 228.331 55.14 228.851 56.08C229.371 57.02 230.061 57.76 230.921 58.3C231.801 58.84 232.781 59.11 233.861 59.11ZM251.69 61.36C250.57 61.36 249.55 61.1 248.63 60.58C247.71 60.04 246.98 59.3 246.44 58.36C245.92 57.4 245.66 56.3 245.66 55.06V44.92H247.91V54.79C247.91 55.65 248.08 56.41 248.42 57.07C248.78 57.71 249.27 58.21 249.89 58.57C250.53 58.93 251.26 59.11 252.08 59.11C252.9 59.11 253.63 58.93 254.27 58.57C254.91 58.19 255.41 57.66 255.77 56.98C256.13 56.28 256.31 55.45 256.31 54.49V44.92H258.56V61H256.31V57.88L256.82 58C256.44 59.04 255.79 59.86 254.87 60.46C253.95 61.06 252.89 61.36 251.69 61.36ZM269.337 61.18C267.897 61.18 266.787 60.76 266.007 59.92C265.227 59.08 264.837 57.88 264.837 56.32V47.17H261.867V44.92H262.617C263.297 44.92 263.837 44.7 264.237 44.26C264.637 43.8 264.837 43.23 264.837 42.55V41.2H267.087V44.92H270.627V47.17H267.087V56.32C267.087 56.86 267.167 57.34 267.327 57.76C267.487 58.16 267.757 58.48 268.137 58.72C268.537 58.96 269.067 59.08 269.727 59.08C269.887 59.08 270.077 59.07 270.297 59.05C270.517 59.03 270.707 59.01 270.867 58.99V61C270.627 61.06 270.357 61.1 270.057 61.12C269.757 61.16 269.517 61.18 269.337 61.18ZM288.045 61.36C286.665 61.36 285.415 61.05 284.295 60.43C283.195 59.79 282.365 58.89 281.805 57.73L282.165 57.4V61H279.915V38.29H282.165V48.52L281.805 47.89C282.445 46.87 283.295 46.06 284.355 45.46C285.435 44.86 286.665 44.56 288.045 44.56C289.565 44.56 290.915 44.93 292.095 45.67C293.295 46.39 294.235 47.38 294.915 48.64C295.615 49.9 295.965 51.34 295.965 52.96C295.965 54.56 295.615 56 294.915 57.28C294.235 58.54 293.295 59.54 292.095 60.28C290.915 61 289.565 61.36 288.045 61.36ZM287.925 59.11C289.005 59.11 289.965 58.84 290.805 58.3C291.665 57.76 292.335 57.03 292.815 56.11C293.315 55.17 293.565 54.12 293.565 52.96C293.565 51.78 293.315 50.73 292.815 49.81C292.335 48.89 291.665 48.16 290.805 47.62C289.965 47.08 289.005 46.81 287.925 46.81C286.845 46.81 285.865 47.08 284.985 47.62C284.125 48.16 283.435 48.9 282.915 49.84C282.415 50.76 282.165 51.8 282.165 52.96C282.165 54.12 282.415 55.17 282.915 56.11C283.435 57.03 284.125 57.76 284.985 58.3C285.865 58.84 286.845 59.11 287.925 59.11ZM299.925 61V38.29H302.175V61H299.925ZM314.311 61.36C312.791 61.36 311.411 61 310.171 60.28C308.931 59.54 307.941 58.54 307.201 57.28C306.481 56 306.121 54.55 306.121 52.93C306.121 51.33 306.481 49.9 307.201 48.64C307.921 47.38 308.891 46.39 310.111 45.67C311.351 44.93 312.751 44.56 314.311 44.56C315.871 44.56 317.261 44.92 318.481 45.64C319.721 46.36 320.691 47.35 321.391 48.61C322.111 49.87 322.471 51.31 322.471 52.93C322.471 54.57 322.101 56.03 321.361 57.31C320.621 58.57 319.631 59.56 318.391 60.28C317.171 61 315.811 61.36 314.311 61.36ZM314.311 59.11C315.391 59.11 316.361 58.84 317.221 58.3C318.101 57.76 318.791 57.02 319.291 56.08C319.811 55.14 320.071 54.09 320.071 52.93C320.071 51.77 319.811 50.73 319.291 49.81C318.791 48.89 318.101 48.16 317.221 47.62C316.361 47.08 315.391 46.81 314.311 46.81C313.231 46.81 312.251 47.08 311.371 47.62C310.511 48.16 309.821 48.89 309.301 49.81C308.781 50.73 308.521 51.77 308.521 52.93C308.521 54.09 308.781 55.14 309.301 56.08C309.821 57.02 310.511 57.76 311.371 58.3C312.251 58.84 313.231 59.11 314.311 59.11ZM329.686 61L324.166 44.92H326.716L331.276 58.99H330.376L334.666 44.92H336.916L341.206 58.99H340.306L344.896 44.92H347.416L341.896 61H339.646L335.476 47.23H336.106L331.936 61H329.686ZM350.052 61V44.92H352.302V61H350.052ZM350.052 41.95V38.65H352.302V41.95H350.052ZM356.908 61V44.92H359.158V48.04L358.648 47.92C359.048 46.88 359.698 46.06 360.598 45.46C361.518 44.86 362.578 44.56 363.778 44.56C364.918 44.56 365.938 44.82 366.838 45.34C367.758 45.86 368.478 46.58 368.998 47.5C369.538 48.4 369.808 49.42 369.808 50.56V61H367.558V51.43C367.558 50.45 367.378 49.62 367.018 48.94C366.678 48.26 366.188 47.74 365.548 47.38C364.928 47 364.208 46.81 363.388 46.81C362.568 46.81 361.838 47 361.198 47.38C360.558 47.74 360.058 48.27 359.698 48.97C359.338 49.65 359.158 50.47 359.158 51.43V61H356.908ZM381.725 67.6C380.625 67.6 379.605 67.43 378.665 67.09C377.745 66.75 376.945 66.28 376.265 65.68C375.605 65.1 375.095 64.42 374.735 63.64L376.805 62.53C377.125 63.29 377.695 63.95 378.515 64.51C379.335 65.07 380.385 65.35 381.665 65.35C382.645 65.35 383.545 65.16 384.365 64.78C385.185 64.4 385.845 63.84 386.345 63.1C386.845 62.36 387.095 61.45 387.095 60.37V56.8L387.455 57.13C386.895 58.29 386.065 59.19 384.965 59.83C383.865 60.45 382.665 60.76 381.365 60.76C379.865 60.76 378.515 60.4 377.315 59.68C376.115 58.96 375.165 57.99 374.465 56.77C373.785 55.53 373.445 54.16 373.445 52.66C373.445 51.14 373.785 49.77 374.465 48.55C375.165 47.33 376.105 46.36 377.285 45.64C378.485 44.92 379.845 44.56 381.365 44.56C382.665 44.56 383.845 44.86 384.905 45.46C385.985 46.06 386.835 46.87 387.455 47.89L387.095 48.52V44.92H389.345V60.37C389.345 61.75 389.015 62.98 388.355 64.06C387.715 65.16 386.815 66.02 385.655 66.64C384.515 67.28 383.205 67.6 381.725 67.6ZM381.485 58.51C382.525 58.51 383.465 58.25 384.305 57.73C385.145 57.19 385.815 56.48 386.315 55.6C386.835 54.7 387.095 53.72 387.095 52.66C387.095 51.6 386.835 50.63 386.315 49.75C385.815 48.85 385.145 48.14 384.305 47.62C383.465 47.08 382.525 46.81 381.485 46.81C380.425 46.81 379.465 47.08 378.605 47.62C377.745 48.14 377.065 48.84 376.565 49.72C376.085 50.6 375.845 51.58 375.845 52.66C375.845 53.72 376.085 54.7 376.565 55.6C377.065 56.48 377.735 57.19 378.575 57.73C379.435 58.25 380.405 58.51 381.485 58.51ZM399.396 67.6C399.076 67.6 398.746 67.57 398.406 67.51C398.086 67.47 397.766 67.39 397.446 67.27V65.17C397.646 65.19 397.896 65.22 398.196 65.26C398.516 65.32 398.836 65.35 399.156 65.35C400.136 65.35 400.886 65.14 401.406 64.72C401.926 64.32 402.436 63.54 402.936 62.38L403.956 59.98L403.896 61.96L397.086 44.92H399.516L405.096 58.99H404.466L410.016 44.92H412.506L405.156 63.04C404.836 63.82 404.426 64.56 403.926 65.26C403.446 65.96 402.836 66.52 402.096 66.94C401.356 67.38 400.456 67.6 399.396 67.6ZM422.387 61.36C420.867 61.36 419.487 61 418.247 60.28C417.007 59.54 416.017 58.54 415.277 57.28C414.557 56 414.197 54.55 414.197 52.93C414.197 51.33 414.557 49.9 415.277 48.64C415.997 47.38 416.967 46.39 418.187 45.67C419.427 44.93 420.827 44.56 422.387 44.56C423.947 44.56 425.337 44.92 426.557 45.64C427.797 46.36 428.767 47.35 429.467 48.61C430.187 49.87 430.547 51.31 430.547 52.93C430.547 54.57 430.177 56.03 429.437 57.31C428.697 58.57 427.707 59.56 426.467 60.28C425.247 61 423.887 61.36 422.387 61.36ZM422.387 59.11C423.467 59.11 424.437 58.84 425.297 58.3C426.177 57.76 426.867 57.02 427.367 56.08C427.887 55.14 428.147 54.09 428.147 52.93C428.147 51.77 427.887 50.73 427.367 49.81C426.867 48.89 426.177 48.16 425.297 47.62C424.437 47.08 423.467 46.81 422.387 46.81C421.307 46.81 420.327 47.08 419.447 47.62C418.587 48.16 417.897 48.89 417.377 49.81C416.857 50.73 416.597 51.77 416.597 52.93C416.597 54.09 416.857 55.14 417.377 56.08C417.897 57.02 418.587 57.76 419.447 58.3C420.327 58.84 421.307 59.11 422.387 59.11ZM440.215 61.36C439.095 61.36 438.075 61.1 437.155 60.58C436.235 60.04 435.505 59.3 434.965 58.36C434.445 57.4 434.185 56.3 434.185 55.06V44.92H436.435V54.79C436.435 55.65 436.605 56.41 436.945 57.07C437.305 57.71 437.795 58.21 438.415 58.57C439.055 58.93 439.785 59.11 440.605 59.11C441.425 59.11 442.155 58.93 442.795 58.57C443.435 58.19 443.935 57.66 444.295 56.98C444.655 56.28 444.835 55.45 444.835 54.49V44.92H447.085V61H444.835V57.88L445.345 58C444.965 59.04 444.315 59.86 443.395 60.46C442.475 61.06 441.415 61.36 440.215 61.36ZM451.712 61V44.92H453.962V47.56L453.662 47.17C454.042 46.41 454.612 45.81 455.372 45.37C456.152 44.93 457.092 44.71 458.192 44.71H459.212V46.96H457.802C456.642 46.96 455.712 47.32 455.012 48.04C454.312 48.76 453.962 49.78 453.962 51.1V61H451.712ZM475.077 61.36C473.697 61.36 472.447 61.05 471.327 60.43C470.227 59.79 469.397 58.89 468.837 57.73L469.197 57.4V61H466.947V38.29H469.197V48.52L468.837 47.89C469.477 46.87 470.327 46.06 471.387 45.46C472.467 44.86 473.697 44.56 475.077 44.56C476.597 44.56 477.947 44.93 479.127 45.67C480.327 46.39 481.267 47.38 481.947 48.64C482.647 49.9 482.997 51.34 482.997 52.96C482.997 54.56 482.647 56 481.947 57.28C481.267 58.54 480.327 59.54 479.127 60.28C477.947 61 476.597 61.36 475.077 61.36ZM474.957 59.11C476.037 59.11 476.997 58.84 477.837 58.3C478.697 57.76 479.367 57.03 479.847 56.11C480.347 55.17 480.597 54.12 480.597 52.96C480.597 51.78 480.347 50.73 479.847 49.81C479.367 48.89 478.697 48.16 477.837 47.62C476.997 47.08 476.037 46.81 474.957 46.81C473.877 46.81 472.897 47.08 472.017 47.62C471.157 48.16 470.467 48.9 469.947 49.84C469.447 50.76 469.197 51.8 469.197 52.96C469.197 54.12 469.447 55.17 469.947 56.11C470.467 57.03 471.157 57.76 472.017 58.3C472.897 58.84 473.877 59.11 474.957 59.11ZM492.656 61.36C491.536 61.36 490.516 61.1 489.596 60.58C488.676 60.04 487.946 59.3 487.406 58.36C486.886 57.4 486.626 56.3 486.626 55.06V44.92H488.876V54.79C488.876 55.65 489.046 56.41 489.386 57.07C489.746 57.71 490.236 58.21 490.856 58.57C491.496 58.93 492.226 59.11 493.046 59.11C493.866 59.11 494.596 58.93 495.236 58.57C495.876 58.19 496.376 57.66 496.736 56.98C497.096 56.28 497.276 55.45 497.276 54.49V44.92H499.526V61H497.276V57.88L497.786 58C497.406 59.04 496.756 59.86 495.836 60.46C494.916 61.06 493.856 61.36 492.656 61.36ZM511.414 61.36C509.914 61.36 508.564 61 507.364 60.28C506.164 59.54 505.214 58.54 504.514 57.28C503.834 56 503.494 54.56 503.494 52.96C503.494 51.34 503.834 49.9 504.514 48.64C505.214 47.38 506.154 46.39 507.334 45.67C508.534 44.93 509.894 44.56 511.414 44.56C512.794 44.56 514.024 44.86 515.104 45.46C516.184 46.06 517.034 46.87 517.654 47.89L517.294 48.52V38.29H519.544V61H517.294V57.4L517.654 57.73C517.094 58.89 516.254 59.79 515.134 60.43C514.034 61.05 512.794 61.36 511.414 61.36ZM511.534 59.11C512.614 59.11 513.584 58.84 514.444 58.3C515.324 57.76 516.014 57.03 516.514 56.11C517.034 55.17 517.294 54.12 517.294 52.96C517.294 51.8 517.034 50.76 516.514 49.84C516.014 48.9 515.324 48.16 514.444 47.62C513.584 47.08 512.614 46.81 511.534 46.81C510.474 46.81 509.514 47.08 508.654 47.62C507.794 48.16 507.114 48.89 506.614 49.81C506.134 50.73 505.894 51.78 505.894 52.96C505.894 54.12 506.134 55.17 506.614 56.11C507.114 57.03 507.784 57.76 508.624 58.3C509.484 58.84 510.454 59.11 511.534 59.11ZM531.784 67.6C530.684 67.6 529.664 67.43 528.724 67.09C527.804 66.75 527.004 66.28 526.324 65.68C525.664 65.1 525.154 64.42 524.794 63.64L526.864 62.53C527.184 63.29 527.754 63.95 528.574 64.51C529.394 65.07 530.444 65.35 531.724 65.35C532.704 65.35 533.604 65.16 534.424 64.78C535.244 64.4 535.904 63.84 536.404 63.1C536.904 62.36 537.154 61.45 537.154 60.37V56.8L537.514 57.13C536.954 58.29 536.124 59.19 535.024 59.83C533.924 60.45 532.724 60.76 531.424 60.76C529.924 60.76 528.574 60.4 527.374 59.68C526.174 58.96 525.224 57.99 524.524 56.77C523.844 55.53 523.504 54.16 523.504 52.66C523.504 51.14 523.844 49.77 524.524 48.55C525.224 47.33 526.164 46.36 527.344 45.64C528.544 44.92 529.904 44.56 531.424 44.56C532.724 44.56 533.904 44.86 534.964 45.46C536.044 46.06 536.894 46.87 537.514 47.89L537.154 48.52V44.92H539.404V60.37C539.404 61.75 539.074 62.98 538.414 64.06C537.774 65.16 536.874 66.02 535.714 66.64C534.574 67.28 533.264 67.6 531.784 67.6ZM531.544 58.51C532.584 58.51 533.524 58.25 534.364 57.73C535.204 57.19 535.874 56.48 536.374 55.6C536.894 54.7 537.154 53.72 537.154 52.66C537.154 51.6 536.894 50.63 536.374 49.75C535.874 48.85 535.204 48.14 534.364 47.62C533.524 47.08 532.584 46.81 531.544 46.81C530.484 46.81 529.524 47.08 528.664 47.62C527.804 48.14 527.124 48.84 526.624 49.72C526.144 50.6 525.904 51.58 525.904 52.66C525.904 53.72 526.144 54.7 526.624 55.6C527.124 56.48 527.794 57.19 528.634 57.73C529.494 58.25 530.464 58.51 531.544 58.51ZM551.347 61.36C549.847 61.36 548.487 61 547.267 60.28C546.067 59.54 545.117 58.53 544.417 57.25C543.717 55.97 543.367 54.52 543.367 52.9C543.367 51.28 543.707 49.85 544.387 48.61C545.067 47.35 545.987 46.36 547.147 45.64C548.327 44.92 549.647 44.56 551.107 44.56C552.267 44.56 553.297 44.78 554.197 45.22C555.117 45.64 555.897 46.22 556.537 46.96C557.177 47.68 557.667 48.5 558.007 49.42C558.347 50.32 558.517 51.25 558.517 52.21C558.517 52.41 558.507 52.64 558.487 52.9C558.467 53.14 558.437 53.39 558.397 53.65H544.807V51.55H557.107L556.027 52.45C556.207 51.35 556.077 50.37 555.637 49.51C555.217 48.63 554.607 47.94 553.807 47.44C553.007 46.92 552.107 46.66 551.107 46.66C550.107 46.66 549.177 46.92 548.317 47.44C547.477 47.96 546.817 48.69 546.337 49.63C545.857 50.55 545.667 51.65 545.767 52.93C545.667 54.21 545.867 55.33 546.367 56.29C546.887 57.23 547.587 57.96 548.467 58.48C549.367 59 550.327 59.26 551.347 59.26C552.527 59.26 553.517 58.98 554.317 58.42C555.117 57.86 555.767 57.16 556.267 56.32L558.187 57.34C557.867 58.06 557.377 58.73 556.717 59.35C556.057 59.95 555.267 60.44 554.347 60.82C553.447 61.18 552.447 61.36 551.347 61.36ZM568.634 61.18C567.194 61.18 566.084 60.76 565.304 59.92C564.524 59.08 564.134 57.88 564.134 56.32V47.17H561.164V44.92H561.914C562.594 44.92 563.134 44.7 563.534 44.26C563.934 43.8 564.134 43.23 564.134 42.55V41.2H566.384V44.92H569.924V47.17H566.384V56.32C566.384 56.86 566.464 57.34 566.624 57.76C566.784 58.16 567.054 58.48 567.434 58.72C567.834 58.96 568.364 59.08 569.024 59.08C569.184 59.08 569.374 59.07 569.594 59.05C569.814 59.03 570.004 59.01 570.164 58.99V61C569.924 61.06 569.654 61.1 569.354 61.12C569.054 61.16 568.814 61.18 568.634 61.18ZM574.895 61V57.7H577.295V61H574.895Z" fill="white"/>
<path d="M214.27 23V4.13H209.95V0.649998H218.35V23H214.27ZM231.8 23.36C230.02 23.36 228.46 22.88 227.12 21.92C225.78 20.96 224.73 19.61 223.97 17.87C223.23 16.13 222.86 14.11 222.86 11.81C222.86 9.49 223.23 7.47 223.97 5.75C224.71 4.03 225.75 2.69 227.09 1.73C228.43 0.769999 229.99 0.289999 231.77 0.289999C233.59 0.289999 235.16 0.769999 236.48 1.73C237.82 2.69 238.87 4.04 239.63 5.78C240.39 7.5 240.77 9.51 240.77 11.81C240.77 14.11 240.39 16.13 239.63 17.87C238.89 19.59 237.85 20.94 236.51 21.92C235.17 22.88 233.6 23.36 231.8 23.36ZM231.83 19.64C232.85 19.64 233.72 19.33 234.44 18.71C235.16 18.07 235.71 17.17 236.09 16.01C236.49 14.83 236.69 13.43 236.69 11.81C236.69 10.19 236.49 8.8 236.09 7.64C235.71 6.46 235.15 5.56 234.41 4.94C233.69 4.32 232.81 4.01 231.77 4.01C230.77 4.01 229.91 4.32 229.19 4.94C228.47 5.56 227.91 6.46 227.51 7.64C227.13 8.8 226.94 10.19 226.94 11.81C226.94 13.41 227.13 14.8 227.51 15.98C227.91 17.14 228.47 18.04 229.19 18.68C229.93 19.32 230.81 19.64 231.83 19.64ZM247.79 23L245.39 20.6L249.95 16.04L245.42 11.54L247.82 9.17L252.32 13.67L256.85 9.17L259.25 11.54L254.69 16.04L259.25 20.6L256.88 23L252.32 18.44L247.79 23ZM271.367 29.63C270.927 29.63 270.497 29.59 270.077 29.51C269.657 29.45 269.277 29.34 268.937 29.18V25.88C269.197 25.94 269.507 26 269.867 26.06C270.247 26.12 270.597 26.15 270.917 26.15C271.817 26.15 272.467 25.94 272.867 25.52C273.287 25.1 273.657 24.55 273.977 23.87L275.057 21.35L274.997 24.65L267.887 6.68H272.117L277.097 19.94H275.597L280.547 6.68H284.807L277.697 24.65C277.277 25.71 276.767 26.61 276.167 27.35C275.567 28.09 274.867 28.65 274.067 29.03C273.287 29.43 272.387 29.63 271.367 29.63ZM294.652 23.36C293.052 23.36 291.592 22.99 290.272 22.25C288.972 21.51 287.932 20.5 287.152 19.22C286.392 17.94 286.012 16.48 286.012 14.84C286.012 13.2 286.392 11.74 287.152 10.46C287.932 9.18 288.972 8.17 290.272 7.43C291.572 6.69 293.032 6.32 294.652 6.32C296.252 6.32 297.702 6.69 299.002 7.43C300.302 8.17 301.332 9.18 302.092 10.46C302.872 11.72 303.262 13.18 303.262 14.84C303.262 16.48 302.872 17.94 302.092 19.22C301.312 20.5 300.272 21.51 298.972 22.25C297.672 22.99 296.232 23.36 294.652 23.36ZM294.652 19.76C295.532 19.76 296.302 19.55 296.962 19.13C297.642 18.71 298.172 18.13 298.552 17.39C298.952 16.63 299.152 15.78 299.152 14.84C299.152 13.88 298.952 13.04 298.552 12.32C298.172 11.58 297.642 11 296.962 10.58C296.302 10.14 295.532 9.92 294.652 9.92C293.752 9.92 292.962 10.14 292.282 10.58C291.602 11 291.062 11.58 290.662 12.32C290.282 13.04 290.092 13.88 290.092 14.84C290.092 15.78 290.282 16.63 290.662 17.39C291.062 18.13 291.602 18.71 292.282 19.13C292.962 19.55 293.752 19.76 294.652 19.76ZM312.062 23.36C310.802 23.36 309.702 23.08 308.762 22.52C307.842 21.96 307.132 21.18 306.632 20.18C306.152 19.18 305.912 18.01 305.912 16.67V6.68H309.842V16.34C309.842 17.02 309.972 17.62 310.232 18.14C310.512 18.64 310.902 19.04 311.402 19.34C311.922 19.62 312.502 19.76 313.142 19.76C313.782 19.76 314.352 19.62 314.852 19.34C315.352 19.04 315.742 18.63 316.022 18.11C316.302 17.59 316.442 16.97 316.442 16.25V6.68H320.372V23H316.652V19.79L316.982 20.36C316.602 21.36 315.972 22.11 315.092 22.61C314.232 23.11 313.222 23.36 312.062 23.36ZM324.025 23V6.68H327.715V10.31L327.415 9.77C327.795 8.55 328.385 7.7 329.185 7.22C330.005 6.74 330.985 6.5 332.125 6.5H333.085V9.98H331.675C330.555 9.98 329.655 10.33 328.975 11.03C328.295 11.71 327.955 12.67 327.955 13.91V23H324.025ZM348.888 23.36C347.468 23.36 346.148 23.1 344.928 22.58C343.728 22.06 342.688 21.34 341.808 20.42C340.948 19.48 340.318 18.39 339.918 17.15L343.308 15.68C343.848 16.96 344.628 17.97 345.648 18.71C346.668 19.43 347.818 19.79 349.098 19.79C349.818 19.79 350.438 19.68 350.958 19.46C351.498 19.22 351.908 18.9 352.188 18.5C352.488 18.1 352.638 17.62 352.638 17.06C352.638 16.4 352.438 15.86 352.038 15.44C351.658 15 351.078 14.66 350.298 14.42L346.008 13.04C344.268 12.5 342.958 11.69 342.078 10.61C341.198 9.53 340.758 8.26 340.758 6.8C340.758 5.52 341.068 4.39 341.688 3.41C342.328 2.43 343.208 1.67 344.328 1.13C345.468 0.569999 346.768 0.289999 348.228 0.289999C349.568 0.289999 350.798 0.529999 351.918 1.01C353.038 1.47 353.998 2.12 354.798 2.96C355.618 3.78 356.228 4.75 356.628 5.87L353.268 7.37C352.828 6.25 352.168 5.39 351.288 4.79C350.408 4.17 349.388 3.86 348.228 3.86C347.548 3.86 346.948 3.98 346.428 4.22C345.908 4.44 345.498 4.76 345.198 5.18C344.918 5.58 344.778 6.06 344.778 6.62C344.778 7.24 344.978 7.79 345.378 8.27C345.778 8.73 346.388 9.09 347.208 9.35L351.318 10.64C353.098 11.22 354.428 12.02 355.308 13.04C356.208 14.06 356.658 15.32 356.658 16.82C356.658 18.1 356.328 19.23 355.668 20.21C355.008 21.19 354.098 21.96 352.938 22.52C351.778 23.08 350.428 23.36 348.888 23.36ZM360.332 23V0.649998H375.182V4.25H364.412V9.98H374.582V13.58H364.412V19.4H375.182V23H360.332ZM389.184 23.36C387.544 23.36 386.014 23.07 384.594 22.49C383.174 21.91 381.934 21.1 380.874 20.06C379.814 19.02 378.984 17.8 378.384 16.4C377.804 14.98 377.514 13.45 377.514 11.81C377.514 10.15 377.804 8.62 378.384 7.22C378.964 5.82 379.784 4.6 380.844 3.56C381.904 2.52 383.144 1.72 384.564 1.16C385.984 0.579999 387.524 0.289999 389.184 0.289999C390.844 0.289999 392.384 0.579999 393.804 1.16C395.224 1.74 396.464 2.55 397.524 3.59C398.584 4.61 399.404 5.82 399.984 7.22C400.584 8.62 400.884 10.15 400.884 11.81C400.884 13.45 400.584 14.98 399.984 16.4C399.384 17.8 398.554 19.02 397.494 20.06C396.434 21.1 395.194 21.91 393.774 22.49C392.374 23.07 390.844 23.36 389.184 23.36ZM389.184 19.64C390.284 19.64 391.294 19.45 392.214 19.07C393.134 18.67 393.934 18.12 394.614 17.42C395.314 16.72 395.844 15.89 396.204 14.93C396.584 13.97 396.774 12.93 396.774 11.81C396.774 10.69 396.584 9.66 396.204 8.72C395.844 7.76 395.314 6.93 394.614 6.23C393.934 5.51 393.134 4.96 392.214 4.58C391.294 4.2 390.284 4.01 389.184 4.01C388.104 4.01 387.104 4.2 386.184 4.58C385.264 4.96 384.454 5.51 383.754 6.23C383.074 6.93 382.544 7.76 382.164 8.72C381.784 9.66 381.594 10.69 381.594 11.81C381.594 12.93 381.784 13.97 382.164 14.93C382.544 15.89 383.074 16.72 383.754 17.42C384.454 18.12 385.264 18.67 386.184 19.07C387.104 19.45 388.104 19.64 389.184 19.64ZM417.374 23.36C415.754 23.36 414.294 22.99 412.994 22.25C411.714 21.49 410.704 20.47 409.964 19.19C409.224 17.89 408.854 16.43 408.854 14.81C408.854 13.19 409.224 11.74 409.964 10.46C410.704 9.18 411.714 8.17 412.994 7.43C414.294 6.69 415.754 6.32 417.374 6.32C418.534 6.32 419.614 6.53 420.614 6.95C421.614 7.35 422.474 7.91 423.194 8.63C423.934 9.33 424.464 10.17 424.784 11.15L421.334 12.65C421.034 11.83 420.524 11.17 419.804 10.67C419.104 10.17 418.294 9.92 417.374 9.92C416.514 9.92 415.744 10.13 415.064 10.55C414.404 10.97 413.884 11.55 413.504 12.29C413.124 13.03 412.934 13.88 412.934 14.84C412.934 15.8 413.124 16.65 413.504 17.39C413.884 18.13 414.404 18.71 415.064 19.13C415.744 19.55 416.514 19.76 417.374 19.76C418.314 19.76 419.134 19.51 419.834 19.01C420.534 18.51 421.034 17.84 421.334 17L424.784 18.56C424.464 19.48 423.944 20.31 423.224 21.05C422.504 21.77 421.644 22.34 420.644 22.76C419.644 23.16 418.554 23.36 417.374 23.36ZM432.657 23.36C431.517 23.36 430.527 23.17 429.687 22.79C428.847 22.41 428.197 21.87 427.737 21.17C427.277 20.45 427.047 19.62 427.047 18.68C427.047 17.78 427.247 16.98 427.647 16.28C428.047 15.56 428.667 14.96 429.507 14.48C430.347 14 431.407 13.66 432.687 13.46L438.027 12.59V15.59L433.437 16.37C432.657 16.51 432.077 16.76 431.697 17.12C431.317 17.48 431.127 17.95 431.127 18.53C431.127 19.09 431.337 19.54 431.757 19.88C432.197 20.2 432.737 20.36 433.377 20.36C434.197 20.36 434.917 20.19 435.537 19.85C436.177 19.49 436.667 19 437.007 18.38C437.367 17.76 437.547 17.08 437.547 16.34V12.14C437.547 11.44 437.267 10.86 436.707 10.4C436.167 9.92 435.447 9.68 434.547 9.68C433.707 9.68 432.957 9.91 432.297 10.37C431.657 10.81 431.187 11.4 430.887 12.14L427.677 10.58C427.997 9.72 428.497 8.98 429.177 8.36C429.877 7.72 430.697 7.22 431.637 6.86C432.577 6.5 433.597 6.32 434.697 6.32C436.037 6.32 437.217 6.57 438.237 7.07C439.257 7.55 440.047 8.23 440.607 9.11C441.187 9.97 441.477 10.98 441.477 12.14V23H437.757V20.21L438.597 20.15C438.177 20.85 437.677 21.44 437.097 21.92C436.517 22.38 435.857 22.74 435.117 23C434.377 23.24 433.557 23.36 432.657 23.36ZM445.109 23V6.68H448.799V10.46L448.379 9.83C448.679 8.65 449.279 7.77 450.179 7.19C451.079 6.61 452.139 6.32 453.359 6.32C454.699 6.32 455.879 6.67 456.899 7.37C457.919 8.07 458.579 8.99 458.879 10.13L457.769 10.22C458.269 8.92 459.019 7.95 460.019 7.31C461.019 6.65 462.169 6.32 463.469 6.32C464.629 6.32 465.659 6.58 466.559 7.1C467.479 7.62 468.199 8.35 468.719 9.29C469.239 10.21 469.499 11.28 469.499 12.5V23H465.569V13.43C465.569 12.71 465.439 12.09 465.179 11.57C464.919 11.05 464.559 10.65 464.099 10.37C463.639 10.07 463.079 9.92 462.419 9.92C461.799 9.92 461.249 10.07 460.769 10.37C460.289 10.65 459.919 11.05 459.659 11.57C459.399 12.09 459.269 12.71 459.269 13.43V23H455.339V13.43C455.339 12.71 455.209 12.09 454.949 11.57C454.689 11.05 454.319 10.65 453.839 10.37C453.379 10.07 452.829 9.92 452.189 9.92C451.569 9.92 451.019 10.07 450.539 10.37C450.059 10.65 449.689 11.05 449.429 11.57C449.169 12.09 449.039 12.71 449.039 13.43V23H445.109ZM472.824 29V6.68H476.514V9.92L476.154 9.11C476.714 8.23 477.474 7.55 478.434 7.07C479.394 6.57 480.504 6.32 481.764 6.32C483.304 6.32 484.694 6.7 485.934 7.46C487.174 8.22 488.154 9.24 488.874 10.52C489.614 11.8 489.984 13.24 489.984 14.84C489.984 16.42 489.624 17.86 488.904 19.16C488.184 20.46 487.204 21.49 485.964 22.25C484.724 22.99 483.314 23.36 481.734 23.36C480.554 23.36 479.464 23.13 478.464 22.67C477.484 22.19 476.704 21.51 476.124 20.63L476.754 19.85V29H472.824ZM481.284 19.76C482.184 19.76 482.984 19.55 483.684 19.13C484.384 18.71 484.924 18.13 485.304 17.39C485.704 16.65 485.904 15.8 485.904 14.84C485.904 13.88 485.704 13.04 485.304 12.32C484.924 11.58 484.384 11 483.684 10.58C482.984 10.14 482.184 9.92 481.284 9.92C480.424 9.92 479.644 10.13 478.944 10.55C478.264 10.97 477.724 11.56 477.324 12.32C476.944 13.06 476.754 13.9 476.754 14.84C476.754 15.8 476.944 16.65 477.324 17.39C477.724 18.13 478.264 18.71 478.944 19.13C479.644 19.55 480.424 19.76 481.284 19.76ZM497.93 23.36C496.79 23.36 495.8 23.17 494.96 22.79C494.12 22.41 493.47 21.87 493.01 21.17C492.55 20.45 492.32 19.62 492.32 18.68C492.32 17.78 492.52 16.98 492.92 16.28C493.32 15.56 493.94 14.96 494.78 14.48C495.62 14 496.68 13.66 497.96 13.46L503.3 12.59V15.59L498.71 16.37C497.93 16.51 497.35 16.76 496.97 17.12C496.59 17.48 496.4 17.95 496.4 18.53C496.4 19.09 496.61 19.54 497.03 19.88C497.47 20.2 498.01 20.36 498.65 20.36C499.47 20.36 500.19 20.19 500.81 19.85C501.45 19.49 501.94 19 502.28 18.38C502.64 17.76 502.82 17.08 502.82 16.34V12.14C502.82 11.44 502.54 10.86 501.98 10.4C501.44 9.92 500.72 9.68 499.82 9.68C498.98 9.68 498.23 9.91 497.57 10.37C496.93 10.81 496.46 11.4 496.16 12.14L492.95 10.58C493.27 9.72 493.77 8.98 494.45 8.36C495.15 7.72 495.97 7.22 496.91 6.86C497.85 6.5 498.87 6.32 499.97 6.32C501.31 6.32 502.49 6.57 503.51 7.07C504.53 7.55 505.32 8.23 505.88 9.11C506.46 9.97 506.75 10.98 506.75 12.14V23H503.03V20.21L503.87 20.15C503.45 20.85 502.95 21.44 502.37 21.92C501.79 22.38 501.13 22.74 500.39 23C499.65 23.24 498.83 23.36 497.93 23.36ZM510.383 23V6.68H514.313V23H510.383ZM510.383 4.85V0.649998H514.313V4.85H510.383ZM525.861 29.6C524.641 29.6 523.511 29.4 522.471 29C521.431 28.6 520.531 28.04 519.771 27.32C519.031 26.62 518.491 25.79 518.151 24.83L521.811 23.45C522.051 24.21 522.521 24.82 523.221 25.28C523.941 25.76 524.821 26 525.861 26C526.661 26 527.361 25.85 527.961 25.55C528.581 25.25 529.061 24.81 529.401 24.23C529.741 23.67 529.911 22.99 529.911 22.19V18.47L530.661 19.37C530.101 20.35 529.351 21.09 528.411 21.59C527.471 22.09 526.401 22.34 525.201 22.34C523.681 22.34 522.321 21.99 521.121 21.29C519.921 20.59 518.981 19.63 518.301 18.41C517.621 17.19 517.281 15.82 517.281 14.3C517.281 12.76 517.621 11.39 518.301 10.19C518.981 8.99 519.911 8.05 521.091 7.37C522.271 6.67 523.611 6.32 525.111 6.32C526.331 6.32 527.401 6.58 528.321 7.1C529.261 7.6 530.041 8.33 530.661 9.29L530.121 10.28V6.68H533.841V22.19C533.841 23.61 533.491 24.88 532.791 26C532.111 27.12 531.171 28 529.971 28.64C528.791 29.28 527.421 29.6 525.861 29.6ZM525.681 18.71C526.521 18.71 527.251 18.53 527.871 18.17C528.511 17.79 529.011 17.27 529.371 16.61C529.731 15.95 529.911 15.19 529.911 14.33C529.911 13.49 529.721 12.74 529.341 12.08C528.981 11.4 528.481 10.87 527.841 10.49C527.221 10.11 526.501 9.92 525.681 9.92C524.861 9.92 524.121 10.11 523.461 10.49C522.801 10.87 522.281 11.4 521.901 12.08C521.541 12.74 521.361 13.49 521.361 14.33C521.361 15.17 521.541 15.92 521.901 16.58C522.281 17.24 522.791 17.76 523.431 18.14C524.091 18.52 524.841 18.71 525.681 18.71ZM537.512 23V6.68H541.202V9.89L540.902 9.32C541.282 8.34 541.902 7.6 542.762 7.1C543.642 6.58 544.662 6.32 545.822 6.32C547.022 6.32 548.082 6.58 549.002 7.1C549.942 7.62 550.672 8.35 551.192 9.29C551.712 10.21 551.972 11.28 551.972 12.5V23H548.042V13.43C548.042 12.71 547.902 12.09 547.622 11.57C547.342 11.05 546.952 10.65 546.452 10.37C545.972 10.07 545.402 9.92 544.742 9.92C544.102 9.92 543.532 10.07 543.032 10.37C542.532 10.65 542.142 11.05 541.862 11.57C541.582 12.09 541.442 12.71 541.442 13.43V23H537.512ZM561.505 23.36C559.765 23.36 558.245 22.95 556.945 22.13C555.665 21.29 554.785 20.16 554.305 18.74L557.245 17.33C557.665 18.25 558.245 18.97 558.985 19.49C559.745 20.01 560.585 20.27 561.505 20.27C562.225 20.27 562.795 20.11 563.215 19.79C563.635 19.47 563.845 19.05 563.845 18.53C563.845 18.21 563.755 17.95 563.575 17.75C563.415 17.53 563.185 17.35 562.885 17.21C562.605 17.05 562.295 16.92 561.955 16.82L559.285 16.07C557.905 15.67 556.855 15.06 556.135 14.24C555.435 13.42 555.085 12.45 555.085 11.33C555.085 10.33 555.335 9.46 555.835 8.72C556.355 7.96 557.065 7.37 557.965 6.95C558.885 6.53 559.935 6.32 561.115 6.32C562.655 6.32 564.015 6.69 565.195 7.43C566.375 8.17 567.215 9.21 567.715 10.55L564.715 11.96C564.435 11.22 563.965 10.63 563.305 10.19C562.645 9.75 561.905 9.53 561.085 9.53C560.425 9.53 559.905 9.68 559.525 9.98C559.145 10.28 558.955 10.67 558.955 11.15C558.955 11.45 559.035 11.71 559.195 11.93C559.355 12.15 559.575 12.33 559.855 12.47C560.155 12.61 560.495 12.74 560.875 12.86L563.485 13.64C564.825 14.04 565.855 14.64 566.575 15.44C567.315 16.24 567.685 17.22 567.685 18.38C567.685 19.36 567.425 20.23 566.905 20.99C566.385 21.73 565.665 22.31 564.745 22.73C563.825 23.15 562.745 23.36 561.505 23.36Z" fill="#82C4D9"/>
</svg>
