<svg width="187" height="663" viewBox="0 0 187 663" fill="none" xmlns="http://www.w3.org/2000/svg">
<line x1="1.16795" y1="125.085" x2="186.168" y2="1.75191" stroke="#82C4D9" stroke-width="3"/>
<line x1="1.16795" y1="241.751" x2="186.168" y2="118.418" stroke="#82C4D9" stroke-width="3"/>
<line x1="1.16795" y1="358.418" x2="186.168" y2="235.085" stroke="#82C4D9" stroke-width="3"/>
<line x1="1.16795" y1="475.084" x2="186.168" y2="351.751" stroke="#82C4D9" stroke-width="3"/>
<line x1="1.16795" y1="591.75" x2="186.168" y2="468.417" stroke="#82C4D9" stroke-width="3"/>
<line x1="1.16795" y1="148.418" x2="186.168" y2="25.0851" stroke="#82C4D9" stroke-width="3"/>
<line x1="1.16795" y1="265.085" x2="186.168" y2="141.751" stroke="#82C4D9" stroke-width="3"/>
<line x1="1.16795" y1="381.751" x2="186.168" y2="258.418" stroke="#82C4D9" stroke-width="3"/>
<line x1="1.16795" y1="498.417" x2="186.168" y2="375.084" stroke="#82C4D9" stroke-width="3"/>
<line x1="1.16795" y1="615.084" x2="186.168" y2="491.75" stroke="#82C4D9" stroke-width="3"/>
<line x1="1.16795" y1="171.752" x2="186.168" y2="48.4183" stroke="#82C4D9" stroke-width="3"/>
<line x1="1.16795" y1="288.418" x2="186.168" y2="165.085" stroke="#82C4D9" stroke-width="3"/>
<line x1="1.16795" y1="405.084" x2="186.168" y2="281.751" stroke="#82C4D9" stroke-width="3"/>
<line x1="1.16795" y1="521.751" x2="186.168" y2="398.417" stroke="#82C4D9" stroke-width="3"/>
<line x1="1.16795" y1="638.417" x2="186.168" y2="515.084" stroke="#82C4D9" stroke-width="3"/>
<line x1="1.16795" y1="195.085" x2="186.168" y2="71.7516" stroke="#82C4D9" stroke-width="3"/>
<line x1="1.16795" y1="311.751" x2="186.168" y2="188.418" stroke="#82C4D9" stroke-width="3"/>
<line x1="1.16795" y1="428.418" x2="186.168" y2="305.084" stroke="#82C4D9" stroke-width="3"/>
<line x1="1.16795" y1="545.084" x2="186.168" y2="421.751" stroke="#82C4D9" stroke-width="3"/>
<line x1="1.16795" y1="661.75" x2="186.168" y2="538.417" stroke="#82C4D9" stroke-width="3"/>
<line x1="1.16795" y1="218.418" x2="186.168" y2="95.0848" stroke="#82C4D9" stroke-width="3"/>
<line x1="1.16795" y1="335.085" x2="186.168" y2="211.751" stroke="#82C4D9" stroke-width="3"/>
<line x1="1.16795" y1="451.751" x2="186.168" y2="328.418" stroke="#82C4D9" stroke-width="3"/>
<line x1="1.16795" y1="568.417" x2="186.168" y2="445.084" stroke="#82C4D9" stroke-width="3"/>
</svg>
