<svg width="474" height="176" viewBox="0 0 474 176" fill="none" xmlns="http://www.w3.org/2000/svg">
<g opacity="0.5" filter="url(#filter0_f_1285_159)">
<rect x="50.4751" y="50.3534" width="373.061" height="75.3223" rx="37.6612" fill="url(#paint0_linear_1285_159)"/>
</g>
<rect x="50" y="40" width="374" height="76" rx="38" fill="#493BCD"/>
<path d="M105.776 87.264C104.603 87.264 103.518 87.0513 102.52 86.626C101.538 86.2007 100.672 85.6067 99.9242 84.844C99.1909 84.0813 98.6189 83.1867 98.2082 82.16C97.7975 81.1333 97.5922 80.0113 97.5922 78.794C97.5922 77.5767 97.7902 76.4547 98.1862 75.428C98.5969 74.3867 99.1689 73.492 99.9022 72.744C100.65 71.9813 101.523 71.3947 102.52 70.984C103.518 70.5587 104.603 70.346 105.776 70.346C106.95 70.346 107.998 70.544 108.922 70.94C109.861 71.336 110.653 71.864 111.298 72.524C111.944 73.1693 112.406 73.8807 112.684 74.658L110 75.912C109.692 75.0907 109.172 74.416 108.438 73.888C107.705 73.3453 106.818 73.074 105.776 73.074C104.75 73.074 103.84 73.316 103.048 73.8C102.271 74.284 101.662 74.9513 101.222 75.802C100.797 76.6527 100.584 77.65 100.584 78.794C100.584 79.938 100.797 80.9427 101.222 81.808C101.662 82.6587 102.271 83.326 103.048 83.81C103.84 84.294 104.75 84.536 105.776 84.536C106.818 84.536 107.705 84.272 108.438 83.744C109.172 83.2013 109.692 82.5193 110 81.698L112.684 82.952C112.406 83.7293 111.944 84.448 111.298 85.108C110.653 85.7533 109.861 86.274 108.922 86.67C107.998 87.066 106.95 87.264 105.776 87.264ZM120.508 87.264C119.335 87.264 118.264 86.9927 117.296 86.45C116.343 85.9073 115.58 85.1667 115.008 84.228C114.451 83.2893 114.172 82.2187 114.172 81.016C114.172 79.8133 114.451 78.7427 115.008 77.804C115.58 76.8653 116.343 76.1247 117.296 75.582C118.25 75.0393 119.32 74.768 120.508 74.768C121.682 74.768 122.745 75.0393 123.698 75.582C124.652 76.1247 125.407 76.8653 125.964 77.804C126.536 78.728 126.822 79.7987 126.822 81.016C126.822 82.2187 126.536 83.2893 125.964 84.228C125.392 85.1667 124.63 85.9073 123.676 86.45C122.723 86.9927 121.667 87.264 120.508 87.264ZM120.508 84.624C121.154 84.624 121.718 84.47 122.202 84.162C122.701 83.854 123.09 83.4287 123.368 82.886C123.662 82.3287 123.808 81.7053 123.808 81.016C123.808 80.312 123.662 79.696 123.368 79.168C123.09 78.6253 122.701 78.2 122.202 77.892C121.718 77.5693 121.154 77.408 120.508 77.408C119.848 77.408 119.269 77.5693 118.77 77.892C118.272 78.2 117.876 78.6253 117.582 79.168C117.304 79.696 117.164 80.312 117.164 81.016C117.164 81.7053 117.304 82.3287 117.582 82.886C117.876 83.4287 118.272 83.854 118.77 84.162C119.269 84.47 119.848 84.624 120.508 84.624ZM129.008 87V75.032H131.714V77.386L131.494 76.968C131.773 76.2493 132.227 75.7067 132.858 75.34C133.503 74.9587 134.251 74.768 135.102 74.768C135.982 74.768 136.759 74.9587 137.434 75.34C138.123 75.7213 138.659 76.2567 139.04 76.946C139.421 77.6207 139.612 78.4053 139.612 79.3V87H136.73V79.982C136.73 79.454 136.627 78.9993 136.422 78.618C136.217 78.2367 135.931 77.9433 135.564 77.738C135.212 77.518 134.794 77.408 134.31 77.408C133.841 77.408 133.423 77.518 133.056 77.738C132.689 77.9433 132.403 78.2367 132.198 78.618C131.993 78.9993 131.89 79.454 131.89 79.982V87H129.008ZM147.505 87.132C146.156 87.132 145.107 86.7653 144.359 86.032C143.626 85.284 143.259 84.2353 143.259 82.886V77.606H141.191V75.032H141.411C141.998 75.032 142.452 74.878 142.775 74.57C143.098 74.262 143.259 73.8147 143.259 73.228V72.304H146.141V75.032H148.891V77.606H146.141V82.732C146.141 83.128 146.207 83.4653 146.339 83.744C146.486 84.0227 146.706 84.2353 146.999 84.382C147.307 84.5287 147.696 84.602 148.165 84.602C148.268 84.602 148.385 84.5947 148.517 84.58C148.664 84.5653 148.803 84.5507 148.935 84.536V87C148.73 87.0293 148.495 87.0587 148.231 87.088C147.967 87.1173 147.725 87.132 147.505 87.132ZM151.137 87V75.032H154.019V87H151.137ZM151.137 73.69V70.61H154.019V73.69H151.137ZM156.68 87V75.032H159.386V77.386L159.166 76.968C159.445 76.2493 159.899 75.7067 160.53 75.34C161.175 74.9587 161.923 74.768 162.774 74.768C163.654 74.768 164.431 74.9587 165.106 75.34C165.795 75.7213 166.331 76.2567 166.712 76.946C167.093 77.6207 167.284 78.4053 167.284 79.3V87H164.402V79.982C164.402 79.454 164.299 78.9993 164.094 78.618C163.889 78.2367 163.603 77.9433 163.236 77.738C162.884 77.518 162.466 77.408 161.982 77.408C161.513 77.408 161.095 77.518 160.728 77.738C160.361 77.9433 160.075 78.2367 159.87 78.618C159.665 78.9993 159.562 79.454 159.562 79.982V87H156.68ZM173.989 87.264C173.065 87.264 172.258 87.0587 171.569 86.648C170.894 86.2373 170.374 85.6653 170.007 84.932C169.655 84.1987 169.479 83.3407 169.479 82.358V75.032H172.361V82.116C172.361 82.6147 172.456 83.0547 172.647 83.436C172.852 83.8027 173.138 84.096 173.505 84.316C173.886 84.5213 174.312 84.624 174.781 84.624C175.25 84.624 175.668 84.5213 176.035 84.316C176.402 84.096 176.688 83.7953 176.893 83.414C177.098 83.0327 177.201 82.578 177.201 82.05V75.032H180.083V87H177.355V84.646L177.597 85.064C177.318 85.7973 176.856 86.3473 176.211 86.714C175.58 87.0807 174.84 87.264 173.989 87.264ZM188.438 87.264C187.206 87.264 186.128 86.9853 185.204 86.428C184.28 85.8707 183.561 85.1153 183.048 84.162C182.535 83.2087 182.278 82.1527 182.278 80.994C182.278 79.7913 182.535 78.728 183.048 77.804C183.576 76.8653 184.287 76.1247 185.182 75.582C186.091 75.0393 187.103 74.768 188.218 74.768C189.157 74.768 189.978 74.922 190.682 75.23C191.401 75.538 192.009 75.9633 192.508 76.506C193.007 77.0487 193.388 77.672 193.652 78.376C193.916 79.0653 194.048 79.8133 194.048 80.62C194.048 80.8253 194.033 81.038 194.004 81.258C193.989 81.478 193.953 81.6687 193.894 81.83H184.654V79.63H192.266L190.902 80.664C191.034 79.9893 190.997 79.388 190.792 78.86C190.601 78.332 190.279 77.914 189.824 77.606C189.384 77.298 188.849 77.144 188.218 77.144C187.617 77.144 187.081 77.298 186.612 77.606C186.143 77.8993 185.783 78.3393 185.534 78.926C185.299 79.498 185.211 80.1947 185.27 81.016C185.211 81.7493 185.307 82.402 185.556 82.974C185.82 83.5313 186.201 83.964 186.7 84.272C187.213 84.58 187.8 84.734 188.46 84.734C189.12 84.734 189.677 84.5947 190.132 84.316C190.601 84.0373 190.968 83.6633 191.232 83.194L193.564 84.338C193.329 84.91 192.963 85.416 192.464 85.856C191.965 86.296 191.371 86.6407 190.682 86.89C190.007 87.1393 189.259 87.264 188.438 87.264ZM200.143 87V75.032H202.849V77.694L202.629 77.298C202.907 76.4033 203.34 75.78 203.927 75.428C204.528 75.076 205.247 74.9 206.083 74.9H206.787V77.452H205.753C204.931 77.452 204.271 77.7087 203.773 78.222C203.274 78.7207 203.025 79.4247 203.025 80.334V87H200.143ZM214.047 87.264C212.815 87.264 211.737 86.9853 210.813 86.428C209.889 85.8707 209.171 85.1153 208.657 84.162C208.144 83.2087 207.887 82.1527 207.887 80.994C207.887 79.7913 208.144 78.728 208.657 77.804C209.185 76.8653 209.897 76.1247 210.791 75.582C211.701 75.0393 212.713 74.768 213.827 74.768C214.766 74.768 215.587 74.922 216.291 75.23C217.01 75.538 217.619 75.9633 218.117 76.506C218.616 77.0487 218.997 77.672 219.261 78.376C219.525 79.0653 219.657 79.8133 219.657 80.62C219.657 80.8253 219.643 81.038 219.613 81.258C219.599 81.478 219.562 81.6687 219.503 81.83H210.263V79.63H217.875L216.511 80.664C216.643 79.9893 216.607 79.388 216.401 78.86C216.211 78.332 215.888 77.914 215.433 77.606C214.993 77.298 214.458 77.144 213.827 77.144C213.226 77.144 212.691 77.298 212.221 77.606C211.752 77.8993 211.393 78.3393 211.143 78.926C210.909 79.498 210.821 80.1947 210.879 81.016C210.821 81.7493 210.916 82.402 211.165 82.974C211.429 83.5313 211.811 83.964 212.309 84.272C212.823 84.58 213.409 84.734 214.069 84.734C214.729 84.734 215.287 84.5947 215.741 84.316C216.211 84.0373 216.577 83.6633 216.841 83.194L219.173 84.338C218.939 84.91 218.572 85.416 218.073 85.856C217.575 86.296 216.981 86.6407 216.291 86.89C215.617 87.1393 214.869 87.264 214.047 87.264ZM225.429 87.264C224.593 87.264 223.867 87.1247 223.251 86.846C222.635 86.5673 222.158 86.1713 221.821 85.658C221.484 85.13 221.315 84.5213 221.315 83.832C221.315 83.172 221.462 82.5853 221.755 82.072C222.048 81.544 222.503 81.104 223.119 80.752C223.735 80.4 224.512 80.1507 225.451 80.004L229.367 79.366V81.566L226.001 82.138C225.429 82.2407 225.004 82.424 224.725 82.688C224.446 82.952 224.307 83.2967 224.307 83.722C224.307 84.1327 224.461 84.4627 224.769 84.712C225.092 84.9467 225.488 85.064 225.957 85.064C226.558 85.064 227.086 84.9393 227.541 84.69C228.01 84.426 228.37 84.0667 228.619 83.612C228.883 83.1573 229.015 82.6587 229.015 82.116V79.036C229.015 78.5227 228.81 78.0973 228.399 77.76C228.003 77.408 227.475 77.232 226.815 77.232C226.199 77.232 225.649 77.4007 225.165 77.738C224.696 78.0607 224.351 78.4933 224.131 79.036L221.777 77.892C222.012 77.2613 222.378 76.7187 222.877 76.264C223.39 75.7947 223.992 75.428 224.681 75.164C225.37 74.9 226.118 74.768 226.925 74.768C227.908 74.768 228.773 74.9513 229.521 75.318C230.269 75.67 230.848 76.1687 231.259 76.814C231.684 77.4447 231.897 78.1853 231.897 79.036V87H229.169V84.954L229.785 84.91C229.477 85.4233 229.11 85.856 228.685 86.208C228.26 86.5453 227.776 86.8093 227.233 87C226.69 87.176 226.089 87.264 225.429 87.264ZM240.127 87.264C238.968 87.264 237.934 86.9927 237.025 86.45C236.115 85.8927 235.397 85.1373 234.869 84.184C234.341 83.2307 234.077 82.1747 234.077 81.016C234.077 79.8427 234.341 78.7867 234.869 77.848C235.397 76.9093 236.115 76.1613 237.025 75.604C237.949 75.0467 238.975 74.768 240.105 74.768C241.014 74.768 241.821 74.9513 242.525 75.318C243.243 75.67 243.808 76.1687 244.219 76.814L243.779 77.408V70.346H246.661V87H243.933V84.69L244.241 85.262C243.83 85.9073 243.258 86.406 242.525 86.758C241.791 87.0953 240.992 87.264 240.127 87.264ZM240.435 84.624C241.095 84.624 241.674 84.47 242.173 84.162C242.671 83.854 243.06 83.4287 243.339 82.886C243.632 82.3433 243.779 81.72 243.779 81.016C243.779 80.3267 243.632 79.7107 243.339 79.168C243.06 78.6107 242.671 78.178 242.173 77.87C241.674 77.562 241.095 77.408 240.435 77.408C239.789 77.408 239.21 77.5693 238.697 77.892C238.183 78.2 237.78 78.6253 237.487 79.168C237.208 79.696 237.069 80.312 237.069 81.016C237.069 81.72 237.208 82.3433 237.487 82.886C237.78 83.4287 238.183 83.854 238.697 84.162C239.21 84.47 239.789 84.624 240.435 84.624ZM249.342 87V75.032H252.224V87H249.342ZM249.342 73.69V70.61H252.224V73.69H249.342ZM254.885 87V75.032H257.591V77.386L257.371 76.968C257.65 76.2493 258.104 75.7067 258.735 75.34C259.38 74.9587 260.128 74.768 260.979 74.768C261.859 74.768 262.636 74.9587 263.311 75.34C264 75.7213 264.536 76.2567 264.917 76.946C265.298 77.6207 265.489 78.4053 265.489 79.3V87H262.607V79.982C262.607 79.454 262.504 78.9993 262.299 78.618C262.094 78.2367 261.808 77.9433 261.441 77.738C261.089 77.518 260.671 77.408 260.187 77.408C259.718 77.408 259.3 77.518 258.933 77.738C258.566 77.9433 258.28 78.2367 258.075 78.618C257.87 78.9993 257.767 79.454 257.767 79.982V87H254.885ZM273.734 91.84C272.839 91.84 272.011 91.6933 271.248 91.4C270.485 91.1067 269.825 90.696 269.268 90.168C268.725 89.6547 268.329 89.046 268.08 88.342L270.764 87.33C270.94 87.8873 271.285 88.3347 271.798 88.672C272.326 89.024 272.971 89.2 273.734 89.2C274.321 89.2 274.834 89.09 275.274 88.87C275.729 88.65 276.081 88.3273 276.33 87.902C276.579 87.4913 276.704 86.9927 276.704 86.406V83.678L277.254 84.338C276.843 85.0567 276.293 85.5993 275.604 85.966C274.915 86.3327 274.13 86.516 273.25 86.516C272.135 86.516 271.138 86.2593 270.258 85.746C269.378 85.2327 268.689 84.5287 268.19 83.634C267.691 82.7393 267.442 81.7347 267.442 80.62C267.442 79.4907 267.691 78.486 268.19 77.606C268.689 76.726 269.371 76.0367 270.236 75.538C271.101 75.0247 272.084 74.768 273.184 74.768C274.079 74.768 274.863 74.9587 275.538 75.34C276.227 75.7067 276.799 76.242 277.254 76.946L276.858 77.672V75.032H279.586V86.406C279.586 87.4473 279.329 88.3787 278.816 89.2C278.317 90.0213 277.628 90.6667 276.748 91.136C275.883 91.6053 274.878 91.84 273.734 91.84ZM273.602 83.854C274.218 83.854 274.753 83.722 275.208 83.458C275.677 83.1793 276.044 82.798 276.308 82.314C276.572 81.83 276.704 81.2727 276.704 80.642C276.704 80.026 276.565 79.476 276.286 78.992C276.022 78.4933 275.655 78.1047 275.186 77.826C274.731 77.5473 274.203 77.408 273.602 77.408C273.001 77.408 272.458 77.5473 271.974 77.826C271.49 78.1047 271.109 78.4933 270.83 78.992C270.566 79.476 270.434 80.026 270.434 80.642C270.434 81.258 270.566 81.808 270.83 82.292C271.109 82.776 271.483 83.1573 271.952 83.436C272.436 83.7147 272.986 83.854 273.602 83.854ZM286.188 87V75.032H288.894V77.804L288.586 77.342C288.806 76.4767 289.246 75.8313 289.906 75.406C290.566 74.9807 291.343 74.768 292.238 74.768C293.22 74.768 294.086 75.0247 294.834 75.538C295.582 76.0513 296.066 76.726 296.286 77.562L295.472 77.628C295.838 76.6747 296.388 75.9633 297.122 75.494C297.855 75.01 298.698 74.768 299.652 74.768C300.502 74.768 301.258 74.9587 301.918 75.34C302.592 75.7213 303.12 76.2567 303.502 76.946C303.883 77.6207 304.074 78.4053 304.074 79.3V87H301.192V79.982C301.192 79.454 301.096 78.9993 300.906 78.618C300.715 78.2367 300.451 77.9433 300.114 77.738C299.776 77.518 299.366 77.408 298.882 77.408C298.427 77.408 298.024 77.518 297.672 77.738C297.32 77.9433 297.048 78.2367 296.858 78.618C296.667 78.9993 296.572 79.454 296.572 79.982V87H293.69V79.982C293.69 79.454 293.594 78.9993 293.404 78.618C293.213 78.2367 292.942 77.9433 292.59 77.738C292.252 77.518 291.849 77.408 291.38 77.408C290.925 77.408 290.522 77.518 290.17 77.738C289.818 77.9433 289.546 78.2367 289.356 78.618C289.165 78.9993 289.07 79.454 289.07 79.982V87H286.188ZM307.749 91.862C307.426 91.862 307.111 91.8327 306.803 91.774C306.495 91.73 306.216 91.6493 305.967 91.532V89.112C306.158 89.156 306.385 89.2 306.649 89.244C306.928 89.288 307.184 89.31 307.419 89.31C308.079 89.31 308.556 89.156 308.849 88.848C309.157 88.54 309.428 88.1367 309.663 87.638L310.455 85.79L310.411 88.21L305.197 75.032H308.299L311.951 84.756H310.851L314.481 75.032H317.605L312.391 88.21C312.083 88.9873 311.709 89.6473 311.269 90.19C310.829 90.7327 310.316 91.1433 309.729 91.422C309.157 91.7153 308.497 91.862 307.749 91.862ZM327.652 87.264C326.376 87.264 325.261 86.9633 324.308 86.362C323.369 85.746 322.724 84.9173 322.372 83.876L324.528 82.842C324.836 83.5167 325.261 84.0447 325.804 84.426C326.361 84.8073 326.977 84.998 327.652 84.998C328.18 84.998 328.598 84.8807 328.906 84.646C329.214 84.4113 329.368 84.1033 329.368 83.722C329.368 83.4873 329.302 83.2967 329.17 83.15C329.053 82.9887 328.884 82.8567 328.664 82.754C328.459 82.6367 328.231 82.5413 327.982 82.468L326.024 81.918C325.012 81.6247 324.242 81.1773 323.714 80.576C323.201 79.9747 322.944 79.2633 322.944 78.442C322.944 77.7087 323.127 77.0707 323.494 76.528C323.875 75.9707 324.396 75.538 325.056 75.23C325.731 74.922 326.501 74.768 327.366 74.768C328.495 74.768 329.493 75.0393 330.358 75.582C331.223 76.1247 331.839 76.8873 332.206 77.87L330.006 78.904C329.801 78.3613 329.456 77.9287 328.972 77.606C328.488 77.2833 327.945 77.122 327.344 77.122C326.86 77.122 326.479 77.232 326.2 77.452C325.921 77.672 325.782 77.958 325.782 78.31C325.782 78.53 325.841 78.7207 325.958 78.882C326.075 79.0433 326.237 79.1753 326.442 79.278C326.662 79.3807 326.911 79.476 327.19 79.564L329.104 80.136C330.087 80.4293 330.842 80.8693 331.37 81.456C331.913 82.0427 332.184 82.7613 332.184 83.612C332.184 84.3307 331.993 84.9687 331.612 85.526C331.231 86.0687 330.703 86.494 330.028 86.802C329.353 87.11 328.561 87.264 327.652 87.264ZM339.855 87.132C338.505 87.132 337.457 86.7653 336.709 86.032C335.975 85.284 335.609 84.2353 335.609 82.886V77.606H333.541V75.032H333.761C334.347 75.032 334.802 74.878 335.125 74.57C335.447 74.262 335.609 73.8147 335.609 73.228V72.304H338.491V75.032H341.241V77.606H338.491V82.732C338.491 83.128 338.557 83.4653 338.689 83.744C338.835 84.0227 339.055 84.2353 339.349 84.382C339.657 84.5287 340.045 84.602 340.515 84.602C340.617 84.602 340.735 84.5947 340.867 84.58C341.013 84.5653 341.153 84.5507 341.285 84.536V87C341.079 87.0293 340.845 87.0587 340.581 87.088C340.317 87.1173 340.075 87.132 339.855 87.132ZM349.231 87.264C348.058 87.264 346.987 86.9927 346.019 86.45C345.066 85.9073 344.303 85.1667 343.731 84.228C343.174 83.2893 342.895 82.2187 342.895 81.016C342.895 79.8133 343.174 78.7427 343.731 77.804C344.303 76.8653 345.066 76.1247 346.019 75.582C346.972 75.0393 348.043 74.768 349.231 74.768C350.404 74.768 351.468 75.0393 352.421 75.582C353.374 76.1247 354.13 76.8653 354.687 77.804C355.259 78.728 355.545 79.7987 355.545 81.016C355.545 82.2187 355.259 83.2893 354.687 84.228C354.115 85.1667 353.352 85.9073 352.399 86.45C351.446 86.9927 350.39 87.264 349.231 87.264ZM349.231 84.624C349.876 84.624 350.441 84.47 350.925 84.162C351.424 83.854 351.812 83.4287 352.091 82.886C352.384 82.3287 352.531 81.7053 352.531 81.016C352.531 80.312 352.384 79.696 352.091 79.168C351.812 78.6253 351.424 78.2 350.925 77.892C350.441 77.5693 349.876 77.408 349.231 77.408C348.571 77.408 347.992 77.5693 347.493 77.892C346.994 78.2 346.598 78.6253 346.305 79.168C346.026 79.696 345.887 80.312 345.887 81.016C345.887 81.7053 346.026 82.3287 346.305 82.886C346.598 83.4287 346.994 83.854 347.493 84.162C347.992 84.47 348.571 84.624 349.231 84.624ZM357.731 87V75.032H360.437V77.694L360.217 77.298C360.495 76.4033 360.928 75.78 361.515 75.428C362.116 75.076 362.835 74.9 363.671 74.9H364.375V77.452H363.341C362.519 77.452 361.859 77.7087 361.361 78.222C360.862 78.7207 360.613 79.4247 360.613 80.334V87H357.731ZM367.411 91.862C367.089 91.862 366.773 91.8327 366.465 91.774C366.157 91.73 365.879 91.6493 365.629 91.532V89.112C365.82 89.156 366.047 89.2 366.311 89.244C366.59 89.288 366.847 89.31 367.081 89.31C367.741 89.31 368.218 89.156 368.511 88.848C368.819 88.54 369.091 88.1367 369.325 87.638L370.117 85.79L370.073 88.21L364.859 75.032H367.961L371.613 84.756H370.513L374.143 75.032H377.267L372.053 88.21C371.745 88.9873 371.371 89.6473 370.931 90.19C370.491 90.7327 369.978 91.1433 369.391 91.422C368.819 91.7153 368.159 91.862 367.411 91.862Z" fill="white"/>
<defs>
<filter id="filter0_f_1285_159" x="0.476807" y="0.338257" width="473.061" height="175.336" filterUnits="userSpaceOnUse" color-interpolation-filters="sRGB">
<feFlood flood-opacity="0" result="BackgroundImageFix"/>
<feBlend mode="normal" in="SourceGraphic" in2="BackgroundImageFix" result="shape"/>
<feGaussianBlur stdDeviation="25" result="effect1_foregroundBlur_1285_159"/>
</filter>
<linearGradient id="paint0_linear_1285_159" x1="48.432" y1="88.0145" x2="421.084" y2="88.0145" gradientUnits="userSpaceOnUse">
<stop stop-color="#00ABB2"/>
<stop offset="0.234375" stop-color="#00ABB2"/>
<stop offset="0.739583" stop-color="#A154A1"/>
<stop offset="1" stop-color="#A154A1"/>
</linearGradient>
</defs>
</svg>
