<svg width="176" height="38" viewBox="0 0 176 38" fill="none" xmlns="http://www.w3.org/2000/svg">
<path d="M24.6376 1.41773C24.2871 1.94233 24.1 2.55908 24.1 3.19C24.1078 4.03362 24.4464 4.84047 25.043 5.43702C25.6395 6.03358 26.4464 6.37218 27.29 6.38C27.9209 6.38 28.5377 6.19291 29.0622 5.84239C29.5868 5.49187 29.9957 4.99366 30.2372 4.41076C30.4786 3.82787 30.5418 3.18646 30.4187 2.56766C30.2956 1.94886 29.9918 1.38046 29.5456 0.934331C29.0995 0.488201 28.5311 0.184383 27.9123 0.0612964C27.2935 -0.0617905 26.6521 0.00138219 26.0692 0.242826C25.4863 0.484269 24.9881 0.89314 24.6376 1.41773Z" fill="white"/>
<path d="M30 9.35H24.65V29.58H30V9.35Z" fill="white"/>
<path fill-rule="evenodd" clip-rule="evenodd" d="M12.4524 29.2568C13.5263 28.7251 14.4657 27.9569 15.2 27.01V29.58H20.6V1.64001H15.24V11.95C14.5135 10.9827 13.5709 10.1985 12.4875 9.66029C11.404 9.12204 10.2098 8.84457 9 8.85001C3.81 8.85001 0 12.73 0 19.48C0 26.23 3.89 30.08 9 30.08C10.1982 30.07 11.3786 29.7885 12.4524 29.2568ZM13.1673 14.1854C13.9648 14.5841 14.6602 15.1604 15.2 15.87V23.01C14.6627 23.7246 13.9686 24.3062 13.1711 24.7102C12.3736 25.1142 11.4939 25.3296 10.6 25.34C7.58 25.34 5.49 22.98 5.49 19.47C5.49 15.96 7.6 13.57 10.6 13.57C11.4916 13.5761 12.3699 13.7866 13.1673 14.1854Z" fill="white"/>
<path fill-rule="evenodd" clip-rule="evenodd" d="M37 30.92C37.8044 31.7769 38.7877 32.4461 39.88 32.8799C40.9723 33.3137 42.1468 33.5015 43.32 33.43C45.88 33.43 48.89 32.3 48.89 28.32V26.32C48.1665 27.2963 47.2265 28.0916 46.1437 28.6434C45.061 29.1952 43.8651 29.4884 42.65 29.5C37.59 29.5 33.74 25.94 33.74 19.2C33.74 12.46 37.55 8.89998 42.65 8.89998C43.8598 8.89453 45.054 9.17201 46.1375 9.71026C47.2209 10.2485 48.1635 11.0326 48.89 12V9.34998H54.25V28.19C54.25 35.9 48.31 37.78 43.32 37.78C40.1362 37.9567 37.0097 36.8798 34.61 34.78L37 30.92ZM48.89 15.92C48.359 15.2107 47.671 14.6339 46.8799 14.2349C46.0888 13.8359 45.216 13.6254 44.33 13.62C41.33 13.62 39.22 15.71 39.22 19.19C39.22 22.67 41.31 24.76 44.33 24.76C45.2152 24.7444 46.0854 24.5285 46.8751 24.1284C47.6649 23.7283 48.3538 23.1545 48.89 22.45V15.92Z" fill="white"/>
<path d="M57.8976 1.41773C57.5471 1.94233 57.36 2.55908 57.36 3.19C57.3678 4.03362 57.7064 4.84047 58.303 5.43702C58.8995 6.03358 59.7064 6.37218 60.55 6.38C61.1809 6.38 61.7977 6.19291 62.3223 5.84239C62.8468 5.49187 63.2557 4.99366 63.4972 4.41076C63.7386 3.82787 63.8018 3.18646 63.6787 2.56766C63.5556 1.94886 63.2518 1.38046 62.8057 0.934331C62.3595 0.488201 61.7911 0.184383 61.1723 0.0612964C60.5535 -0.0617905 59.9121 0.00138219 59.3292 0.242826C58.7463 0.484269 58.2481 0.89314 57.8976 1.41773Z" fill="white"/>
<path d="M63.23 9.35H57.91V29.58H63.23V9.35Z" fill="white"/>
<path d="M70.12 24.5499V14.0099H66.77V9.34995H70.12V3.81995H75.49V9.34995H79.59V14.0099H75.49V23.1399C75.49 24.3899 76.15 25.3599 77.33 25.3599C77.9925 25.3778 78.6414 25.1697 79.17 24.7699L80.3 28.7699C79.0266 29.7273 77.4487 30.1893 75.86 30.0699C72.13 30.0799 70.12 28.1499 70.12 24.5499Z" fill="white"/>
<path fill-rule="evenodd" clip-rule="evenodd" d="M92.9158 29.4722C94.0213 29.0238 95.0182 28.3446 95.84 27.48V29.58H101.17V16.51C101.17 10.69 96.9401 8.84995 92.3301 8.84995C89.0942 8.79654 85.9504 9.92747 83.4901 12.03L85.4901 15.59C87.0771 14.0594 89.1952 13.2029 91.4001 13.2C94.0801 13.2 95.84 14.59 95.84 16.59V19.4C94.5001 17.77 92.1101 16.93 89.4301 16.93C86.2401 16.93 82.4301 18.65 82.4301 23.38C82.4301 27.9 86.2101 30.08 89.4301 30.08C90.622 30.1278 91.8104 29.9206 92.9158 29.4722ZM93.9068 20.8404C94.6463 21.1452 95.3072 21.6134 95.84 22.21V24.69C95.3054 25.2842 94.6442 25.7508 93.9052 26.0555C93.1661 26.3601 92.3681 26.4949 91.5701 26.45C89.4701 26.45 87.7601 25.32 87.7601 23.45C87.7601 21.58 89.4701 20.45 91.5701 20.45C92.3685 20.4021 93.1674 20.5356 93.9068 20.8404Z" fill="white"/>
<path d="M104.94 1.64001H110.26V29.58H104.94V1.64001Z" fill="white"/>
<path fill-rule="evenodd" clip-rule="evenodd" d="M116.784 11.8739C114.777 13.8806 113.65 16.6022 113.65 19.44C113.65 22.2778 114.777 24.9994 116.784 27.006C118.791 29.0127 121.512 30.14 124.35 30.14C127.188 30.14 129.909 29.0127 131.916 27.006C133.923 24.9994 135.05 22.2778 135.05 19.44C135.05 16.6022 133.923 13.8806 131.916 11.8739C129.909 9.86731 127.188 8.73999 124.35 8.73999C121.512 8.73999 118.791 9.86731 116.784 11.8739ZM124.32 13.58C127.63 13.58 129.52 16.3 129.52 19.44C129.52 22.62 127.62 25.35 124.32 25.35C121.02 25.35 119.17 22.58 119.17 19.44C119.17 16.3 121.01 13.58 124.32 13.58Z" fill="white"/>
<path d="M140.29 14.0101H136.94V9.35006H140.29V8.26006C140.29 3.86006 143.14 1.26006 147.12 1.26006C148.451 1.23831 149.769 1.52585 150.97 2.10006L149.88 5.87006C149.359 5.57729 148.768 5.43209 148.17 5.45006C146.66 5.45006 145.65 6.45006 145.65 8.38006V9.38006H149.28V9.34995H155.93V3.81995H161.29V9.34995H165.39V14.0099H161.29V23.1399C161.29 24.3899 161.96 25.3599 163.13 25.3599C163.795 25.3738 164.446 25.1663 164.98 24.7699L166.11 28.7699C164.836 29.7256 163.258 30.1874 161.67 30.0699C157.94 30.0799 155.93 28.1499 155.93 24.5499V14.0099L145.65 14.0101V29.5801H140.29V14.0101Z" fill="white"/>
<path d="M172 23.2901C172.673 23.2881 173.331 23.4858 173.892 23.8582C174.452 24.2306 174.889 24.7609 175.148 25.382C175.407 26.0031 175.476 26.687 175.346 27.3472C175.216 28.0074 174.893 28.6142 174.418 29.0907C173.943 29.5672 173.337 29.892 172.677 30.024C172.017 30.156 171.333 30.0892 170.711 29.8322C170.089 29.5751 169.558 29.1394 169.184 28.58C168.81 28.0207 168.61 27.3629 168.61 26.6901C168.618 25.7925 168.977 24.9337 169.611 24.298C170.245 23.6624 171.102 23.3005 172 23.2901Z" fill="#FF4A22"/>
</svg>
