<svg width="187" height="640" viewBox="0 0 187 640" fill="none" xmlns="http://www.w3.org/2000/svg">
<line y1="-1.5" x2="222.342" y2="-1.5" transform="matrix(-0.83205 -0.5547 -0.5547 0.83205 185 103.333)" stroke="#EFEFF1" stroke-width="3"/>
<line y1="-1.5" x2="222.342" y2="-1.5" transform="matrix(-0.83205 -0.5547 -0.5547 0.83205 185 220)" stroke="#EFEFF1" stroke-width="3"/>
<line y1="-1.5" x2="222.342" y2="-1.5" transform="matrix(-0.83205 -0.5547 -0.5547 0.83205 185 336.666)" stroke="#EFEFF1" stroke-width="3"/>
<line y1="-1.5" x2="222.342" y2="-1.5" transform="matrix(-0.83205 -0.5547 -0.5547 0.83205 185 453.332)" stroke="#EFEFF1" stroke-width="3"/>
<line y1="-1.5" x2="222.342" y2="-1.5" transform="matrix(-0.83205 -0.5547 -0.5547 0.83205 185 569.999)" stroke="#EFEFF1" stroke-width="3"/>
<line y1="-1.5" x2="222.342" y2="-1.5" transform="matrix(-0.83205 -0.5547 -0.5547 0.83205 185 126.667)" stroke="#EFEFF1" stroke-width="3"/>
<line y1="-1.5" x2="222.342" y2="-1.5" transform="matrix(-0.83205 -0.5547 -0.5547 0.83205 185 243.333)" stroke="#EFEFF1" stroke-width="3"/>
<line y1="-1.5" x2="222.342" y2="-1.5" transform="matrix(-0.83205 -0.5547 -0.5547 0.83205 185 359.999)" stroke="#EFEFF1" stroke-width="3"/>
<line y1="-1.5" x2="222.342" y2="-1.5" transform="matrix(-0.83205 -0.5547 -0.5547 0.83205 185 476.666)" stroke="#EFEFF1" stroke-width="3"/>
<line y1="-1.5" x2="222.342" y2="-1.5" transform="matrix(-0.83205 -0.5547 -0.5547 0.83205 185 593.332)" stroke="#EFEFF1" stroke-width="3"/>
<line y1="-1.5" x2="222.342" y2="-1.5" transform="matrix(-0.83205 -0.5547 -0.5547 0.83205 185 150)" stroke="#EFEFF1" stroke-width="3"/>
<line y1="-1.5" x2="222.342" y2="-1.5" transform="matrix(-0.83205 -0.5547 -0.5547 0.83205 185 266.666)" stroke="#EFEFF1" stroke-width="3"/>
<line y1="-1.5" x2="222.342" y2="-1.5" transform="matrix(-0.83205 -0.5547 -0.5547 0.83205 185 383.333)" stroke="#EFEFF1" stroke-width="3"/>
<line y1="-1.5" x2="222.342" y2="-1.5" transform="matrix(-0.83205 -0.5547 -0.5547 0.83205 185 499.999)" stroke="#EFEFF1" stroke-width="3"/>
<line y1="-1.5" x2="222.342" y2="-1.5" transform="matrix(-0.83205 -0.5547 -0.5547 0.83205 185 616.665)" stroke="#EFEFF1" stroke-width="3"/>
<line y1="-1.5" x2="222.342" y2="-1.5" transform="matrix(-0.83205 -0.5547 -0.5547 0.83205 185 173.333)" stroke="#EFEFF1" stroke-width="3"/>
<line y1="-1.5" x2="222.342" y2="-1.5" transform="matrix(-0.83205 -0.5547 -0.5547 0.83205 185 290)" stroke="#EFEFF1" stroke-width="3"/>
<line y1="-1.5" x2="222.342" y2="-1.5" transform="matrix(-0.83205 -0.5547 -0.5547 0.83205 185 406.666)" stroke="#EFEFF1" stroke-width="3"/>
<line y1="-1.5" x2="222.342" y2="-1.5" transform="matrix(-0.83205 -0.5547 -0.5547 0.83205 185 523.332)" stroke="#EFEFF1" stroke-width="3"/>
<line y1="-1.5" x2="222.342" y2="-1.5" transform="matrix(-0.83205 -0.5547 -0.5547 0.83205 185 639.998)" stroke="#EFEFF1" stroke-width="3"/>
<line y1="-1.5" x2="222.342" y2="-1.5" transform="matrix(-0.83205 -0.5547 -0.5547 0.83205 185 196.666)" stroke="#EFEFF1" stroke-width="3"/>
<line y1="-1.5" x2="222.342" y2="-1.5" transform="matrix(-0.83205 -0.5547 -0.5547 0.83205 185 313.333)" stroke="#EFEFF1" stroke-width="3"/>
<line y1="-1.5" x2="222.342" y2="-1.5" transform="matrix(-0.83205 -0.5547 -0.5547 0.83205 185 429.999)" stroke="#EFEFF1" stroke-width="3"/>
<line y1="-1.5" x2="222.342" y2="-1.5" transform="matrix(-0.83205 -0.5547 -0.5547 0.83205 185 546.665)" stroke="#EFEFF1" stroke-width="3"/>
</svg>
