<svg width="921" height="427" viewBox="0 0 921 427" fill="none" xmlns="http://www.w3.org/2000/svg">
<path opacity="0.35" d="M1.00027 145.5H919M1.00027 185.5H919M1.00027 225.5H919M1.00027 265.5H919M1.00027 305.5H919M1.00027 345.5H919M200.5 145L200.5 346M160.5 145L160.5 346M120.5 145L120.5 346M80.5 145L80.5 346M40.5 145L40.5 346M0.500017 145L0.5 346M440.5 145L440.5 346M680.5 145V346M920.5 145V346M400.5 145L400.5 346M640.5 145V346M880.5 145V346M360.5 145L360.5 346M600.5 145V346M840.5 145V346M320.5 145L320.5 346M560.5 145V346M800.5 145V346M280.5 145L280.5 346M520.5 145V346M760.5 145V346M240.5 145L240.5 346M480.5 145L480.5 346M720.5 145V346" stroke="#82C4D9"/>
<circle cx="460.5" cy="245.5" r="162" stroke="#FF675E" stroke-width="3"/>
<circle cx="460.5" cy="245.5" r="135.5" fill="#82C4D9"/>
<mask id="mask0_1262_238" style="mask-type:alpha" maskUnits="userSpaceOnUse" x="0" y="110" width="921" height="271">
<path d="M200.5 110L200.5 381M160.5 110L160.5 381M120.5 110L120.5 381M80.5 110L80.5 381M40.5 110L40.5 381M0.500012 110L0.5 381M440.5 110L440.5 381M680.5 110V381M920.5 110V381M400.5 110L400.5 381M640.5 110V381M880.5 110V381M360.5 110L360.5 381M600.5 110V381M840.5 110V381M320.5 110L320.5 381M560.5 110V381M800.5 110V381M280.5 110L280.5 381M520.5 110V381M760.5 110V381M240.5 110L240.5 381M480.5 110L480.5 381M720.5 110V381M0.999995 145.5H919M0.999995 185.5H919M0.999995 225.5H919M0.999995 265.5H919M0.999995 305.5H919M0.999995 345.5H919" stroke="#82C4D9"/>
</mask>
<g mask="url(#mask0_1262_238)">
<circle opacity="0.3" cx="460.5" cy="245.5" r="135.5" fill="white"/>
</g>
<g filter="url(#filter0_f_1262_238)">
<path d="M270.009 376.653C268.096 376.654 266.222 376.107 264.61 375.076C262.998 374.044 261.716 372.572 260.916 370.834C260.116 369.096 259.831 367.165 260.096 365.27C260.361 363.375 261.164 361.595 262.409 360.143L311.009 303.513C311.941 302.421 313.096 301.542 314.397 300.937C315.698 300.331 317.114 300.012 318.549 300.003C319.058 300.003 319.566 300.043 320.069 300.123L352.629 305.123L422.309 179.773C422.982 178.561 423.899 177.502 425.003 176.664C426.106 175.826 427.372 175.226 428.719 174.903C429.483 174.724 430.265 174.633 431.049 174.633C433.046 174.634 434.996 175.233 436.649 176.353L503.259 221.433L565.119 125.433L521.549 115.243C519.484 114.757 517.627 113.626 516.246 112.015C514.866 110.404 514.033 108.395 513.87 106.28C513.706 104.165 514.219 102.052 515.336 100.247C516.452 98.4431 518.113 97.0406 520.079 96.2426L632.569 50.7326C634.004 50.1511 635.553 49.9105 637.096 50.0297C638.64 50.1489 640.134 50.6247 641.462 51.4196C642.79 52.2144 643.916 53.3067 644.75 54.6105C645.584 55.9142 646.104 57.3937 646.269 58.9326L659.409 181.003C659.641 183.131 659.185 185.277 658.106 187.127C657.027 188.976 655.383 190.43 653.416 191.275C651.449 192.12 649.263 192.312 647.179 191.822C645.095 191.332 643.223 190.186 641.839 188.553L612.129 153.553L517.789 285.003C516.985 286.123 515.957 287.064 514.772 287.768C513.586 288.472 512.268 288.923 510.899 289.093C510.492 289.149 510.081 289.176 509.669 289.173C507.309 289.175 505.025 288.343 503.219 286.823L441.869 235.113L378.429 353.433C377.574 355.025 376.303 356.356 374.752 357.284C373.201 358.212 371.427 358.703 369.619 358.703C368.772 358.705 367.928 358.598 367.109 358.383L322.379 346.803L275.169 375.223C273.611 376.159 271.827 376.654 270.009 376.653Z" fill="url(#paint0_linear_1262_238)"/>
</g>
<path d="M270.009 376.653C268.096 376.654 266.222 376.107 264.61 375.076C262.998 374.044 261.716 372.572 260.916 370.834C260.116 369.096 259.831 367.165 260.096 365.27C260.361 363.375 261.164 361.595 262.409 360.143L311.009 303.513C311.941 302.421 313.096 301.542 314.397 300.937C315.698 300.331 317.114 300.012 318.549 300.003C319.058 300.003 319.566 300.043 320.069 300.123L352.629 305.123L422.309 179.773C422.982 178.561 423.899 177.502 425.003 176.664C426.106 175.826 427.372 175.226 428.719 174.903C429.483 174.724 430.265 174.633 431.049 174.633C433.046 174.634 434.996 175.233 436.649 176.353L503.259 221.433L565.119 125.433L521.549 115.243C519.484 114.757 517.627 113.626 516.246 112.015C514.866 110.404 514.033 108.395 513.87 106.28C513.706 104.165 514.219 102.052 515.336 100.247C516.452 98.4431 518.113 97.0406 520.079 96.2426L632.569 50.7326C634.004 50.1511 635.553 49.9105 637.096 50.0297C638.64 50.1489 640.134 50.6247 641.462 51.4196C642.79 52.2144 643.916 53.3067 644.75 54.6105C645.584 55.9142 646.104 57.3937 646.269 58.9326L659.409 181.003C659.641 183.131 659.185 185.277 658.106 187.127C657.027 188.976 655.383 190.43 653.416 191.275C651.449 192.12 649.263 192.312 647.179 191.822C645.095 191.332 643.223 190.186 641.839 188.553L612.129 153.553L517.789 285.003C516.985 286.123 515.957 287.064 514.772 287.768C513.586 288.472 512.268 288.923 510.899 289.093C510.492 289.149 510.081 289.176 509.669 289.173C507.309 289.175 505.025 288.343 503.219 286.823L441.869 235.113L378.429 353.433C377.574 355.025 376.303 356.356 374.752 357.284C373.201 358.212 371.427 358.703 369.619 358.703C368.772 358.705 367.928 358.598 367.109 358.383L322.379 346.803L275.169 375.223C273.611 376.159 271.827 376.654 270.009 376.653Z" fill="white"/>
<path d="M270.009 366.653L318.549 310.023L357.989 316.093L431.049 184.633L506.129 235.453L581.209 118.903L523.819 105.513L636.319 60.0027L649.469 182.103L611.469 137.343L509.669 279.183L438.879 219.523L369.619 348.703L320.819 336.063L270.009 366.653Z" fill="url(#paint1_linear_1262_238)"/>
<defs>
<filter id="filter0_f_1262_238" x="210" y="0" width="499.468" height="426.653" filterUnits="userSpaceOnUse" color-interpolation-filters="sRGB">
<feFlood flood-opacity="0" result="BackgroundImageFix"/>
<feBlend mode="normal" in="SourceGraphic" in2="BackgroundImageFix" result="shape"/>
<feGaussianBlur stdDeviation="25" result="effect1_foregroundBlur_1262_238"/>
</filter>
<linearGradient id="paint0_linear_1262_238" x1="257.812" y1="213.326" x2="656.843" y2="213.326" gradientUnits="userSpaceOnUse">
<stop stop-color="#00ABB2"/>
<stop offset="0.234375" stop-color="#00ABB2"/>
<stop offset="0.739583" stop-color="#A154A1"/>
<stop offset="1" stop-color="#A154A1"/>
</linearGradient>
<linearGradient id="paint1_linear_1262_238" x1="705" y1="14" x2="201" y2="428" gradientUnits="userSpaceOnUse">
<stop offset="0.301879" stop-color="#82C4D9"/>
<stop offset="1" stop-color="#493BCD"/>
</linearGradient>
</defs>
</svg>
