<svg width="631" height="441" viewBox="0 0 631 441" fill="none" xmlns="http://www.w3.org/2000/svg">
<g clip-path="url(#clip0_1246_176)">
<path d="M291.76 220.06C295.727 213.646 300.695 207.905 306.477 203.057H301.608C311.704 211.298 327.054 208.743 335.279 199.019C339.868 193.629 342.341 186.76 342.24 179.687C342.139 172.613 339.47 165.817 334.729 160.561C331.813 157.237 326.971 162.127 329.887 165.423C333.349 169.363 335.3 174.399 335.396 179.639C335.492 184.879 333.725 189.984 330.41 194.047C324.908 200.694 313.739 204.046 306.477 198.085C305.813 197.477 304.944 197.139 304.043 197.139C303.141 197.139 302.273 197.477 301.608 198.085C295.4 203.344 290.07 209.557 285.818 216.489C283.48 220.253 289.422 223.714 291.76 219.951V220.06Z" fill="#493BCD"/>
<path d="M443.252 117.653L458.189 128.476C458.579 128.704 459.01 128.852 459.458 128.913C459.905 128.974 460.36 128.946 460.797 128.831C461.234 128.717 461.644 128.517 462.004 128.244C462.363 127.971 462.665 127.63 462.893 127.24C463.338 126.45 463.458 125.518 463.227 124.641C462.996 123.764 462.432 123.012 461.655 122.543L446.718 111.72C446.327 111.492 445.896 111.344 445.449 111.283C445.001 111.222 444.546 111.25 444.109 111.365C443.672 111.479 443.262 111.679 442.903 111.952C442.543 112.225 442.241 112.566 442.014 112.956C441.575 113.747 441.459 114.677 441.69 115.552C441.92 116.427 442.48 117.18 443.252 117.653Z" fill="#FF675E"/>
<path d="M471.531 90.2108H501.956C502.868 90.2108 503.742 89.849 504.387 89.2051C505.032 88.5611 505.394 87.6878 505.394 86.7771C505.394 85.8664 505.032 84.993 504.387 84.3491C503.742 83.7051 502.868 83.3433 501.956 83.3433H471.531C470.619 83.3433 469.744 83.7051 469.099 84.3491C468.454 84.993 468.092 85.8664 468.092 86.7771C468.092 87.6878 468.454 88.5611 469.099 89.2051C469.744 89.849 470.619 90.2108 471.531 90.2108Z" fill="#FF675E"/>
<path d="M464.901 52.9892L490.677 35.958C491.449 35.4843 492.008 34.7319 492.239 33.857C492.469 32.9822 492.353 32.0523 491.915 31.2606C491.445 30.4846 490.692 29.9215 489.814 29.6908C488.936 29.46 488.002 29.5797 487.211 30.0245L461.435 47.0832C460.663 47.5568 460.104 48.3093 459.873 49.1841C459.643 50.059 459.759 50.9889 460.197 51.7806C460.666 52.5574 461.422 53.1193 462.302 53.3453C463.181 53.5713 464.115 53.4435 464.901 52.9892Z" fill="#FF675E"/>
<path d="M441.573 29.7498C443.84 21.2795 446.803 13.0105 450.431 5.02697C450.863 4.23384 450.975 3.30614 450.745 2.43319C450.515 1.56025 449.96 0.807878 449.193 0.329635C448.404 -0.122256 447.468 -0.245912 446.588 -0.0146312C445.708 0.21665 444.954 0.78431 444.489 1.56578C440.597 10.0454 437.405 18.8283 434.944 27.8269C434.735 28.6941 434.873 29.6082 435.328 30.3759C435.782 31.1435 436.518 31.7045 437.379 31.94C438.241 32.1756 439.16 32.0673 439.943 31.638C440.726 31.2087 441.31 30.4921 441.573 29.6399V29.7498Z" fill="#FF675E"/>
<path d="M404.051 26.3161C396.882 19.1895 390.533 11.2839 385.125 2.74698C384.656 1.97093 383.902 1.40789 383.024 1.17715C382.146 0.946405 381.212 1.06609 380.421 1.51084C379.643 1.97924 379.08 2.73389 378.854 3.61238C378.628 4.49087 378.756 5.423 379.211 6.20817C384.936 15.2567 391.663 23.6328 399.265 31.1782C399.918 31.7649 400.772 32.0795 401.65 32.0575C402.529 32.0355 403.365 31.6785 403.988 31.0597C404.612 30.441 404.974 29.6076 405.001 28.7305C405.028 27.8535 404.718 26.9993 404.134 26.3435L404.051 26.3161Z" fill="#FF675E"/>
<path d="M379.623 64.4991C371.714 58.2492 363.294 52.6717 354.453 47.8249C353.665 47.3659 352.726 47.2383 351.844 47.4701C350.962 47.702 350.208 48.2742 349.749 49.061C349.289 49.8479 349.161 50.7848 349.393 51.6657C349.625 52.5466 350.199 53.2994 350.987 53.7584C359.337 58.2782 367.288 63.4979 374.754 69.3612C375.413 69.9813 376.284 70.3266 377.189 70.3266C378.094 70.3266 378.965 69.9813 379.623 69.3612C380.257 68.7101 380.611 67.838 380.611 66.9301C380.611 66.0223 380.257 65.1502 379.623 64.4991Z" fill="#FF675E"/>
<path d="M387.161 434.023C360.382 423.755 336.924 406.372 319.324 383.753C357.359 376.556 395.689 371.236 434.311 367.793L426.058 385.017C422.015 393.258 417.806 401.718 413.322 409.739C407.16 420.508 399.567 431.056 388.894 437.209" fill="#FF675E"/>
<path d="M389.169 107.627C392.73 98.2868 394.222 88.2873 393.543 78.3164C393.158 73.0422 392.195 67.6032 393.708 62.5212C395.434 57.4286 399.115 53.2292 403.941 50.8466C408.754 48.5112 414.051 47.3441 419.401 47.4403C424.884 47.1902 430.322 48.5358 435.054 51.3136C440.235 55.2086 444.079 60.6118 446.057 66.7791C449.523 75.5694 451.339 85.6233 447.708 94.2489C445.976 97.9651 443.509 101.293 440.455 104.031C437.401 106.769 433.823 108.861 429.937 110.181C425.096 111.967 419.924 112.928 415.082 114.604C410.088 116.135 405.892 119.556 403.391 124.136L391.067 111.088" fill="#FF675E"/>
<path d="M314.757 93.1775C313.604 92.8013 312.428 92.4985 311.236 92.271C309.931 89.0211 308.191 85.9625 306.064 83.1785C295.061 68.8393 275.97 64.4166 258.694 64.5265C239.889 64.8612 221.341 68.9522 204.144 76.5583C186.717 84.1649 170.637 94.5358 156.526 107.27C141.908 119.819 130.178 135.373 122.14 152.869C112.704 174.625 108.825 198.964 105.634 222.313C102.423 245.851 100.979 269.597 101.315 293.35C93.0534 294.189 85.1297 297.065 78.2563 301.719C71.3829 306.373 65.7754 312.659 61.9376 320.014C58.0998 327.368 56.1521 335.559 56.2695 343.851C56.387 352.143 58.5658 360.275 62.6103 367.518C64.7285 371.419 70.6704 367.958 68.5522 364.057C64.9777 357.596 63.1191 350.329 63.1536 342.947C63.1881 335.566 65.1145 328.316 68.7492 321.889C72.384 315.461 77.6061 310.07 83.9183 306.228C90.2304 302.387 97.4223 300.223 104.809 299.943C105.714 299.922 106.577 299.553 107.217 298.914C107.858 298.274 108.227 297.413 108.248 296.509C107.337 258.25 111.218 220.027 119.801 182.729C123.369 165.658 130.339 149.478 140.296 135.151C150.285 121.77 162.359 110.075 176.057 100.512C201.943 81.805 234.981 68.6745 267.552 71.7511C281.774 73.0422 296.244 78.8383 303.313 91.6392C292.035 91.9414 280.399 97.5177 278.831 109.522C278.429 112.827 278.849 116.18 280.053 119.285C281.258 122.389 283.209 125.15 285.735 127.322C288.547 129.572 292.075 130.738 295.675 130.607C299.276 130.476 302.709 129.057 305.349 126.608C313.327 119.878 315.252 109.659 313.409 99.9626C319.542 102.295 324.9 106.294 328.876 111.508C332.853 116.721 335.289 122.941 335.912 129.465C336.269 133.86 343.146 133.888 342.789 129.465C342.145 121.353 339.152 113.604 334.174 107.161C329.197 100.718 322.451 95.8591 314.757 93.1775ZM306.202 113.395C304.331 119.054 298.197 126.608 291.54 122.955C288.984 121.32 287.094 118.831 286.207 115.932C285.32 113.033 285.494 109.914 286.698 107.132C289.944 100.457 298.307 98.0671 305.157 98.3144C305.542 98.3144 305.899 98.3144 306.284 98.3144C307.786 103.234 307.757 108.492 306.202 113.395Z" fill="#82C4D9"/>
<path d="M326.036 146.853C325.046 142.541 318.388 144.354 319.406 148.666C320.974 155.369 312.116 156.907 307.44 156.688C301.499 156.645 295.706 154.838 290.797 151.496C290.254 150.984 289.56 150.662 288.819 150.575C288.077 150.489 287.328 150.645 286.682 151.018C286.036 151.392 285.528 151.963 285.233 152.648C284.939 153.333 284.874 154.095 285.048 154.82C286.203 162.237 284.497 171.576 279.161 177.208C273.824 182.839 261.913 179.405 255.888 176.384C251.954 174.406 248.461 180.339 252.422 182.317C261.005 186.602 275.282 190.201 283.232 182.839C286.151 179.827 288.441 176.264 289.966 172.359C291.492 168.454 292.223 164.284 292.117 160.094C298.32 162.96 305.175 164.126 311.979 163.473C320.369 162.594 328.182 155.919 326.036 146.853Z" fill="#82C4D9"/>
<path d="M387.876 110.868L403.776 122.845C403.848 122.876 403.912 122.926 403.96 122.988C404.008 123.051 404.039 123.124 404.051 123.202C404.045 123.271 404.024 123.339 403.991 123.4C403.958 123.461 403.913 123.515 403.859 123.559C399.941 128.021 395.289 131.784 390.104 134.684C388.42 135.865 386.379 136.428 384.327 136.278C382.986 135.898 381.783 135.138 380.865 134.09C379.947 133.042 379.353 131.75 379.156 130.372C378.404 126.53 378.956 122.548 380.724 119.054C382.48 115.585 384.661 112.346 387.216 109.412" fill="#82C4D9"/>
<path d="M389.774 436.413C392.154 401.926 399.168 367.916 410.626 335.296C414.195 324.419 418.868 313.936 424.573 304.008C425.777 301.737 427.412 299.722 429.387 298.075C431.753 296.564 434.386 295.52 437.144 294.998C499.365 279.41 563.44 272.458 627.561 274.341C625.382 322.43 615.462 369.855 598.182 414.794C597.707 416.388 596.848 417.84 595.678 419.024C594.402 419.987 592.91 420.628 591.332 420.892C525.311 437.511 456.703 438.473 388.756 437.374" fill="#82C4D9"/>
<path d="M380.449 138.201C385.758 142.046 392.057 137.981 396.541 134.767C398.887 133.105 401.103 131.269 403.171 129.273C403.886 128.586 404.766 127.817 405.537 126.965C405.958 126.713 406.294 126.34 406.5 125.894C409.801 119.384 417.008 117.488 423.555 115.73C430.184 114.304 436.436 111.495 441.904 107.489C452.907 98.7539 455.108 85.1014 451.587 72.0808C448.065 59.0601 440.583 46.7536 426.168 44.611C413.734 42.6606 398.054 45.957 391.865 58.1261C388.151 65.3781 389.967 73.1521 390.214 80.8986C390.469 89.5581 389.049 98.1854 386.033 106.308C385.618 106.474 385.25 106.738 384.96 107.077C380.897 111.456 377.878 116.696 376.13 122.405C374.837 127.844 375.552 134.602 380.449 138.201ZM396.376 70.9545C396.013 67.9906 396.446 64.9837 397.631 62.2419C398.815 59.5001 400.708 57.1221 403.116 55.3516C408.492 51.9608 414.823 50.3996 421.162 50.9015C424.216 50.845 427.247 51.4464 430.048 52.6646C432.848 53.8829 435.353 55.6894 437.392 57.9613C441.013 62.6782 443.592 68.1085 444.957 73.8938C448.203 85.9255 445.452 97.7375 434.339 104.413C424.738 110.236 411.148 109.742 403.501 118.148L402.621 117.516L400.42 115.868L393.625 108.698C393.345 108.402 393.02 108.152 392.663 107.956C394.767 102.179 396.144 96.1627 396.761 90.046C397.124 83.6817 396.995 77.299 396.376 70.9545ZM383.199 122.57C384.198 119.752 385.668 117.124 387.546 114.796L394.203 119.823L395.633 120.895L398.687 124.109L396.954 125.757C395.419 127.11 393.803 128.367 392.112 129.52C390.478 130.734 388.716 131.765 386.858 132.597C386.295 132.84 385.682 132.944 385.07 132.899H384.767L384.382 132.652C384.164 132.498 383.969 132.312 383.805 132.102C384.052 132.404 383.502 131.663 383.447 131.58C383.252 131.29 383.095 130.976 382.979 130.646C382.708 129.921 382.533 129.164 382.457 128.394C382.319 126.423 382.572 124.444 383.199 122.57Z" fill="#1F2A40"/>
<path d="M627.561 270.907C580.635 269.567 533.692 272.907 487.431 280.879C475.877 282.856 464.397 285.136 452.99 287.719C447.213 289.01 441.436 290.466 435.714 291.812C431.863 292.59 428.303 294.415 425.426 297.086C420.942 296.921 416.43 296.811 411.946 296.784C411.481 292.354 410.503 287.994 409.03 283.79C400.338 258.518 381.356 234.098 355.498 225.06C351.317 223.577 349.529 230.224 353.682 231.68C373.599 238.658 387.986 255.661 397.339 273.956C402.841 284.669 407.38 297.196 404.766 309.365C403.453 314.827 401.051 319.97 397.705 324.487C394.359 329.003 390.137 332.801 385.29 335.653C376.712 341.001 366.543 343.218 356.513 341.926C346.483 340.634 337.211 335.913 330.272 328.566C322.377 320.16 319.269 309.337 318.498 298.02C317.364 285.291 317.762 272.472 319.681 259.837C322.289 246.753 327.098 234.205 333.903 222.725C339.653 212.534 349.446 199.513 362.953 203.881C366.584 205.062 369.197 199.238 365.704 197.618L364.878 197.261C362.985 196.642 361.145 195.871 359.377 194.953C360.032 193.646 360.767 192.38 361.577 191.162C362.623 189.331 363.751 187.5 364.961 185.668C366.643 183.245 368.481 180.932 370.463 178.746C375.147 183.852 378.102 190.301 378.908 197.178C379.706 204.403 378 217.011 368.097 216.022C363.696 215.583 363.723 222.45 368.097 222.89C380.641 224.154 386.088 210.693 385.978 200.337C385.89 194.858 384.675 189.456 382.408 184.466C380.142 179.476 376.871 175.004 372.801 171.329C372.149 170.696 371.276 170.343 370.366 170.343C369.457 170.343 368.584 170.696 367.932 171.329C362.731 176.597 358.287 182.559 354.728 189.047C353.517 191.3 351.619 194.129 352.197 196.794C344.724 199.046 338.218 203.725 333.711 210.089C325.817 221.014 319.802 233.175 315.913 246.074C311.566 259.809 311.071 274.094 311.236 288.46C311.245 294.41 311.696 300.35 312.584 306.233C292.86 309.694 273.246 313.815 253.715 318.238C259.079 305.597 262.251 292.137 263.095 278.434C264.251 261.348 260.73 243.877 247.498 232.01C234.787 221.007 218.336 215.286 201.53 216.022C193.673 216.35 185.994 218.462 179.077 222.199C172.161 225.935 166.189 231.198 161.615 237.586C152.344 250.25 147.86 266.21 146.017 281.538C143.538 299.532 146.12 317.859 153.472 334.472C154.463 336.67 155.563 338.757 156.718 340.79C104.671 352.685 52.2669 363.645 2.3107 382.929C-1.76062 384.495 -4.72069e-05 391.17 4.1538 389.549C54.6877 370.018 107.862 359.003 160.57 347.163C176.882 370.952 204.226 385.401 231.708 393.038C264.718 402.185 298.609 402.432 332.473 403.366C347.783 417.852 365.743 429.258 385.373 436.962C385.379 437.383 385.453 437.801 385.593 438.198C385.635 438.349 385.69 438.496 385.758 438.638C385.93 439.047 386.185 439.417 386.507 439.725C386.829 440.032 387.211 440.27 387.628 440.423C387.985 440.533 388.356 440.589 388.729 440.588C437.172 441.357 485.808 441.137 533.921 434.874C545.722 433.336 557.469 431.468 569.16 429.161C575.157 427.979 581.154 426.688 587.096 425.26C591.607 424.161 596.806 423.557 599.585 419.436C602.363 415.316 603.959 408.97 605.692 404.026C607.617 398.532 609.46 393.038 611.193 387.544C614.678 376.281 617.722 364.9 620.326 353.399C626.202 327.382 629.774 300.9 631 274.258C630.971 273.364 630.598 272.516 629.957 271.891C629.315 271.266 628.457 270.914 627.561 270.907ZM313.987 313.156C315.248 317.926 317.253 322.468 319.929 326.616C326.256 336.148 335.645 343.246 346.549 346.741C357.454 350.236 369.225 349.92 379.926 345.845C391.297 341.566 400.82 333.465 406.857 322.935C410.116 317.03 411.944 310.444 412.194 303.706C414.945 303.706 417.696 303.706 420.447 303.706C416.088 311.348 412.468 319.387 409.636 327.715C405.619 338.373 402.153 349.251 399.155 360.239C398.439 362.986 397.752 365.541 397.064 368.233C384.685 369.716 372.315 371.392 359.954 373.26C358.855 372.861 357.723 372.558 356.571 372.353C353.907 372.29 351.345 371.321 349.308 369.606C347.41 367.683 345.705 365.541 343.807 363.59C340.303 359.986 336.573 356.61 332.638 353.481C316.812 340.857 298.241 332.116 278.418 327.962C270.399 326.298 262.235 325.424 254.045 325.352C273.989 320.82 293.905 316.617 313.987 313.156ZM205.492 375.924C192.013 369.429 180.096 360.106 170.555 348.592C149.731 323.567 147.75 288.158 158.671 258.244C163.596 244.838 172.426 232.092 186.18 226.434C200.595 220.308 218.256 222.505 232.12 229.867C239.44 233.459 245.648 238.965 250.084 245.8C254.671 254.017 256.871 263.35 256.438 272.748C256.397 289.643 252.423 306.298 244.829 321.397C244.746 321.519 244.672 321.647 244.609 321.781C243.619 323.704 242.601 325.572 241.473 327.275C241.201 327.792 241.062 328.368 241.071 328.952C241.079 329.536 241.234 330.108 241.522 330.617C241.809 331.125 242.22 331.553 242.716 331.862C243.212 332.171 243.778 332.351 244.362 332.384C263.336 331.085 282.348 334.286 299.847 341.724C308.623 345.463 316.931 350.211 324.605 355.871C328.46 358.669 332.135 361.706 335.609 364.964C339.02 368.205 341.909 371.968 345.347 375.155L345.897 375.567C336.737 377.078 327.576 378.644 318.388 380.347C315.637 380.896 315.445 384.275 316.875 386.088C319.626 389.632 322.377 393.01 325.541 396.279C301.36 395.702 277.18 395.153 253.33 390.785C236.771 388.069 220.671 383.068 205.492 375.924ZM343.201 403.806C347.016 403.934 350.84 404.099 354.673 404.3C359.102 404.52 359.102 397.653 354.673 397.433C348.291 397.103 341.881 396.884 335.416 396.719C331.978 393.34 328.677 389.851 325.568 386.17C336.7 384.119 347.887 382.233 359.129 380.512H359.377C361.573 381.607 363.513 383.151 365.073 385.044C366.632 386.937 367.775 389.136 368.427 391.499C368.548 391.934 368.754 392.341 369.032 392.696C369.31 393.051 369.656 393.349 370.05 393.571C370.443 393.792 370.876 393.935 371.325 393.99C371.773 394.044 372.228 394.01 372.664 393.889C373.099 393.768 373.506 393.563 373.862 393.285C374.218 393.007 374.515 392.662 374.738 392.269C374.96 391.876 375.102 391.444 375.157 390.996C375.212 390.548 375.178 390.094 375.057 389.659C373.909 385.601 371.74 381.903 368.757 378.918C377.615 377.618 386.491 376.419 395.386 375.32C391.25 393.365 388.383 411.677 386.803 430.122C370.919 423.804 356.187 414.913 343.201 403.806ZM597.357 407.212C596.569 409.833 595.595 412.395 594.441 414.876C593.093 417.403 590.424 417.623 587.866 418.2C582.364 419.555 576.807 420.81 571.195 421.963C559.862 424.298 548.418 426.249 536.947 427.815C513.812 430.974 490.484 432.649 467.157 433.501C442.591 434.407 417.998 434.325 393.405 433.995C395.024 412.699 398.42 391.575 403.556 370.842C408.783 349.828 415.082 327.989 425.563 308.98C428.039 304.503 430.24 300.465 435.411 298.926C440.583 297.388 445.7 296.317 450.844 295.135C461.847 292.608 472.851 290.347 483.855 288.35C506.169 284.314 528.672 281.398 551.279 279.615C575.391 277.706 599.585 277.046 623.765 277.637C621.425 321.859 612.525 365.49 597.357 407.102V407.212Z" fill="#1F2A40"/>
</g>
<defs>
<clipPath id="clip0_1246_176">
<rect width="631" height="441" fill="white"/>
</clipPath>
</defs>
</svg>
