<svg width="156" height="27" viewBox="0 0 156 27" fill="none" xmlns="http://www.w3.org/2000/svg">
<path d="M12.1679 1.03903L8.87658 7.75312L1.51266 8.83326C0.1921 9.02596 -0.337134 10.6639 0.620527 11.6021L5.94815 16.8252L4.68807 24.2036C4.46125 25.5373 5.85742 26.5363 7.02678 25.9126L13.6145 22.4288L20.2022 25.9126C21.3715 26.5313 22.7677 25.5373 22.5409 24.2036L21.2808 16.8252L26.6084 11.6021C27.5661 10.6639 27.0369 9.02596 25.7163 8.83326L18.3524 7.75312L15.0611 1.03903C14.4713 -0.157737 12.7627 -0.17295 12.1679 1.03903Z" fill="#FCC400"/>
<path d="M44.1318 1.03903L40.8404 7.75312L33.4765 8.83326C32.156 9.02596 31.6267 10.6639 32.5844 11.6021L37.912 16.8252L36.6519 24.2036C36.4251 25.5373 37.8213 26.5363 38.9906 25.9126L45.5783 22.4288L52.1661 25.9126C53.3354 26.5313 54.7316 25.5373 54.5048 24.2036L53.2447 16.8252L58.5723 11.6021C59.53 10.6639 59.0007 9.02596 57.6802 8.83326L50.3163 7.75312L47.0249 1.03903C46.4352 -0.157737 44.7265 -0.17295 44.1318 1.03903Z" fill="#FCC400"/>
<path d="M76.5414 1.03903L73.1282 7.75312L65.4915 8.83326C64.1221 9.02596 63.5732 10.6639 64.5664 11.6021L70.0913 16.8252L68.7846 24.2036C68.5493 25.5373 69.9972 26.5363 71.2099 25.9126L78.0416 22.4288L84.8733 25.9126C86.0859 26.5313 87.5338 25.5373 87.2986 24.2036L85.9919 16.8252L91.5168 11.6021C92.5099 10.6639 91.9611 9.02596 90.5916 8.83326L82.955 7.75312L79.5417 1.03903C78.9302 -0.157737 77.1582 -0.17295 76.5414 1.03903Z" fill="#FCC400"/>
<path d="M109.058 1.03903L105.767 7.75312L98.4027 8.83326C97.0821 9.02596 96.5529 10.6639 97.5105 11.6021L102.838 16.8252L101.578 24.2036C101.351 25.5373 102.747 26.5363 103.917 25.9126L110.504 22.4288L117.092 25.9126C118.262 26.5313 119.658 25.5373 119.431 24.2036L118.171 16.8252L123.498 11.6021C124.456 10.6639 123.927 9.02596 122.606 8.83326L115.242 7.75312L111.951 1.03903C111.361 -0.157737 109.653 -0.17295 109.058 1.03903Z" fill="#FCC400"/>
<path d="M141.022 1.03903L137.73 7.75312L130.367 8.83326C129.046 9.02596 128.517 10.6639 129.474 11.6021L134.802 16.8252L133.542 24.2036C133.315 25.5373 134.711 26.5363 135.881 25.9126L142.468 22.4288L149.056 25.9126C150.225 26.5313 151.622 25.5373 151.395 24.2036L150.135 16.8252L155.462 11.6021C156.42 10.6639 155.891 9.02596 154.57 8.83326L147.206 7.75312L143.915 1.03903C143.325 -0.157737 141.617 -0.17295 141.022 1.03903Z" fill="#FCC400"/>
</svg>
