<svg width="441" height="478" viewBox="0 0 441 478" fill="none" xmlns="http://www.w3.org/2000/svg">
<path opacity="0.3" fill-rule="evenodd" clip-rule="evenodd" d="M265.784 98.6129C314.171 112.254 378.3 97.4747 404.754 140.264C431.806 184.019 401.868 239.518 382.373 287.193C363.154 334.194 341.29 382.421 296.211 405.703C248.473 430.359 191.537 430.79 141.394 411.655C90.5754 392.261 34.337 357.349 27.7926 303.27C21.5576 251.747 89.1986 226.249 113.398 180.313C132.419 144.209 115.37 88.0814 151.307 68.814C187.473 49.424 226.331 87.4908 265.784 98.6129Z" fill="white"/>
<path d="M209.902 347.067C239.357 347.067 265.062 324.499 284.267 281.876C292.762 262.585 299.262 242.481 303.667 221.876C307.838 221.876 316.794 222.843 327.981 232.354C328.972 233.188 330.254 233.595 331.545 233.486C332.837 233.377 334.032 232.761 334.868 231.774C335.704 230.786 336.113 229.508 336.004 228.22C335.894 226.932 335.277 225.74 334.286 224.906C314.466 208.109 298.72 212.687 298.171 212.881C297.34 213.159 296.601 213.657 296.032 214.322C295.462 214.986 295.084 215.791 294.937 216.653C294.614 217.846 272.24 337.395 209.902 337.395C205.106 337.544 200.34 336.586 195.976 334.595C191.612 332.604 187.769 329.634 184.747 325.917C156.779 292.774 172.202 201.757 172.364 200.822C172.525 199.887 191.763 83.659 252.549 83.659C257.833 83.5052 263.085 84.5279 267.923 86.6528C272.762 88.7777 277.064 91.9514 280.517 95.9428C307.288 126.12 298.591 200.403 298.494 201.145C298.415 201.78 298.463 202.424 298.634 203.041C298.805 203.658 299.097 204.235 299.491 204.739C299.886 205.244 300.377 205.666 300.935 205.981C301.494 206.297 302.109 206.499 302.746 206.577C304.032 206.736 305.329 206.378 306.35 205.583C307.372 204.788 308.035 203.62 308.194 202.338C308.582 199.114 317.538 122.961 287.856 89.4947C283.494 84.4724 278.073 80.4725 271.98 77.7807C265.888 75.0888 259.275 73.7713 252.614 73.9223C223.514 73.9223 198.844 95.9106 180.996 137.437C172.672 157.283 166.588 177.991 162.858 199.178C162.179 203.047 146.691 295.514 177.408 332.075C181.321 336.877 186.283 340.723 191.915 343.322C197.546 345.92 203.698 347.201 209.902 347.067Z" fill="#493BCD"/>
<path d="M65.8597 303.445C112.128 303.445 135.537 211.656 140.484 189.087C143.845 191.677 146.846 194.702 149.408 198.082C150.218 199.078 151.392 199.713 152.671 199.846C153.951 199.979 155.231 199.6 156.23 198.791C157.229 197.983 157.865 196.813 157.998 195.537C158.132 194.261 157.752 192.985 156.941 191.989C149.666 183.026 143.717 178.512 138.77 178.157C137.823 178.047 136.862 178.133 135.95 178.411C135.037 178.688 134.192 179.151 133.468 179.769C132.716 180.476 132.207 181.401 132.013 182.413C125.837 213.977 101.426 295.933 64.4047 293.741C61.6223 293.6 58.9065 292.841 56.4562 291.519C54.0059 290.197 51.8831 288.345 50.243 286.1C27.61 257.083 45.0374 162.94 45.199 162.005C50.7279 131.537 72.4879 53.6752 107.925 53.6752H109.283C112.394 53.8197 115.435 54.6457 118.19 56.0945C120.945 57.5432 123.346 59.5792 125.223 62.0578C147.177 89.1401 135.763 166.744 135.537 167.518C135.441 168.153 135.472 168.801 135.628 169.424C135.783 170.047 136.06 170.633 136.443 171.15C136.826 171.666 137.307 172.103 137.859 172.434C138.411 172.765 139.022 172.984 139.659 173.079C140.296 173.175 140.946 173.144 141.571 172.989C142.196 172.834 142.784 172.558 143.302 172.176C143.82 171.794 144.257 171.314 144.589 170.764C144.921 170.214 145.141 169.604 145.237 168.969C145.754 165.745 157.394 86.174 132.724 56.1255C129.998 52.5528 126.523 49.6168 122.541 47.5229C118.559 45.429 114.167 44.2277 109.671 44.0029C57.6795 41.3269 36.5985 155.395 35.7255 160.264C34.9819 164.229 17.1665 259.533 42.6771 292.032C45.1455 295.383 48.3342 298.141 52.0097 300.105C55.6852 302.069 59.7544 303.188 63.9197 303.381L65.8597 303.445Z" fill="white"/>
<path d="M254.812 221.457C249.098 221.457 244.466 216.838 244.466 211.14C244.466 205.442 249.098 200.823 254.812 200.823C260.527 200.823 265.159 205.442 265.159 211.14C265.159 216.838 260.527 221.457 254.812 221.457Z" fill="#1F2A40"/>
<path d="M285.399 172.644C286.264 172.641 287.113 172.407 287.856 171.967C288.918 171.317 289.687 170.283 290 169.081C290.314 167.878 290.148 166.602 289.538 165.519C289.085 164.713 277.736 145.884 261.99 142.144C261.356 141.945 260.688 141.879 260.026 141.949C259.365 142.018 258.726 142.223 258.147 142.55C257.569 142.876 257.064 143.318 256.664 143.847C256.264 144.377 255.977 144.982 255.821 145.627C255.666 146.271 255.645 146.941 255.76 147.594C255.875 148.247 256.123 148.869 256.489 149.422C256.855 149.976 257.332 150.448 257.889 150.81C258.446 151.172 259.071 151.416 259.727 151.526C269.427 153.848 278.545 165.97 281.196 170.452C281.65 171.145 282.274 171.711 283.01 172.095C283.746 172.479 284.569 172.668 285.399 172.644Z" fill="#1F2A40"/>
<path d="M109.929 184.509C106.197 184.509 103.171 181.492 103.171 177.771C103.171 174.049 106.197 171.032 109.929 171.032C113.661 171.032 116.687 174.049 116.687 177.771C116.687 181.492 113.661 184.509 109.929 184.509Z" fill="#82C4D9"/>
<path d="M95.3792 114.739C96.2509 114.738 97.1065 114.505 97.857 114.062C98.6076 113.62 99.2257 112.986 99.6471 112.225C103.527 105.099 114.714 100.553 118.691 99.3282C119.753 98.8581 120.611 98.0232 121.108 96.9756C121.605 95.928 121.708 94.7373 121.398 93.6203C121.089 92.5033 120.388 91.5342 119.422 90.8894C118.456 90.2446 117.29 89.9671 116.137 90.1073C115.393 90.333 97.9011 95.4593 91.2406 107.582C90.6687 108.699 90.5513 109.993 90.9127 111.194C91.2741 112.395 92.0865 113.411 93.1805 114.03C93.849 114.432 94.6014 114.675 95.3792 114.739Z" fill="#82C4D9"/>
<path d="M143.297 303.703C142.418 302.752 141.49 301.848 140.516 300.995L139.126 299.802C138.447 299.286 139.966 300.415 139.126 299.802L138.382 299.254C136.273 297.811 134.045 296.549 131.722 295.482C130.946 295.127 132.724 295.869 131.916 295.482L131.043 295.159L129.297 294.547C128.064 294.16 126.812 293.837 125.546 293.58L123.735 293.225C122.765 293.225 123.735 293.225 123.994 293.225C124.253 293.225 123.218 293.225 123.089 293.225C121.71 293.145 120.328 293.145 118.95 293.225C117.419 293.113 115.986 292.428 114.941 291.307C113.896 290.185 113.315 288.711 113.315 287.18C113.315 285.649 113.896 284.174 114.941 283.053C115.986 281.931 117.419 281.246 118.95 281.135C125.112 281.099 131.216 282.325 136.883 284.737C142.551 287.15 147.661 290.697 151.897 295.159C152.936 296.315 153.49 297.824 153.446 299.376C153.402 300.927 152.763 302.403 151.66 303.498C150.558 304.594 149.075 305.226 147.519 305.264C145.963 305.302 144.452 304.743 143.297 303.703Z" fill="#FF675E"/>
<path d="M140.58 233.289C128.52 233.289 116.428 233.096 104.368 232.483L107.601 221.231C118.465 228.969 129.49 236.836 138.091 247.024C139.192 248.175 139.806 249.705 139.806 251.296C139.806 252.887 139.192 254.417 138.091 255.568C136.94 256.673 135.405 257.291 133.807 257.291C132.209 257.291 130.673 256.673 129.523 255.568C121.281 246.365 111.855 238.288 101.49 231.548C100.356 230.854 99.4749 229.816 98.9747 228.586C98.4744 227.356 98.3815 225.999 98.7095 224.713C99.0709 223.446 99.8323 222.329 100.881 221.528C101.929 220.726 103.209 220.283 104.529 220.264C116.59 220.877 128.682 221.135 140.742 221.07C142.274 221.182 143.706 221.867 144.751 222.989C145.797 224.11 146.378 225.584 146.378 227.115C146.378 228.646 145.797 230.121 144.751 231.242C143.706 232.364 142.274 233.049 140.742 233.161L140.58 233.289Z" fill="#FF675E"/>
<path opacity="0.2" fill-rule="evenodd" clip-rule="evenodd" d="M109.903 0.0469243C149.995 -1.18595 189.684 21.9512 200.254 60.4783C209.763 95.1342 178.684 122.852 149.327 143.738C120.985 163.9 85.4169 182.253 56.7235 162.589C26.4279 141.828 23.8452 100.371 35.2368 65.5527C46.5963 30.8327 73.2468 1.17413 109.903 0.0469243Z" fill="#82C4D9"/>
</svg>
